<mxfile host="app.diagrams.net" modified="2023-01-26T23:47:02.746Z" agent="5.0 (Windows NT 10.0; Win64; x64) AppleWebKit/537.36 (KHTML, like Gecko) Chrome/109.0.0.0 Safari/537.36" etag="u-CNP_mLxHBNSlBkiErg" version="20.8.11" type="github">
  <diagram name="ページ1" id="9gb5cQvrxVJw5bEw3ysk">
    <mxGraphModel dx="2074" dy="1805" grid="1" gridSize="10" guides="1" tooltips="1" connect="1" arrows="1" fold="1" page="1" pageScale="1" pageWidth="827" pageHeight="1169" math="0" shadow="0">
      <root>
        <mxCell id="0" />
        <mxCell id="1" parent="0" />
        <mxCell id="BB2fsDTz9CcMep_27AKw-1" value="" style="shape=image;verticalLabelPosition=bottom;labelBackgroundColor=default;verticalAlign=top;aspect=fixed;imageAspect=0;image=data:image/png,iVBORw0KGgoAAAANSUhEUgAACDQAAAVQCAIAAAAxhA8SAAAgAElEQVR4AezBMRWAQBBDwaQFX6hYeWsCfFEHAbwtaLk/Y52bAPxFKhq4LQD4KBUN3BaAJeW4NfC1C8CSUtHAbQEAALxY5yYAf5GKBm4LAD5KRQO3BWBJOW4NfO0CsKRUNHBbAAAAL9a5CcBfpKKB2wKAj1LRwG0BWFKOWwNfuwAsKRUN3BYAAMCLdW4C8BepaOC2AOCjVDRwWwCWlOPWwNcuAEtKRQO3BQAA8GKdmwD8RSoauC0A+CgVDdwWgCXluDXwtQvAklLRwG0BAAC8WOcmAH+RigZuCwA+SkUDtwVgSTluDXztArCkVDRwWwAAAC/WuQnAX6SigdsCgI9S0cBtAVhSjlsDX7sALCkVDdwWAADAi3VuAvAXqWjgtgDgo1Q0cFsAlpTj1sDXLgBLSkUDtwUAAPBinZsA/EUqGrgtAPgoFQ3cFoAl5bg18LULwJJS0cBtAQAAvFjnJgB/kYoGbgsAPkpFA7cFYEk5bg187QKwpFQ0cFsAAAAv1rkJwF+kooHbAoCPUtHAbQFYUo5bA1+7ACwpFQ3cFgAAwIt1bgLwF6lo4LYA4KNUNHBbAJaU49bA1y4AS0pFA7cFAADwYp2bAPxFKhq4LQD4KBUN3BaAJeW4NfC1C8CSUtHAbQEAALxY5yYAf5GKBm4LAD5KRQO3BWBJOW4NfO0CsKRUNHBbAAAAL9a5CcBfpKKB2wKAj1LRwG0BWFKOWwNfuwAsKRUN3BYAAMCLdW4C8BepaOC2AOCjVDRwWwCWlOPWwNcuAEtKRQO3BQAA8GKdmwD8RSoauC0A+CgVDdwWgCXluDXwtQvAklLRwG0BAAC8WOcmAH+RigZuCwA+SkUDtwVgSTluDXztArCkVDRwWwAAAC/WuQnAX6SigdsCgI9S0cBtAVhSjlsDX7sALCkVDdwWAADAi3VuAvAXqWjgtgDgo1Q0cFsAlpTj1sDXLgBLSkUDtwUAAPBinZsA/EUqGrgtAPgoFQ3cFoAl5bg18LULwJJS0cBtAQAAvFjnJgB/kYoGbgsAPkpFA7cFYEk5bg187QKwpFQ0cFsAAAAv1rkJwF+kooHbAoCPUtHAbQFYUo5bA1+7ACwpFQ3cFgAAwIt1bgLwF6lo4LYA4KNUNHBbAJaU49bA1y4AS0pFA7cFAADwYp2bAPxFKhq4LQD4KBUN3BaAJeW4NfC1C8CSUtHAbQEAALxY5yYAf5GKBm4LAD5KRQO3BWBJOW4NfO0CsKRUNHBbAAAAL9a5CcBfpKKB2wKAj1LRwG0BWFKOWwNfuwAsKRUN3BYAAMCLdW4C8BepaOC2AOCjVDRwWwCWlOPWwNcuAEtKRQO3BQAA8GKdmwD8RSoauC0A+CgVDdwWgCXluDXwtQvAklLRwG0BAAC8WOcmAH+RigZuCwA+SkUDtwVgSTluDXztArCkVDRwWwAAAC/WuQnAX6SigdsCgI9S0cBtAVhSjlsDX7sALCkVDdwWAADAi3VuAvAXqWjgtgDgo1Q0cFsAlpTj1sDXLgBLSkUDtwUAAPBinZsA/EUqGrgtAPgoFQ3cFoAl5bg18LULwJJS0cBtAQAAvFjnJgB/kYoGbgsAPkpFA7cFYEk5bg187QKwpFQ0cFsAAAAv1rkJwF+kooHbAoCPUtHAbQFYUo5bA1+7ACwpFQ3cFgAAwIt1bgLwF6lo4LYA4KNUNHBbAJaU49bA1y4AS0pFA7cFAADwYp2bAPxFKhq4LQD4KBUN3BaAJeW4NfC1C8CSUtHAbQEAALxY5yYAf5GKBm4LAD5KRQO3BWBJOW4NfO0CsKRUNHBbAAAAL9a5CcBfpKKB2wKAj1LRwG0BWFKOWwNfuwAsKRUN3BYAAMCLdW4C8BepaOC2AOCjVDRwWwCWlOPWwNcuAEtKRQO3BQAA8GKdmwD8RSoauC0A+CgVDdwWgCXluDXwtQvAklLRwG0BAAC8WOcmAH+RigZuCwA+SkUDtwVgSTluDXztArCkVDRwWwAAAC/WuQnAX6SigdsCgI9S0cBtAVhSjlsDX7sALCkVDdwWAADAi3VuAvAXqWjgtgDgo1Q0cFsAlpTj1sDXLgBLSkUDtwUAAPBinZsA/EUqGrgtAPgoFQ3cFoAl5bg18LULwJJS0cBtAQAAvFjnJgB/kYoGbgsAPkpFA7cFYEk5bg187QKwpFQ0cFsAAAAv1rkJwF+kooHbAoCPUtHAbQFYUo5bA1+7ACwpFQ3cFgAAwIt1bgLwF6lo4LYA4KNUNHBbAJaU49bA1y4AS0pFA7cFAADwYp2bAPxFKhq4LQD4KBUN3BaAJeW4NfC1C8CSUtHAbQEAALxY5yYAf5GKBm4LAD5KRQO3BWBJOW4NfO0CsKRUNHBbAAAAL9a5CcBfpKKB2wKAj1LRwG0BWFKOWwNfuwAsKRUN3BYAAMCLdW4C8BepaOC2AOCjVDRwWwCWlOPWwNcuAEtKRQO3BQAA8GKdmwD8RSoauC0A+CgVDdwWgCXluDXwtQvAklLRwG0BAAC8WOcmAH+RigZuCwA+SkUDtwVgSTluDXztArCkVDRwWwAAAC/WuQnAX6SigdsCgI9S0cBtAVhSjlsDX7sALCkVDdwWAADAi3VuAvAXqWjgtgDgo1Q0cFsAlpTj1sDXLgBLSkUDtwUAAPBinZsA/EUqGrgtAPgoFQ3cFoAl5bg18LULwJJS0cBtAQAAvFjnJgB/kYoGbgsAPkpFA7cFYEk5bg187QKwpFQ0cFsAAAAv1rkJwF+kooHbAoCPUtHAbQFYUo5bA1+7ACwpFQ3cFgAAwIt1bgLwF6lo4LYA4KNUNHBbAJaU49bA1y4AS0pFA7cFAADwYp2bAPxFKhq4LQD4KBUN3BaAJeW4NfC1C8CSUtHAbQEAALxY5yYAf5GKBm4LAD5KRQO3BWBJOW4NfO0CsKRUNHBbAAAAL9a5CcBfpKKB2wKAj1LRwG0BWFKOWwNfuwAsKRUN3BYAAMCLdW4C8BepaOC2AOCjVDRwWwCWlOPWwNcuAEtKRQO3BQAA8GKdmwD8RSoauC0A+CgVDdwWgCXluDXwtQvAklLRwG0BAAC8WOcmAH+RigZuCwA+SkUDtwVgSTluDXztArCkVDRwWwAAAC/WuQnAX6SigdsCgI9S0cBtAVhSjlsDX7sALCkVDdwWAADAi3VuAvAXqWjgtgDgo1Q0cFsAlpTj1sDXLgBLSkUDtwUAAPBinZsA/EUqGrgtAPgoFQ3cFoAl5bg18LULwJJS0cBtAQAAvFjnJgB/kYoGbgsAPkpFA7cFYEk5bg187QKwpFQ0cFsAAAAv1rkJwF+kooHbAoCPUtHAbQFYUo5bA1+7ACwpFQ3cFgAAwIt1bgLwF6lo4LYA4KNUNHBbAJaU49bA1y4AS0pFA7cFAADwYp2bAPxFKhq4LQD4KBUN3BaAJeW4NfC1C8CSUtHAbQEAALxY5yYAf5GKBm4LAD5KRQO3BWBJOW4NfO0CsKRUNHBbAAAAL9a5CcBfpKKB2wKAj1LRwG0BWFKOWwNfuwAsKRUN3BYAAMCLdW4C8BepaOC2AOCjVDRwWwCWlOPWwNcuAEtKRQO3BQAA8GKdmwD8RSoauC0A+CgVDdwWgCXluDXwtQvAklLRwG0BAAC8WOcmAH+RigZuCwA+SkUDtwVgSTluDXztArCkVDRwWwAAAC/WuQnAX6SigdsCgI9S0cBtAVhSjlsDX7sALCkVDdwWAADAi3VuAvAXqWjgtgDgo1Q0cFsAlpTj1sDXLgBLSkUDtwUAAPBinZsA/EUqGrgtAPgoFQ3cFoAl5bg18LULwJJS0cBtAQAAvFjnJgB/kYoGbgsAPkpFA7cFYEk5bg187QKwpFQ0cFsAAAAv1rkJwF+kooHbAoCPUtHAbQFYUo5bA1+7ACwpFQ3cFgAAwIt1bgLwF6lo4LYA4KNUNHBbAJaU49bA1y4AS0pFA7cFAADwYp2bAPxFKhq4LQD4KBUN3BaAJeW4NfC1C8CSUtHAbQEAALxY5yYAf5GKBm4LAD5KRQO3BWBJOW4NfO0CsKRUNHBbAAAAL9a5CcBfpKKB2wKAj1LRwG0BWFKOWwNfuwAsKRUN3BYAAMCLdW4C8BepaOC2AOCjVDRwWwCWlOPWwNcuAEtKRQO3BQAA8GKdmwD8RSoauC0A+CgVDdwWgCXluDXwtQvAklLRwG0BAAC8WOcmAH+RigZuCwA+SkUDtwVgSTluDXztArCkVDRwWwAAAC/WuQnAX6SigdsCgI9S0cBtAVhSjlsDX7sALCkVDdwWAADAi3VuAvAXqWjgtgDgo1Q0cFsAlpTj1sDXLgBLSkUDtwUAAPBinZsA/EUqGrgtAPgoFQ3cFoAl5bg18LULwJJS0cBtAQAAvFjnJgB/kYoGbgsAPkpFA7cFYEk5bg187QKwpFQ0cFsAAAAv1rkJwF+kooHbAoCPUtHAbQFYUo5bA1+7ACwpFQ3cFgAAwIt1bgLwF6lo4LYA4KNUNHBbAJaU49bA1y4AS0pFA7cFAADwYp2bAPxFKhq4LQD4KBUN3BaAJeW4NfC1C8CSUtHAbQEAALxY5yYAf5GKBm4LAD5KRQO3BWBJOW4NfO0CsKRUNHBbAAAAL9a5CcBfpKKB2wKAj1LRwG0BWFKOWwNfuwAsKRUN3BYAAMCLdW4C8BepaOC2AOCjVDRwWwCWlOPWwNcuAEtKRQO3BQAA8GKdmwD8RSoauC0A+CgVDdwWgCXluDXwtQvAklLRwG0BAAC8WOcmAH+RigZuCwA+SkUDtwVgSTluDXztArCkVDRwWwAAAC/WuQnAX6SigdsCgI9S0cBtAVhSjlsDX7sALCkVDdwWAADAi3VuAvAXqWjgtgDgo1Q0cFsAlpTj1sDXLgBLSkUDtwUAAPBinZsA/EUqGrgtAPgoFQ3cFoAl5bg18LULwJJS0cBtAQAAvFjnJgB/kYoGbgsAPkpFA7cFYEk5bg187QKwpFQ0cFsAAAAv1rkJwF+kooHbAoCPUtHAbQFYUo5bA1+7ACwpFQ3cFgAAwIt1bgLwF6lo4LYA4KNUNHBbAJaU49bA1y4AS0pFA7cFAADwYp2bAPxFKhq4LQD4KBUN3BaAJeW4NfC1C8CSUtHAbQEAALxY5yYAf5GKBm4LAD5KRQO3BWBJOW4NfO0CsKRUNHBbAAAAL9a5CcBfpKKB2wKAj1LRwG0BWFKOWwNfuwAsKRUN3BYAAMCLdW4C8BepaOC2AOCjVDRwWwCWlOPWwNcuAEtKRQO3BQAA8GKdmwD8RSoauC0A+CgVDdwWgCXluDXwtQvAklLRwG0BAAC8WOcmAH+RigZuCwA+SkUDtwVgSTluDXztArCkVDRwWwAAAC/WuQnAX6SigdsCgI9S0cBtAVhSjlsDX7sALCkVDdwWAADAi3VuAvAXqWjgtgDgo1Q0cFsAlpTj1sDXLgBLSkUDtwUAAPBinZsA/EUqGrgtAPgoFQ3cFoAl5bg18LULwJJS0cBtAQAAvFjnJgB/kYoGbgsAPkpFA7cFYEk5bg187QKwpFQ0cFsAAAAv1rkJwF+kooHbAoCPUtHAbQFYUo5bA1+7ACwpFQ3cFgAAwIt1bgLwF6lo4LYA4KNUNHBbAJaU49bA1y4AS0pFA7cFAADwYp2bAPxFKhq4LQD4KBUN3BaAJeW4NfC1C8CSUtHAbQEAALxY5yYAf5GKBm4LAD5KRQO3BWBJOW4NfO0CsKRUNHBbAAAAL9a5CcBfpKKB2wKAj1LRwG0BWFKOWwNfuwAsKRUN3BYAAMCLdW4C8BepaOC2AOCjVDRwWwCWlOPWwNcuAEtKRQO3BQAA8GKdmwD8RSoauC0A+CgVDdwWgCXluDXwtQvAklLRwG0BAAC8WOcmAH+RigZuCwA+SkUDtwVgSTluDXztArCkVDRwWwAAAC/WuQnAX6SigdsCgI9S0cBtAVhSjlsDX7sALCkVDdwWAADAi3VuAvAXqWjgtgDgo1Q0cFsAlpTj1sDXLgBLSkUDtwUAAPBinZsA/EUqGrgtAPgoFQ3cFoAl5bg18LULwJJS0cBtAQAAvFjnJgB/kYoGbgsAPkpFA7cFYEk5bg187QKwpFQ0cFsAAAAv1rkJwF+kooHbAoCPUtHAbQFYUo5bA1+7ACwpFQ3cFgAAwIt1bgLwF6lo4LYA4KNUNHBbAJaU49bA1y4AS0pFA7cFAADwYp2bAPxFKhq4LQD4KBUN3BaAJeW4NfC1C8CSUtHAbQEAALxY5yYAf5GKBm4LAD5KRQO3BWBJOW4NfO0CsKRUNHBbAAAAL9a5CcBfpKKB2wKAj1LRwG0BWFKOWwNfuwAsKRUN3BYAAMCLdW4C8BepaOC2AOCjVDRwWwCWlOPWwNcuAEtKRQO3BQAA8GKdmwD8RSoauC0A+CgVDdwWgCXluDXwtQvAklLRwG0BAAC8WOcmAH+RigZuCwA+SkUDtwVgSTluDXztArCkVDRwWwAAAC/WuQnAX6SigdsCgI9S0cBtAVhSjlsDX7sALCkVDdwWAADAi3VuAvAXqWjgtgDgo1Q0cFsAlpTj1sDXLgBLSkUDtwUAAPBinZsA/EUqGrgtAPgoFQ3cFoAl5bg18LULwJJS0cBtAQAAvFjnJgB/kYoGbgsAPkpFA7cFYEk5bg187QKwpFQ0cFsAAAAv1rkJwF+kooHbAoCPUtHAbQFYUo5bA1+7ACwpFQ3cFgAAwIt1bgLwF6lo4LYA4KNUNHBbAJaU49bA1y4AS0pFA7cFAADwYp2bAPxFKhq4LQD4KBUN3BaAJeW4NfC1C8CSUtHAbQEAALxY5yYAf5GKBm4LAD5KRQO3BWBJOW4NfO0CsKRUNHBbAAAAL9a5CcBfpKKB2wKAj1LRwG0BWFKOWwNfuwAsKRUN3BYAAMCLdW4C8BepaOC2AOCjVDRwWwCWlOPWwNcuAEtKRQO3BQAA8GKdmwD8RSoauC0A+CgVDdwWgCXluDXwtQvAklLRwG0BAAC8WOcmAH+RigZuCwA+SkUDtwVgSTluDXztArCkVDRwWwAAAC/WuQnAX6SigdsCgI9S0cBtAVhSjlsDX7sALCkVDdwWAADAi3VuAvAXqWjgtgDgo1Q0cFsAlpTj1sDXLgBLSkUDtwUAAPBinZsA/EUqGrgtAPgoFQ3cFoAl5bg18LULwJJS0cBtAQAAvFjnJgB/kYoGbgsAPkpFA7cFYEk5bg187QKwpFQ0cFsAAAAv1rkJwF+kooHbAoCPUtHAbQFYUo5bA1+7ACwpFQ3cFgAAwIt1bgLwF6lo4LYA4KNUNHBbAJaU49bA1y4AS0pFA7cFAADwYp2bAPxFKhq4LQD4KBUN3BaAJeW4NfC1C8CSUtHAbQEAALxY5yYAf5GKBm4LAD5KRQO3BWBJOW4NfO0CsKRUNHBbAAAAL9a5CcBfpKKB2wKAj1LRwG0BWFKOWwNfuwAsKRUN3BYAAMCLdW4C8BepaOC2AOCjVDRwWwCWlOPWwNcuAEtKRQO3BQAA8GKdmwD8RSoauC0A+CgVDdwWgCXluDXwtQvAklLRwG0BAAC8WOcmAH+RigZuCwA+SkUDtwVgSTluDXztArCkVDRwWwAAAC/WuQnAX6SigdsCgI9S0cBtAVhSjlsDX7sALCkVDdwWAADAi3VuAvAXqWjgtgDgo1Q0cFsAlpTj1sDXLgBLSkUDtwUAAPBinZsA/EUqGrgtAPgoFQ3cFoAl5bg18LULwJJS0cBtAQAAvFjnJgB/kYoGbgsAPkpFA7cFYEk5bg187QKwpFQ0cFsAAAAv1rkJwF+kooHbAoCPUtHAbQFYUo5bA1+7ACwpFQ3cFgAAwIt1bgLwF6lo4LYA4KNUNHBbAJaU49bA1y4AS0pFA7cFAADwYp2bAPxFKhq4LQD4KBUN3BaAJeW4NfC1C8CSUtHAbQEAALxY5yYAf5GKBm4LAD5KRQO3BWBJOW4NfO0CsKRUNHBbAAAAL9a5CcBfpKKB2wKAj1LRwG0BWFKOWwNfuwAsKRUN3BYAAMCLdW4C8BepaOC2AOCjVDRwWwCWlOPWwNcuAEtKRQO3BQAA8GKdmwD8RSoauC0A+CgVDdwWgCXluDXwtQvAklLRwG0BAAC8WOcmAH+RigZuCwA+SkUDtwVgSTluDXztArCkVDRwWwAAAC/WuQnAX6SigdsCgI9S0cBtAVhSjlsDX7sALCkVDdwWAADAi3VuAvAXqWjgtgDgo1Q0cFsAlpTj1sDXLgBLSkUDtwUAAPBinZsA/EUqGrgtAPgoFQ3cFoAl5bg18LULwJJS0cBtAQAAvFjnJgB/kYoGbgsAPkpFA7cFYEk5bg187QKwpFQ0cFsAAAAv1rkJwF+kooHbAoCPUtHAbQFYUo5bA1+7ACwpFQ3cFgAAwIt1bgLwF6lo4LYA4KNUNHBbAJaU49bA1y4AS0pFA7cFAADwYp2bAPxFKhq4LQD4KBUN3BaAJeW4NfC1C8CSUtHAbQEAALxY5yYAf5GKBm4LAD5KRQO3BWBJOW4NfO0CsKRUNHBbAAAAL9a5CcBfpKKB2wKAj1LRwG0BWFKOWwNfuwAsKRUN3BYAAMCLdW4C8BepaOC2AOCjVDRwWwCWlOPWwNcuAEtKRQO3BQAA8GKdmwD8RSoauC0A+CgVDdwWgCXluDXwtQvAklLRwG0BAAC8WOcmAH+RigZuCwA+SkUDtwVgSTluDXztArCkVDRwWwAAAC/WuQnAX6SigdsCgI9S0cBtAVhSjlsDX7sALCkVDdwWAADAi3VuAvAXqWjgtgDgo1Q0cFsAlpTj1sDXLgBLSkUDtwUAAPBinZsA/EUqGrgtAPgoFQ3cFoAl5bg18LULwJJS0cBtAQAAvFjnJgB/kYoGbgsAPkpFA7cFYEk5bg187QKwpFQ0cFsAAAAv1rkJwF+kooHbAoCPUtHAbQFYUo5bA1+7ACwpFQ3cFgAAwIt1bgLwF6lo4LYA4KNUNHBbAJaU49bA1y4AS0pFA7cFAADwYp2bAPxFKhq4LQD4KBUN3BaAJeW4NfC1C8CSUtHAbQEAALxY5yYAf5GKBm4LAD5KRQO3BWBJOW4NfO0CsKRUNHBbAAAAL9a5CcBfpKKB2wKAj1LRwG0BWFKOWwNfuwAsKRUN3BYAAMCLdW4C8BepaOC2AOCjVDRwWwCWlOPWwNcuAEtKRQO3BQAA8GKdmwD8RSoauC0A+CgVDdwWgCXluDXwtQvAklLRwG0BAAC8WOcmAH+RigZuCwA+SkUDtwVgSTluDXztArCkVDRwWwAAAC/WuQnAX6SigdsCgI9S0cBtAVhSjlsDX7sALCkVDdwWAADAi3VuAvAXqWjgtgDgo1Q0cFsAlpTj1sDXLgBLSkUDtwUAAPBinZsA/EUqGrgtAPgoFQ3cFoAl5bg18LULwJJS0cBtAQAAvFjnJgB/kYoGbgsAPkpFA7cFYEk5bg187QKwpFQ0cFsAAAAv1rkJwF+kooHbAoCPUtHAbQFYUo5bA1+7ACwpFQ3cFgAAwIt1bgLwF6lo4LYA4KNUNHBbAJaU49bA1y4AS0pFA7cFAADwYp2bAPxFKhq4LQD4KBUN3BaAJeW4NfC1C8CSUtHAbQEAALxY5yYAf5GKBm4LAD5KRQO3BWBJOW4NfO0CsKRUNHBbAAAAL9a5CcBfpKKB2wKAj1LRwG0BWFKOWwNfuwAsKRUN3BYAAMCLdW4C8BepaOC2AOCjVDRwWwCWlOPWwNcuAEtKRQO3BQAA8GKdmwD8RSoauC0A+CgVDdwWgCXluDXwtQvAklLRwG0BAAC8WOcmAH+RigZuCwA+SkUDtwVgSTluDXztArCkVDRwWwAAAC/WuQnAX6SigdsCgI9S0cBtAVhSjlsDX7sALCkVDdwWAADAi3VuAvAXqWjgtgDgo1Q0cFsAlpTj1sDXLgBLSkUDtwUAAPBinZsA/EUqGrgtAPgoFQ3cFoAl5bg18LULwJJS0cBtAQAAvFjnJgB/kYoGbgsAPkpFA7cFYEk5bg187QKwpFQ0cFsAAAAv1rkJwF+kooHbAoCPUtHAbQFYUo5bA1+7ACwpFQ3cFgAAwIt1bgLwF6lo4LYA4KNUNHBbAJaU49bA1y4AS0pFA7cFAADwYp2bAPxFKhq4LQD4KBUN3BaAJeW4NfC1C8CSUtHAbQEAALxY5yYAf5GKBm4LAD5KRQO3BWBJOW4NfO0CsKRUNHBbAAAAL9a5CcBfpKKB2wKAj1LRwG0BWFKOWwNfuwAsKRUN3BYAAMCLdW4C8BepaOC2AOCjVDRwWwCWlOPWwNcuAEtKRQO3BQAA8GKdmwD8RSoauC0A+CgVDdwWgCXluDXwtQvAklLRwG0BAAC8WOcmAH+RigZuCwA+SkUDtwVgSTluDXztArCkVDRwWwAAAC/WuQnAX6SigdsCgI9S0cBtAVhSjlsDX7sALCkVDdwWAADAi3VuAvAXqWjgtgDgo1Q0cFsAlpTj1sDXLgBLSkUDtwUAAPBinZsA/EUqGrgtAPgoFQ3cFoAl5bg18LULwJJS0cBtAQAAvFjnJgB/kYoGbgsAPkpFA7cFYEk5bg187QKwpFQ0cFsAAAAv1rkJwF+kooHbAoCPUtHAbQFYUo5bA1+7ACwpFQ3cFgAAwIt1bgLwF6lo4LYA4KNUNHBbAJaU49bA1y4AS0pFA7cFAADwYp2bAPxFKhq4LQD4KBUN3BaAJeW4NfC1C8CSUtHAbQEAALxY5yYAf5GKBm4LAD5KRQO3BWBJOW4NfO0CsKRUNHBbAAAAL9a5CcBfpKKB2wKAj1LRwG0BWFKOWwNfuwAsKRUN3BYAAMCLdW4C8BepaOC2AOCjVDRwWwCWlOPWwNcuAEtKRQO3BQAA8GKdmwD8RSoauC0A+CgVDdwWgCXluDXwtQvAklLRwG0BAAC8WOcmAH+RigZuCwA+SkUDtwVgSTluDXztArCkVDRwWwAAAC/WuQnAX6SigdsCgI9S0cBtAVhSjlsDX7sALCkVDdwWADfnzPoAACAASURBVADAi3VuAvAXqWjgtgDgo1Q0cFsAlpTj1sDXLgBLSkUDtwUAAPBinZsA/EUqGrgtAPgoFQ3cFoAl5bg18LULwJJS0cBtAQAAvFjnJgB/kYoGbgsAPkpFA7cFYEk5bg187QKwpFQ0cFsAAAAv1rkJwF+kooHbAoCPUtHAbQFYUo5bA1+7ACwpFQ3cFgAAwIt1bgLwF6lo4LYA4KNUNHBbAJaU49bA1y4AS0pFA7cFAADwYp2bAPxFKhq4LQD4KBUN3BaAJeW4NfC1C8CSUtHAbQEAALxY5yYAf5GKBm4LAD5KRQO3BWBJOW4NfO0CsKRUNHBbAAAAL9a5CcBfpKKB2wKAj1LRwG0BWFKOWwNfuwAsKRUN3BYAAMCLdW4C8BepaOC2AOCjVDRwWwCWlOPWwNcuAEtKRQO3BQAA8GKdmwD8RSoauC0A+CgVDdwWgIc9OLa2FQtiKCiZA/ZPiSg6vE4C8sLWBPBWG1wDg7OrlpTj1sDXLgBLSkUDtwUAAPCHdW4C8BWpaOC2AOChVDRwWwCWlOPWwNcuAEtKRQO3BQAA8Id1bgLwFalo4LYA4KFUNHBbAJaU49bA1y4AS0pFA7cFAADwh3VuAvAVqWjgtgDgoVQ0cFsAlpTj1sDXLgBLSkUDtwUAAPCHdW4C8BWpaOC2AOChVDRwWwCWlOPWwNcuAEtKRQO3BQAA8Id1bgLwFalo4LYA4KFUNHBbAJaU49bA1y4AS0pFA7cFAADwh3VuAvAVqWjgtgDgoVQ0cFsAlpTj1sDXLgBLSkUDtwUAAPCHdW4C8BWpaOC2AOChVDRwWwCWlOPWwNcuAEtKRQO3BQAA8Id1bgLwFalo4LYA4KFUNHBbAJaU49bA1y4AS0pFA7cFAADwh3VuAvAVqWjgtgDgoVQ0cFsAlpTj1sDXLgBLSkUDtwUAAPCHdW4C8BWpaOC2AOChVDRwWwCWlOPWwNcuAEtKRQO3BQAA8Id1bgLwFalo4LYA4KFUNHBbAJaU49bA1y4AS0pFA7cFAADwh3VuAvAVqWjgtgDgoVQ0cFsAlpTj1sDXLgBLSkUDtwUAAPCHdW4C8BWpaOC2AOChVDRwWwCWlOPWwNcuAEtKRQO3BQAA8Id1bgLwFalo4LYA4KFUNHBbAJaU49bA1y4AS0pFA7cFAADwh3VuAvAVqWjgtgDgoVQ0cFsAlpTj1sDXLgBLSkUDtwUAAPCHdW4C8BWpaOC2AOChVDRwWwCWlOPWwNcuAEtKRQO3BQAA8Id1bgLwFalo4LYA4KFUNHBbAJaU49bA1y4AS0pFA7cFAADwh3VuAvAVqWjgtgDgoVQ0cFsAlpTj1sDXLgBLSkUDtwUAAPCHdW4C8BWpaOC2AOChVDRwWwCWlOPWwNcuAEtKRQO3BQAA8Id1bgLwFalo4LYA4KFUNHBbAJaU49bA1y4AS0pFA7cFAADwh3VuAvAVqWjgtgDgoVQ0cFsAlpTj1sDXLgBLSkUDtwUAAPCHdW4C8BWpaOC2AOChVDRwWwCWlOPWwNcuAEtKRQO3BQAA8Id1bgLwFalo4LYA4KFUNHBbAJaU49bA1y4AS0pFA7cFAADwh3VuAvAVqWjgtgDgoVQ0cFsAlpTj1sDXLgBLSkUDtwUAAPCHdW4C8BWpaOC2AOChVDRwWwCWlOPWwNcuAEtKRQO3BQAA8Id1bgLwFalo4LYA4KFUNHBbAJaU49bA1y4AS0pFA7cFAADwh3VuAvAVqWjgtgDgoVQ0cFsAlpTj1sDXLgBLSkUDtwUAAPCH8+8/AQAAAAAAAAAAvMX5958AAAAAAAAAAADe4vz7TwAAAAAAAAAAAG9x/v0nAAAAAAAAAACAtzj//hMAAAAAAAAAAMBbnH//CQAAAAAAAAAA4C3Ov/8EAAAAAAAAAADwFufffwIAAAAAAAAAAHiL8+8/AQAAAAAAAAAAvMU6N+FXqWjgtoDXpaKB2wKAh1LRwG0BWFKOWwNfuwAsKRUN3BYAPJTj1sDXLgCfYJ2b8KtUNHBbwOtS0cBtAcBDqWjgtgAsKcetga9dAJaUigZuCwAeynFr4GsXgE+wzk34VSoauC3gdalo4LYA4KFUNHBbAJaU49bA1y4AS0pFA7cFAA/luDXwtQvAJ1jnJvwqFQ3cFvC6VDRwWwDwUCoauC0AS8pxa+BrF4AlpaKB2wKAh3LcGvjaBeATrHMTfpWKBm4LeF0qGrgtAHgoFQ3cFoAl5bg18LULwJJS0cBtAcBDOW4NfO0C8AnWuQm/SkUDtwW8LhUN3BYAPJSKBm4LwJJy3Br42gVgSalo4LYA4KEctwa+dgH4BOvchF+looHbAl6XigZuCwAeSkUDtwVgSTluDXztArCkVDRwWwDwUI5bA1+7AHyCdW7Cr1LRwG0Br0tFA7cFAA+looHbArCkHLcGvnYBWFIqGrgtAHgox62Br10APsE6N+FXqWjgtoDXpaKB2wKAh1LRwG0BWFKOWwNfuwAsKRUN3BYAPJTj1sDXLgCfYJ2b8KtUNHBbwOtS0cBtAcBDqWjgtgAsKcetga9dAJaUigZuCwAeynFr4GsXgE+wzk34VSoauC3gdalo4LYA4KFUNHBbAJaU49bA1y4AS0pFA7cFAA/luDXwtQvAJ1jnJvwqFQ3cFvC6VDRwWwDwUCoauC0AS8pxa+BrF4AlpaKB2wKAh3LcGvjaBeATrHMTfpWKBm4LeF0qGrgtAHgoFQ3cFoAl5bg18LULwJJS0cBtAcBDOW4NfO0C8AnWuQm/SkUDtwW8LhUN3BYAPJSKBm4LwJJy3Br42gVgSalo4LYA4KEctwa+dgH4BOvchF+looHbAl6XigZuCwAeSkUDtwVgSTluDXztArCkVDRwWwDwUI5bA1+7AHyCdW7Cr1LRwG0Br0tFA7cFAA+looHbArCkHLcGvnYBWFIqGrgtAHgox62Br10APsE6N+FXqWjgtoDXpaKB2wKAh1LRwG0BWFKOWwNfuwAsKRUN3BYAPJTj1sDXLgCfYJ2b8KtUNHBbwOtS0cBtAcBDqWjgtgAsKcetga9dAJaUigZuCwAeynFr4GsXgE+wzk34VSoauC3gdalo4LYA4KFUNHBbAJaU49bA1y4AS0pFA7cFAA/luDXwtQvAJ1jnJvwqFQ3cFvC6VDRwWwDwUCoauC0AS8pxa+BrF4AlpaKB2wKAh3LcGvjaBeATrHMTfpWKBm4LeF0qGrgtAHgoFQ3cFoAl5bg18LULwJJS0cBtAcBDOW4NfO0C8AnWuQm/SkUDtwW8LhUN3BYAPJSKBm4LwJJy3Br42gVgSalo4LYA4KEctwa+dgH4BOvchF+looHbAl6XigZuCwAeSkUDtwVgSTluDXztArCkVDRwWwDwUI5bA1+7AHyCdW7Cr1LRwG0Br0tFA7cFAA+looHbArCkHLcGvnYBWFIqGrgtAHgox62Br10APsE6N+FXqWjgtoDXpaKB2wKAh1LRwG0BWFKOWwNfuwAsKRUN3BYAPJTj1sDXLgCfYJ2b8KtUNHBbwOtS0cBtAcBDqWjgtgAsKcetga9dAJaUigZuCwAeynFr4GsXgE+wzk34VSoauC3gdalo4LYA4KFUNHBbAJaU49bA1y4AS0pFA7cFAA/luDXwtQvAJ1jnJvwqFQ3cFvC6VDRwWwDwUCoauC0AS8pxa+BrF4AlpaKB2wKAh3LcGvjaBeATrHMTfpWKBm4LeF0qGrgtAHgoFQ3cFoAl5bg18LULwJJS0cBtAcBDOW4NfO0C8AnWuQm/SkUDtwW8LhUN3BYAPJSKBm4LwJJy3Br42gVgSalo4LYA4KEctwa+dgH4BOvchF+looHbAl6XigZuCwAeSkUDtwVgSTluDXztArCkVDRwWwDwUI5bA1+7AHyCdW7Cr1LRwG0Br0tFA7cFAA+looHbArCkHLcGvnYBWFIqGrgtAHgox62Br10APsE6N+FXqWjgtoDXpaKB2wKAh1LRwG0BWFKOWwNfuwAsKRUN3BYAPJTj1sDXLgCfYJ2b8KtUNHBbwOtS0cBtAcBDqWjgtgAsKcetga9dAJaUigZuCwAeynFr4GsXgE+wzk34VSoauC3gdalo4LYA4KFUNHBbAJaU49bA1y4AS0pFA7cFAA/luDXwtQvAJ1jnJvwqFQ3cFvC6VDRwWwDwUCoauC0AS8pxa+BrF4AlpaKB2wKAh3LcGvjaBeATrHMTfpWKBm4LeF0qGrgtAHgoFQ3cFoAl5bg18LULwJJS0cBtAcBDOW4NfO0C8AnWuQm/SkUDtwW8LhUN3BYAPJSKBm4LwJJy3Br42gVgSalo4LYA4KEctwa+dgH4BOvchF+looHbAl6XigZuCwAeSkUDtwVgSTluDXztArCkVDRwWwDwUI5bA1+7AHyCdW7Cr1LRwG0Br0tFA7cFAA+looHbArCkHLcGvnYBWFIqGrgtAHgox62Br10APsE6N+FXqWjgtoDXpaKB2wKAh1LRwG0BWFKOWwNfuwAsKRUN3BYAPJTj1sDXLgCfYJ2b8KtUNHBbwOtS0cBtAcBDqWjgtgAsKcetga9dAJaUigZuCwAeynFr4GsXgE+wzk34VSoauC3gdalo4LYA4KFUNHBbAJaU49bA1y4AS0pFA7cFAA/luDXwtQvAJ1jnJvwqFQ3cFvC6VDRwWwDwUCoauC0AS8pxa+BrF4AlpaKB2wKAh3LcGvjaBeATrHMTfpWKBm4LeF0qGrgtAHgoFQ3cFoAl5bg18LULwJJS0cBtAcBDOW4NfO0C8AnWuQm/SkUDtwW8LhUN3BYAPJSKBm4LwJJy3Br42gVgSalo4LYA4KEctwa+dgH4BOvchF+looHbAl6XigZuCwAeSkUDtwVgSTluDXztArCkVDRwWwDwUI5bA1+7AHyCdW7Cr1LRwG0Br0tFA7cFAA+looHbArCkHLcGvnYBWFIqGrgtAHgox62Br10APsE6N+FXqWjgtoDXpaKB2wKAh1LRwG0BWFKOWwNfuwAsKRUN3BYAPJTj1sDXLgCfYJ2b8KtUNHBbwOtS0cBtAcBDqWjgtgAsKcetga9dAJaUigZuCwAeynFr4GsXgE+wzk34VSoauC3gdalo4LYA4KFUNHBbAJaU49bA1y4AS0pFA7cFAA/luDXwtQvAJ1jnJvwqFQ3cFvC6VDRwWwDwUCoauC0AS8pxa+BrF4AlpaKB2wKAh3LcGvjaBeATrHMTfpWKBm4LeF0qGrgtAHgoFQ3cFoAl5bg18LULwJJS0cBtAcBDOW4NfO0C8AnWuQm/SkUDtwW8LhUN3BYAPJSKBm4LwJJy3Br42gVgSalo4LYA4KEctwa+dgH4BOvchF+looHbAl6XigZuCwAeSkUDtwVgSTluDXztArCkVDRwWwDwUI5bA1+7AHyCdW7Cr1LRwG0Br0tFA7cFAA+looHbArCkHLcGvnYBWFIqGrgtAHgox62Br10APsE6N+FXqWjgtoDXpaKB2wKAh1LRwG0BWFKOWwNfuwAsKRUN3BYAPJTj1sDXLgCfYJ2b8KtUNHBbwOtS0cBtAcBDqWjgtgAsKcetga9dAJaUigZuCwAeynFr4GsXgE+wzk34VSoauC3gdalo4LYA4KFUNHBbAJaU49bA1y4AS0pFA7cFAA/luDXwtQvAJ1jnJvwqFQ3cFvC6VDRwWwDwUCoauC0AS8pxa+BrF4AlpaKB2wKAh3LcGvjaBeATrHMTfpWKBm4LeF0qGrgtAHgoFQ3cFoAl5bg18LULwJJS0cBtAcBDOW4NfO0C8AnWuQm/SkUDtwW8LhUN3BYAPJSKBm4LwJJy3Br42gVgSalo4LYA4KEctwa+dgH4BOvchF+looHbAl6XigZuCwAeSkUDtwVgSTluDXztArCkVDRwWwDwUI5bA1+7AHyCdW7Cr1LRwG0Br0tFA7cFAA+looHbArCkHLcGvnYBWFIqGrgtAHgox62Br10APsE6N+FXqWjgtoDXpaKB2wKAh1LRwG0BWFKOWwNfuwAsKRUN3BYAPJTj1sDXLgCfYJ2b8KtUNHBbwOtS0cBtAcBDqWjgtgAsKcetga9dAJaUigZuCwAeynFr4GsXgE+wzk34VSoauC3gdalo4LYA4KFUNHBbAJaU49bA1y4AS0pFA7cFAA/luDXwtQvAJ1jnJvwqFQ3cFvC6VDRwWwDwUCoauC0AS8pxa+BrF4AlpaKB2wKAh3LcGvjaBeATrHMTfpWKBm4LeF0qGrgtAHgoFQ3cFoAl5bg18LULwJJS0cBtAcBDOW4NfO0C8AnWuQm/SkUDtwW8LhUN3BYAPJSKBm4LwJJy3Br42gVgSalo4LYA4KEctwa+dgH4BOvchF+looHbAl6XigZuCwAeSkUDtwVgSTluDXztArCkVDRwWwDwUI5bA1+7AHyCdW7Cr1LRwG0Br0tFA7cFAA+looHbArCkHLcGvnYBWFIqGrgtAHgox62Br10APsE6N+FXqWjgtoDXpaKB2wKAh1LRwG0BWFKOWwNfuwAsKRUN3BYAPJTj1sDXLgCfYJ2b8KtUNHBbwOtS0cBtAcBDqWjgtgAsKcetga9dAJaUigZuCwAeynFr4GsXgE+wzk34VSoauC3gdalo4LYA4KFUNHBbAJaU49bA1y4AS0pFA7cFAA/luDXwtQvAJ1jnJvwqFQ3cFvC6VDRwWwDwUCoauC0AS8pxa+BrF4AlpaKB2wKAh3LcGvjaBeATrHMTfpWKBm4LeF0qGrgtAHgoFQ3cFoAl5bg18LULwJJS0cBtAcBDOW4NfO0C8AnWuQm/SkUDtwW8LhUN3BYAPJSKBm4LwJJy3Br42gVgSalo4LYA4KEctwa+dgH4BOvchF+looHbAl6XigZuCwAeSkUDtwVgSTluDXztArCkVDRwWwDwUI5bA1+7AHyCdW7Cr1LRwG0Br0tFA7cFAA+looHbArCkHLcGvnYBWFIqGrgtAHgox62Br10APsE6N+FXqWjgtoDXpaKB2wKAh1LRwG0BWFKOWwNfuwAsKRUN3BYAPJTj1sDXLgCfYJ2b8KtUNHBbwOtS0cBtAcBDqWjgtgAsKcetga9dAJaUigZuCwAeynFr4GsXgE+wzk34VSoauC3gdalo4LYA4KFUNHBbAJaU49bA1y4AS0pFA7cFAA/luDXwtQvAJ1jnJvwqFQ3cFvC6VDRwWwDwUCoauC0AS8pxa+BrF4AlpaKB2wKAh3LcGvjaBeATrHMTfpWKBm4LeF0qGrgtAHgoFQ3cFoAl5bg18LULwJJS0cBtAcBDOW4NfO0C8AnWuQm/SkUDtwW8LhUN3BYAPJSKBm4LwJJy3Br42gVgSalo4LYA4KEctwa+dgH4BOvchF+looHbAl6XigZuCwAeSkUDtwVgSTluDXztArCkVDRwWwDwUI5bA1+7AHyCdW7Cr1LRwG0Br0tFA7cFAA+looHbArCkHLcGvnYBWFIqGrgtAHgox62Br10APsE6N+FXqWjgtoDXpaKB2wKAh1LRwG0BWFKOWwNfuwAsKRUN3BYAPJTj1sDXLgCfYJ2b8KtUNHBbwOtS0cBtAcBDqWjgtgAsKcetga9dAJaUigZuCwAeynFr4GsXgE+wzk34VSoauC3gdalo4LYA4KFUNHBbAJaU49bA1y4AS0pFA7cFAA/luDXwtQvAJ1jnJvwqFQ3cFvC6VDRwWwDwUCoauC0AS8pxa+BrF4AlpaKB2wKAh3LcGvjaBeATrHMTfpWKBm4LeF0qGrgtAHgoFQ3cFoAl5bg18LULwJJS0cBtAcBDOW4NfO0C8AnWuQm/SkUDtwW8LhUN3BYAPJSKBm4LwJJy3Br42gVgSalo4LYA4KEctwa+dgH4BOvchF+looHbAl6XigZuCwAeSkUDtwVgSTluDXztArCkVDRwWwDwUI5bA1+7AHyCdW7Cr1LRwG0Br0tFA7cFAA+looHbArCkHLcGvnYBWFIqGrgtAHgox62Br10APsE6N+FXqWjgtoDXpaKB2wKAh1LRwG0BWFKOWwNfuwAsKRUN3BYAPJTj1sDXLgCfYJ2b8KtUNHBbwOtS0cBtAcBDqWjgtgAsKcetga9dAJaUigZuCwAeynFr4GsXgE+wzk34VSoauC3gdalo4LYA4KFUNHBbAJaU49bA1y4AS0pFA7cFAA/luDXwtQvAJ1jnJvwqFQ3cFvC6VDRwWwDwUCoauC0AS8pxa+BrF4AlpaKB2wKAh3LcGvjaBeATrHMTfpWKBm4LeF0qGrgtAHgoFQ3cFoAl5bg18LULwJJS0cBtAcBDOW4NfO0C8AnWuQm/SkUDtwW8LhUN3BYAPJSKBm4LwJJy3Br42gVgSalo4LYA4KEctwa+dgH4BOvchF+looHbAl6XigZuCwAeSkUDtwVgSTluDXztArCkVDRwWwDwUI5bA1+7AHyCdW7Cr1LRwG0Br0tFA7cFAA+looHbArCkHLcGvnYBWFIqGrgtAHgox62Br10APsE6N+FXqWjgtoDXpaKB2wKAh1LRwG0BWFKOWwNfuwAsKRUN3BYAPJTj1sDXLgCfYJ2b8KtUNHBbwOtS0cBtAcBDqWjgtgAsKcetga9dAJaUigZuCwAeynFr4GsXgE+wzk34VSoauC3gdalo4LYA4KFUNHBbAJaU49bA1y4AS0pFA7cFAA/luDXwtQvAJ1jnJvwqFQ3cFvC6VDRwWwDwUCoauC0AS8pxa+BrF4AlpaKB2wKAh3LcGvjaBeATrHMTfpWKBm4LeF0qGrgtAHgoFQ3cFoAl5bg18LULwJJS0cBtAcBDOW4NfO0C8AnWuQm/SkUDtwW8LhUN3BYAPJSKBm4LwJJy3Br42gVgSalo4LYA4KEctwa+dgH4BOvchF+looHbAl6XigZuCwAeSkUDtwVgSTluDXztArCkVDRwWwDwUI5bA1+7AHyCdW7Cr1LRwG0Br0tFA7cFAA+looHbArCkHLcGvnYBWFIqGrgtAHgox62Br10APsE6N+FXqWjgtoDXpaKB2wKAh1LRwG0BWFKOWwNfuwAsKRUN3BYAPJTj1sDXLgCfYJ2b8KtUNHBbwOtS0cBtAcBDqWjgtgAsKcetga9dAJaUigZuCwAeynFr4GsXgE+wzk34VSoauC3gdalo4LYA4KFUNHBbAJaU49bA1y4AS0pFA7cFAA/luDXwtQvAJ1jnJvwqFQ3cFvC6VDRwWwDwUCoauC0AS8pxa+BrF4AlpaKB2wKAh3LcGvjaBeATrHMTfpWKBm4LeF0qGrgtAHgoFQ3cFoAl5bg18LULwJJS0cBtAcBDOW4NfO0C8AnWuQm/SkUDtwW8LhUN3BYAPJSKBm4LwJJy3Br42gVgSalo4LYA4KEctwa+dgH4BOvchF+looHbAl6XigZuCwAeSkUDtwVgSTluDXztArCkVDRwWwDwUI5bA1+7AHyCdW7Cr1LRwG0Br0tFA7cFAA+looHbArCkHLcGvnYBWFIqGrgtAHgox62Br10APsE6N+FXqWjgtoDXpaKB2wKAh1LRwG0BWFKOWwNfuwAsKRUN3BYAPJTj1sDXLgCfYJ2b8KtUNHBbwOtS0cBtAcBDqWjgtgAsKcetga9dAJaUigZuCwAeynFr4GsXgE+wzk34VSoauC3gdalo4LYA4KFUNHBbAJaU49bA1y4AS0pFA7cFAA/luDXwtQvAJ1jnJvwqFQ3cFvC6VDRwWwDwUCoauC0AS8pxa+BrF4AlpaKB2wKAh3LcGvjaBeATrHMTfpWKBm4LeF0qGrgtAHgoFQ3cFoAl5bg18LULwJJS0cBtAcBDOW4NfO0C8AnWuQm/SkUDtwW8LhUN3BYAPJSKBm4LwJJy3Br42gVgSalo4LYA4KEctwa+dgH4BOvchF+looHbAl6XigZuCwAeSkUDtwVgSTluDXztArCkVDRwWwDwUI5bA1+7AHyCdW7Cr1LRwG0Br0tFA7cFAA+looHbArCkHLcGvnYBWFIqGrgtAHgox62Br10APsE6N+FXqWjgtoDXpaKB2wKAh1LRwG0BWFKOWwNfuwAsKRUN3BYAPJTj1sDXLgCfYJ2b8KtUNHBbwOtS0cBtAcBDqWjgtgAsKcetga9dAJaUigZuCwAeynFr4GsXgE+wzk34VSoauC3gdalo4LYA4KFUNHBbAJaU49bA1y4AS0pFA7cFAA/luDXwtQvAJ1jnJvwqFQ3cFvC6VDRwWwDwUCoauC0AS8pxa+BrF4AlpaKB2wKAh3LcGvjaBeATrHMTfpWKBm4LeF0qGrgtAHgoFQ3cFoAl5bg18LULwJJS0cBtAcBDOW4NfO0C8AnWuQm/SkUDtwW8LhUN3BYAPJSKBm4LwJJy3Br42gVgSalo4LYA4KEctwa+dgH4BOvchF+looHbAl6XigZuCwAeSkUDtwVgSTluDXztArCkVDRwWwDwUI5bA1+7AHyCdW7Cr1LRwG0Br0tFA7cFAA+looHbArCkHLcGvnYBWFIqGrgtAHgox62Br10APsE6N+FXqWjgtoDXpaKB2wKAh1LRwG0BWFKOWwNfuwAsKRUN3BYAPJTj1sDXLgCfYJ2b8KtUNHBbwOtS0cBtAcBDqWjgtgAsKcetga9dAJaUigZuCwAeynFr4GsXgE+wzk34VSoauC3gdalo4LYA4KFUNHBbAJaU49bA1y4AS0pFA7cFAA/luDXwtQvAJ1jnJvwqFQ3cFvC6VDRwWwDwUCoauC0AS8pxa+BrF4AlpaKB2wKAh3LcGvjaBeATrHMTfpWKBm4LeF0qGrgtAHgoFQ3cFoAl5bg18LULwJJS0cBtAcBDOW4NfO0C8AnWuQm/SkUDtwW8LhUN3BYAPJSKBm4LwJJy3Br42gVgSalo4LYA4KEctwa+dgH4BOvchF+looHbAl6XigZuCwAeSkUDtwVgSTluDXztArCkVDRwWwDwUI5bA1+7AHyCdW7Cr1LRwG0Br0tFA7cFAA+looHbArCkHLcGvnYBWFIqGrgt00/MYgAAIABJREFUAHgox62Br10APsE6N+FXqWjgtoDXpaKB2wKAh1LRwG0BWFKOWwNfuwAsKRUN3BYAPJTj1sDXLgCfYJ2b8KtUNHBbwOtS0cBtAcBDqWjgtgAsKcetga9dAJaUigZuCwAeynFr4GsXgE+wzk34VSoauC3gdalo4LYA4KFUNHBbAJaU49bA1y4AS0pFA7cFAA/luDXwtQvAJ1jnJvwqFQ3cFvC6VDRwWwDwUCoauC0AS8pxa+BrF4AlpaKB2wKAh3LcGvjaBeATrHMTfpWKBm4LeF0qGrgtAHgoFQ3cFoAl5bg18LULwJJS0cBtAcBDOW4NfO0C8AnWuQm/SkUDtwW8LhUN3BYAPJSKBm4LwJJy3Br42gVgSalo4LYA4KEctwa+dgH4BOvchF+looHbAl6XigZuCwAeSkUDtwVgSTluDXztArCkVDRwWwDwUI5bA1+7AHyCdW7Cr1LRwG0Br0tFA7cFAA+looHbArCkHLcGvnYBWFIqGrgtAHgox62Br10APsE6N+FXqWjgtoDXpaKB2wKAh1LRwG0BWFKOWwNfuwAsKRUN3BYAPJTj1sDXLgCfYJ2b8KtUNHBbwOtS0cBtAcBDqWjgtgAsKcetga9dAJaUigZuCwAeynFr4GsXgE+wzk34VSoauC3gdalo4LYA4KFUNHBbAJaU49bA1y4AS0pFA7cFAA/luDXwtQvAJ1jnJvwqFQ3cFvC6VDRwWwDwUCoauC0AS8pxa+BrF4AlpaKB2wKAh3LcGvjaBeATrHMTfpWKBm4LeF0qGrgtAHgoFQ3cFoAl5bg18LULwJJS0cBtAcBDOW4NfO0C8AnWuQm/SkUDtwW8LhUN3BYAPJSKBm4LwJJy3Br42gVgSalo4LYA4KEctwa+dgH4BOvchF+looHbAl6XigZuCwAeSkUDtwVgSTluDXztArCkVDRwWwDwUI5bA1+7AHyCdW7Cr1LRwG0Br0tFA7cFAA+looHbArCkHLcGvnYBWFIqGrgtAHgox62Br10APsE6N+FXqWjgtoDXpaKB2wKAh1LRwG0BWFKOWwNfuwAsKRUN3BYAPJTj1sDXLgCfYJ2b8KtUNHBbwOtS0cBtAcBDqWjgtgAsKcetga9dAJaUigZuCwAeynFr4GsXgE+wzk34VSoauC3gdalo4LYA4KFUNHBbAJaU49bA1y4AS0pFA7cFAA/luDXwtQvAJ1jnJvwqFQ3cFvC6VDRwWwDwUCoauC0AS8pxa+BrF4AlpaKB2wKAh3LcGvjaBeATrHMTfpWKBm4LeF0qGrgtAHgoFQ3cFoAl5bg18LULwJJS0cBtAcBDOW4NfO0C8AnWuQm/SkUDtwW8LhUN3BYAPJSKBm4LwJJy3Br42gVgSalo4LYA4KEctwa+dv3PHhzcRraryRqNGN7k+LpEK2genUj6xXE84AENnMbpXyXuKu2SMr+1ALwE6/kQrsqICp4WcLuMqOBpAcChjKjgaQF4S+lbBa8mAG8pIyp4WgBwKH2r4NUE4CVYz4dwVUZU8LSA22VEBU8LAA5lRAVPC8BbSt8qeDUBeEsZUcHTAoBD6VsFryYAL8F6PoSrMqKCpwXcLiMqeFoAcCgjKnhaAN5S+lbBqwnAW8qICp4WABxK3yp4NQF4CdbzIVyVERU8LeB2GVHB0wKAQxlRwdMC8JbStwpeTQDeUkZU8LQA4FD6VsGrCcBLsJ4P4aqMqOBpAbfLiAqeFgAcyogKnhaAt5S+VfBqAvCWMqKCpwUAh9K3Cl5NAF6C9XwIV2VEBU8LuF1GVPC0AOBQRlTwtAC8pfStglcTgLeUERU8LQA4lL5V8GoC8BKs50O4KiMqeFrA7TKigqcFAIcyooKnBeAtpW8VvJoAvKWMqOBpAcCh9K2CVxOAl2A9H8JVGVHB0wJulxEVPC0AOJQRFTwtAG8pfavg1QTgLWVEBU8LAA6lbxW8mgC8BOv5EK7KiAqeFnC7jKjgaQHAoYyo4GkBeEvpWwWvJgBvKSMqeFoAcCh9q+DVBOAlWM+HcFVGVPC0gNtlRAVPCwAOZUQFTwvAW0rfKng1AXhLGVHB0wKAQ+lbBa8mAC/Bej6EqzKigqcF3C4jKnhaAHAoIyp4WgDeUvpWwasJwFvKiAqeFgAcSt8qeDUBeAnW8yFclREVPC3gdhlRwdMCgEMZUcHTAvCW0rcKXk0A3lJGVPC0AOBQ+lbBqwnAS7CeD+GqjKjgaQG3y4gKnhYAHMqICp4WgLeUvlXwagLwljKigqcFAIfStwpeTQBegvV8CFdlRAVPC7hdRlTwtADgUEZU8LQAvKX0rYJXE4C3lBEVPC0AOJS+VfBqAvASrOdDuCojKnhawO0yooKnBQCHMqKCpwXgLaVvFbyaALyljKjgaQHAofStglcTgJdgPR/CVRlRwdMCbpcRFTwtADiUERU8LQBvKX2r4NUE4C1lRAVPCwAOpW8VvJoAvATr+RCuyogKnhZwu4yo4GkBwKGMqOBpAXhL6VsFryYAbykjKnhaAHAofavg1QTgJVjPh3BVRlTwtIDbZUQFTwsADmVEBU8LwFtK3yp4NQF4SxlRwdMCgEPpWwWvJgAvwXo+hKsyooKnBdwuIyp4WgBwKCMqeFoA3lL6VsGrCcBbyogKnhYAHErfKng1AXgJ1vMhXJURFTwt4HYZUcHTAoBDGVHB0wLwltK3Cl5NAN5SRlTwtADgUPpWwasJwEuwng/hqoyo4GkBt8uICp4WABzKiAqeFoC3lL5V8GoC8JYyooKnBQCH0rcKXk0AXoL1fAhXZUQFTwu4XUZU8LQA4FBGVPC0ALyl9K2CVxOAt5QRFTwtADiUvlXwagLwEqznQ7gqIyp4WsDtMqKCpwUAhzKigqcF4C2lbxW8mgC8pYyo4GkBwKH0rYJXE4CXYD0fwlUZUcHTAm6XERU8LQA4lBEVPC0Abyl9q+DVBOAtZUQFTwsADqVvFbyaALwE6/kQrsqICp4WcLuMqOBpAcChjKjgaQF4S+lbBa8mAG8pIyp4WgBwKH2r4NUE4CVYz4dwVUZU8LSA22VEBU8LAA5lRAVPC8BbSt8qeDUBeEsZUcHTAoBD6VsFryYAL8F6PoSrMqKCpwXcLiMqeFoAcCgjKnhaAN5S+lbBqwnAW8qICp4WABxK3yp4NQF4CdbzIVyVERU8LeB2GVHB0wKAQxlRwdMC8JbStwpeTQDeUkZU8LQA4FD6VsGrCcBLsJ4P4aqMqOBpAbfLiAqeFgAcyogKnhaAt5S+VfBqAvCWMqKCpwUAh9K3Cl5NAF6C9XwIV2VEBU8LuF1GVPC0AOBQRlTwtAC8pfStglcTgLeUERU8LQA4lL5V8GoC8BKs50O4KiMqeFrA7TKigqcFAIcyooKnBeAtpW8VvJoAvKWMqOBpAcCh9K2CVxOAl2A9H8JVGVHB0wJulxEVPC0AOJQRFTwtAG8pfavg1QTgLWVEBU8LAA6lbxW8mgC8BOv5EK7KiAqeFnC7jKjgaQHAoYyo4GkBeEvpWwWvJgBvKSMqeFoAcCh9q+DVBOAlWM+HcFVGVPC0gNtlRAVPCwAOZUQFTwvAW0rfKng1AXhLGVHB0wKAQ+lbBa8mAC/Bej6EqzKigqcF3C4jKnhaAHAoIyp4WgDeUvpWwasJwFvKiAqeFgAcSt8qeDUBeAnW8yFclREVPC3gdhlRwdMCgEMZUcHTAvCW0rcKXk0A3lJGVPC0AOBQ+lbBqwnAS7CeD+GqjKjgaQG3y4gKnhYAHMqICp4WgLeUvlXwagLwljKigqcFAIfStwpeTQBegvV8CFdlRAVPC7hdRlTwtADgUEZU8LQAvKX0rYJXE4C3lBEVPC0AOJS+VfBqAvASrOdDuCojKnhawO0yooKnBQCHMqKCpwXgLaVvFbyaALyljKjgaQHAofStglcTgJdgPR/CVRlRwdMCbpcRFTwtADiUERU8LQBvKX2r4NUE4C1lRAVPCwAOpW8VvJoAvATr+RCuyogKnhZwu4yo4GkBwKGMqOBpAXhL6VsFryYAbykjKnhaAHAofavg1QTgJVjPh3BVRlTwtIDbZUQFTwsADmVEBU8LwFtK3yp4NQF4SxlRwdMCgEPpWwWvJgAvwXo+hKsyooKnBdwuIyp4WgBwKCMqeFoA3lL6VsGrCcBbyogKnhYAHErfKng1AXgJ1vMhXJURFTwt4HYZUcHTAoBDGVHB0wLwltK3Cl5NAN5SRlTwtADgUPpWwasJwEuwng/hqoyo4GkBt8uICp4WABzKiAqeFoC3lL5V8GoC8JYyooKnBQCH0rcKXk0AXoLz3/8IAAAAAAAAAADgLs5//yMAAAAAAAAAAIC7OP/9jwAAAAAAAAAAAO7i/Pc/AgAAAAAAAAAAuIvz3/8IAAAAAAAAAADgLs5//yMAAAAAAAAAAIC7OP/9jwAAAAAAAAAAAO7i/Pc/AgAAAAAAAAAAuIvz3/8IAAAAAAAAAADgLtbzIVyVERU8LeB2GVHB0wKAQxlRwdMC8Lelb0HyagLwV2VEBU8LAA6lbxW8moDbpW8VvJpwifV8CFdlRAVPC7hdRlTwtADgUEZU8LQA3C59Cx/yagJwu4yo4GkBwKH0rYJXE3C79K2CVxMusZ4P4aqMqOBpAbfLiAqeFgAcyogKnhaAu6Rv4ZBXE4C7ZEQFTwsADqVvFbyagNulbxW8mnCJ9XwIV2VEBU8LuF1GVPC0AOBQRlTwtAB8sfQt/DavJgBfLCMqeFoAcCh9q+DVBNwufavg1YRLrOdDuCojKnhawO0yooKnBQCHMqKCpwXgC6RvfRteTf+SvlXwavqX9K1vw6sJwBfIiAqeFgAcSt8qeDUBt0vfKng14RLr+RCuyogKnhZwu4yo4GkBwKGMqOBpAfhz0rf+Bq+mQ+lbBa+mQ+lbf4NXE4A/JyMqeFoAcCh9q+DVBNwufavg1YRLrOdDuCojKnhawO0yooKnBQCHMqKCpwXgt6Vv3cKr6Q9J3yp4Nf0h6Vtfz6sJwJ+QERU8LQA4lL5V8GoCbpe+VfBqwiXW8yFclREVPC3gdhlRwdMCgEMZUcHTAvAb0re+klfT10jfKng1fYH0rS/m1QTgN2REBU8LAA6lbxW8moDbpW8VvJpwifV8CFdlRAVPC7hdRlTwtADgUEZU8LQAnEvf+hpeTbdI3yp4NX299K2v4dUE4JKMqOBpAcCh9K2CVxNwu/StglcTLrGeD+GqjKjgaQG3y4gKnhYAHMqICp4WgBPpW3+aV9Pt0rcKXk33St/6Al5NAE5kRAVPCwAOpW8VvJqA26VvFbyacIn1fAhXZUQFTwu4XUZU8LQA4FBGVPC0AHxO+tYf5dX096RvFbya/p70rT/KqwnA52REBU8LAA6lbxW8moDbpW8VvJpwifV8CFdlRAVPC7hdRlTwtADgUEZU8LQAfCh964/yavoG0rcKXk3fQPrWn+PVBOBXMqKCpwUAh9K3Cl5NwO3StwpeTbjEej6EqzKigqcF3C4jKnhaAHAoIyp4WgAK6Vt/iFfTN5O+VfBq+mbSt/4QryYAhYyo4GkBwKH0rYJXE3C79K2CVxMusZ4P4aqMqOBpAbfLiAqeFgAcyogKnhaAf0nf+hO8mr6r9K2CV9N3lb71J3g1AfiXjKjgaQHAofStglcTcLv0rYJXEy6xng/hqoyo4GkBt8uICp4WABzKiAqeFoB/SN/6bV5N3176VsGr6dtL3/ptXk0A/iEjKnhaAHAofavg1QTcLn2r4NWES6znQ7gqIyp4WsDtMqKCpwUAhzKigqcF4P9L3/ptXk0/RPpWwavph0jf+m1eTQD+v4yo4GkBwKH0rYJXE3C79K2CVxMusZ4P4aqMqOBpAbfLiAqeFgAcyogKnhbw9tK3fo9X00+TvlXwavpp0rd+j1cT8PYyooKnBQCH0rcKXk3A7dK3Cl5NuMR6PoSrMqKCpwXcLiMqeFoAcCgjKnhawBtL3/o9Xk0/U/pWwavpZ0rf+g1eTcB7y4gKnhYAHErfKng1AbdL3yp4NeES6/kQrsqICp4WcLuMqOBpAcChjKjgaQHvKn3rKq+mHy59q+DV9MOlb13l1QS8q4yo4GkBwKH0rYJXE3C79K2CVxMusZ4P4aqMqOBpAbfLiAqeFgAcyogKnhbwftK3rvJqegnpWwWvppeQvnWVVxPwfjKigqcFAIfStwpeTcDt0rcKXk24xHo+hKsyooKnBdwuIyp4WgBwKCMqeFrAm0nfOufV9FrStwpeTa8lfesSrybgnWREBU8LAA6lbxW8moDbpW8VvJpwifV8CFdlRAVPC7hdRlTwtADgUEZU8LSAt5G+dc6r6RWlbxW8ml5R+tY5rybgbWREBU8LAA6lbxW8moDbpW8VvJpwifV8CFdlRAVPC7hdRlTwtADgUEZU8LSAN5C+dc6r6XWlbxW8ml5X+tY5rybgDWREBU8LAA6lbxW8moDbpW8VvJpwifV8CFdlRAVPC7hdRlTwtADgUEZU8LSAV5e+dcir6dWlbxW8ml5a+tY5rybg1WVEBU8LAA6lbxW8moDbpW8VvJpwifV8CFdlRAVPC7hdRlTwtADgUEZU8LSA15W+dc6r6Q2kbxW8mt5A+tY5rybgdWVEBU8LAA6lbxW8moDbpW8VvJpwifV8CFdlRAVPC7hdRlTwtADgUEZU8LSAF5W+dcir6W2kbxW8mt5G+tY5rybgFWVEBU8LAA6lbxW8moDbpW8VvJpwifV8CFdlRAVPC7hdRlTwtADgUEZU8LSAl5O+dcir6c2kbxW8mt5M+tYhrybg5WREBU8LAA6lbxW8moDbpW8VvJpwifV8CFdlRAVPC7hdRlTwtADgUEZU8LSAF5K+dcir6S2lbxW8mt5S+tYhrybghWREBU8LAA6lbxW8moDbpW8VvJpwifV8CFdlRAVPC7hdRlTwtADgUEZU8LSAl5C+dcir6Y2lbxW8mt5Y+tYhrybgJWREBU8LAA6lbxW8moDbpW8VvJpwifV8CFdlRAVPC7hdRlTwtADgUEZU8LSAny9965BX03tL3yp4Nb299K0TXk3Az5cRFTwtADiUvlXwagJul75V8GrCJdbzIVyVERU8LeB2GVHB0wKAQxlRwdMCfrj0rRNeTZDStwpeTZDSt054NQE/XEZU8LQA4FD6VsGrCbhd+lbBqwmXWM+HcFVGVPC0gNtlRAVPCwAOZUQFTwv4ydK3Ps2rCf8jfavg1YT/kb51wqsJ+LEyooKnBQCH0rcKXk3A7dK3Cl5NuMR6PoSrMqKCpwXcLiMqeFoAcCgjKnhawM+UvnXCqwn/kL5V8GrCP6RvnfBqAn6mjKjgaQHAofStglcTcLv0rYJXEy6xng/hqoyo4GkBt8uICp4WABzKiAqeFvADpW99mlcT/iV9q+DVhH9J3/o0rybgB8qICp4WABxK3yp4NQG3S98qeDXhEuv5EK7KiAqeFnC7jKjgaQHAoYyo4GkBP0361qd5NeH/kr5V8GpCIX3rc7yagJ8mIyp4WgBwKH2r4NUE3C59q+DVhEus50O4KiMqeFrA7TKigqcFAIcyooKnBfwo6Vuf49WEWvpWwasJtfStT/NqAn6OjKjgaQHAofStglcTcLv0rYJXEy6xng/hqoyo4GkBt8uICp4WABzKiAqeFvBDpG99mlcTPpS+VfBqwofStz7Nqwn4ITKigqcFAIfStwpeTcDt0rcKXk24xHo+hKsyooKnBdwuIyp4WgBwKCMqeFrAT5C+9WleTfiV9K2CVxM+IX3rc7yagJ8gIyp4WgBwKH2r4NUE3C59q+DVhEus50O4KiMqeFrA7TKigqcFAIcyooKnBXx76Vuf49WEz0nfKng14XPStz7Hqwn49jKigqcFAIfStwpeTcDt0rcKXk24xHo+hKsyooKnBdwuIyp4WgBwKCMqeFrA95a+9TleTfi09K2CVxM+LX3rc7yagO8tIyp4WgBwKH2r4NUE3C59q+DVhEus50O4KiMqeFrA7TKigqcFAIcyooKnBXxX6Vuf5tWEE+lbBa8mHErf+hyvJuC7yogKnhYAHErfKng1AbdL3yp4NeES6/kQrsqICp4WcLuMqOBpAcChjKjgaQHfUvrW53g14Vz6VsGrCefStz7Hqwn4ljKigqcFAIfStwpeTcDt0rcKXk24xHo+hKsyooKnBdwuIyp4WgBwKCMqeFrA95O+9TleTbgkfavg1YRL0rc+x6sJ+H4yooKnBQCH0rcKXk3A7dK3Cl5NuMR6PoSrMqKCpwXcLiMqeFoAcCgjKnhawDeTvvU5Xk24Kn2r4NWE35C+9QleTcA3kxEVPC0AOJS+VfBqAm6XvlXwasIl1vMhXJURFTwt4HYZUcHTAoBDGVHB0wK+k/Stz/Fqwm9I3yp4NeH3pG99glcT8J1kRAVPCwAOpW8VvJqA26VvFbyacIn1fAhXZUQFTwu4XUZU8LQA4FBGVPC0gG8jfesTvJrw29K3Cl5N+G3pW5/g1QR8GxlRwdMCgEPpWwWvJuB26VsFryZcYj0fwlUZUcHTAm6XERU8LQA4lBEVPC3ge0jf+gSvJvwJ6VsFryb8Celbn+DVBHwPGVHB0wKAQ+lbBa8m4HbpWwWvJlxiPR/CVRlRwdMCbpcRFTwtADiUERU8LeAbSN/6BK8m/CHpWwWvJvwh6Vuf4NUEfAMZUcHTAoBD6VsFrybgdulbBa8mXGI9H8JVGVHB0wJulxEVPC0AOJQRFTwt4G9L3/oEryb8OelbBa8m/DnpW5/g1QT8bRlRwdMCgEPpWwWvJuB26VsFryZcYj0fwlUZUcHTAm6XERU8LQA4lBEVPC3gr0rf+gSvJvxR6VsFryb8Uelbn+DVBPxVGVHB0wKAQ+lbBa8m4HbpWwWvJlxiPR/CVRlRwdMCbpcRFTwtADiUERU8LeDvSd/6BK8m/GnpWwWvJvxp6Vuf4NUE/D0ZUcHTAoBD6VsFrybgdulbBa8mXGI9H8JVGVHB0wJulxEVPC0AOJQRFTwt4C9J3/oEryZ8gfStglcTvkD61id4NQF/SUZU8LQA4FD6VsGrCbhd+lbBqwmXWM+HcFVGVPC0gNtlRAVPCwAOZUQFTwv4G9K3PsGrCV8jfavg1YSvkb71CV5NwN+QERU8LQA4lL5V8GoCbpe+VfBqwiXW8yFclREVPC3gdhlRwdMCgEMZUcHTAm6XvvUJXk34MulbBa8mfJn0rU/wagJulxEVPC0AOJS+VfBqAm6XvlXwasIl1vMhXJURFTwt4HYZUcHTAoBDGVHB0wLulb71K15N+GLpWwWvJnyx9K1f8WoC7pURFTwtADiUvlXwagJul75V8GrCJdbzIVyVERU8LeB2GVHB0wKAQxlRwdMCbpS+9SteTfh66VsFryZ8vfStX/FqAm6UERU8LQA4lL5V8GoCbpe+VfBqwiXW8yFclREVPC3gdhlRwdMCgEMZUcHTAu6SvvUrXk24RfpWwasJt0jf+hWvJuAuGVHB0wKAQ+lbBa8m4HbpWwWvJlxiPR/CVRlRwdMCbpcRFTwtADiUERU8LeAW6Vu/4tWEu6RvFbyacJf0rV/xagJukREVPC0AOJS+VfBqAm6XvlXwasIl1vMhXJURFTwt4HYZUcHTAoBDGVHB0wJukb71Ia8m3Ch9q+DVhBulb33Iqwm4RUZU8LQA4FD6VsGrCbhd+lbBqwmXWM+HcFVGVPC0gNtlRAVPCwAOZUQFTwv4eulbH/Jqwr3StwpeTbhX+taHvJqAr5cRFTwtADiUvlXwagJul75V8GrCJdbzIVyVERU8LeB2GVHB0wKAQxlRwdMCvlj61oe8mnC79K2CVxNul771Ia8m4ItlRAVPCwAOpW8VvJqA26VvFbyacIn1fAhXZUQFTwu4XUZU8LQA4FBGVPC0gK+UvvUhryb8DelbBa8m/A3pWx/yagK+UkZU8LQA4FD6VsGrCbhd+lbBqwmXWM+HcFVGVPC0gNtlRAVPCwAOZUQFTwv4Mulbv+LVhL8hfavg1YS/IX3rV7yagC+TERU8LQA4lL5V8GoCbpe+VfBqwiXW8yFclREVPC3gdhlRwdMCgEMZUcHTAr5G+taveDXhL0nfKng14S9J3/oVrybga2REBU8LAA6lbxW8moDbpW8VvJpwifV8CFdlRAVPC7hdRlTwtADgUEZU8LSAr5G+9SGvJvw96VsFryb8PelbH/JqAr5GRlTwtADgUPpWwasJuF36VsGrCZdYz4dwVUZU8LSA22VEBU8LAA5lRAVPC/gC6Vsf8mrCX5W+VfBqwl+VvvUhrybgC2REBU8LAA6lbxW8moDbpW8VvJpwifV8CFdlRAVPC7hdRlTwtADgUEZU8LSAPy1960NeTfjb0rcKXk3429K3PuTVBPxpGVHB0wKAQ+lbBa8m4HbpWwWvJlxiPR/CVRlRwdMCbpcRFTwtADiUERU8LeCPSt/6Fa8m/G3pWwWvJvxt6Vu/4tUE/FEZUcHTAoBD6VsFrybgdulbBa8mXGI9H8JVGVHB0wJulxEVPC0AOJQRFTwt4M9J3/oVryZ8A+lbBa8mfAPpW7/i1QT8ORlRwdMCgEPpWwWvJuB26VsFryZcYj0fwlUZUcHTAm6XERU8LQA4lBEVPC3gz0nf+pBXE76H9K2CVxO+h/StD3k1AX9ORlTwtADgUPpWwasJuF36VsGrCZdYz4dwVUZU8LSA22VEBU8LAA5lRAVPC/hD0rc+5NWEbyN9q+DVhG8jfetDXk3AH5IRFTwtADiUvlXwagJul75V8GrCJdbzIVyVERU8LeB2GVHB0wKAQxlRwdMC/oT0rQ95NeE7Sd8qeDXhO0nf+pBXE/AnZEQFTwsADqVvFbyagNulbxW8mnCJ9XwIV2VEBU8LuF1GVPC0AOBQRlTwtIDflr71K15N+E7StwpeTfhO0rd+xasJ+G0ZUcHTAoBD6VsFrybgdulbBa8mXGKdYz5zAAAgAElEQVQ9H8JVGVHB0wJulxEVPC0AOJQRFTwt4Pekb/2KVxO+mfStglcTvpn0rV/xagJ+T0ZU8LQA4FD6VsGrCbhd+lbBqwmXWM+HcFVGVPC0gNtlRAVPCwAOZUQFTwv4PelbH/JqwveTvlXwasL3k771Ia8m4PdkRAVPCwAOpW8VvJqA26VvFbyacIn1fAhXZUQFTwu4XUZU8LQA4FBGVPC0gN+TvlXzasK3lL5V8GrCt5S+VfNqAn5PRlTwtADgUPpWwasJuF36VsGrCZdYz4dwVUZU8LSA22VEBU8LAA5lRAVPC/gN6Vsf8mrCt5S+VfBqwreUvvUhrybgN2REBU8LAA6lbxW8moDbpW8VvJpwifV8CFdlRAVPC7hdRlTwtADgUEZU8LSAq9K3PuTVhO8qfavg1YTvKn3rQ15NwFUZUcHTAoBD6VsFrybgdulbBa8mXGI9H8JVGVHB0wJulxEVPC0AOJQRFTwt4Kr0rZpXE76x9K2CVxO+sfStmlcTcFVGVPC0AOBQ+lbBqwm4XfpWwasJl1jPh3BVRlTwtIDbZUQFTwsADmVEBU8LuCR9q+bVhO8tfavg1YTvLX2r5tUEXJIRFTwtADiUvlXwagJul75V8GrCJdbzIVyVERU8LeB2GVHB0wKAQxlRwdMCzqVvfcirCd9b+lbBqwnfW/rWh7yagHMZUcHTAoBD6VsFrybgdulbBa8mXGI9H8JVGVHB0wJulxEVPC0AOJQRFTwt4Fz6Vs2rCd9e+lbBqwnfXvpWzasJOJcRFTwtADiUvlXwagJul75V8GrCJdbzIVyVERU8LeB2GVHB0wKAQxlRwdMCDqVv1bya8BOkbxW8mvATpG/VvJqAQxlRwdMCgEPpWwWvJuB26VsFryZcYj0fwlUZUcHTAm6XERU8LQA4lBEVPC3gRPrWh7ya8BOkbxW8mvATpG99yKsJOJERFTwtADiUvlXwagJul75V8GrCJdbzIVyVERU8LeB2GVHB0wKAQxlRwdMCTqRv1bya8EOkbxW8mvBDpG/VvJqAExlRwdMCgEPpWwWvJuB26VsFryZcYj0fwlUZUcHTAm6XERU8LQA4lBEVPC3g09K3al5N+DnStwpeTfg50rdqXk3Ap2VEBU8LAA6lbxW8moDbpW8VvJpwifV8CFdlRAVPC7hdRlTwtADgUEZU8LSAz0nf+pBXE36O9K2CVxN+jvStD3k1AZ+TERU8LQA4lL5V8GoCbpe+VfBqwiXW8yFclREVPC3gdhlRwdMCgEMZUcHTAj4nfavm1YQfJX2r4NWEHyV9q+bVBHxORlTwtADgUPpWwasJuF36VsGrCZdYz4dwVUZU8LSA22VEBU8LAA5lRAVPC/iE9K0PeTXhR0nfKng14UdJ3/qQVxPwCRlRwdMCgEPpWwWvJuB26VsFryZcYj0fwlUZUcHTAm6XERU8LQA4lBEVPC3gE9K3al5N+GnStwpeTfhp0rdqXk3AJ2REBU8LAA6lbxW8moDbpW8VvJpwifV8CFdlRAVPC7hdRlTwtADgUEZU8LSAX0nfqnk14QdK3yp4NeEHSt+qeTUBv5IRFTwtADiUvlXwagJul75V8GrCJdbzIVyVERU8LeB2GVHB0wKAQxlRwdMCPpS+9SGvJvxA6VsFryb8QOlbH/JqAj6UERU8LQA4lL5V8GoCbpe+VfBqwiXW8yFclREVPC3gdhlRwdMCgEMZUcHTAj6UvlXzasLPlL5V8GrCz5S+VfNqAj6UERU8LQA4lL5V8GoCbpe+VfBqwiXW8yFclREVPC3gdhlRwdMCgEMZUcHTAmrpWx/yasLPlL5V8GrCz5S+9SGvJqCWERU8LQA4lL5V8GoCbpe+VfBqwiXW8yFclREVPC3gdhlRwdMCgEMZUcHTAmrpWzWvJvxY6VsFryb8WOlbNa8moJYRFTwtADiUvlXwagJul75V8GrCJdbzIVyVERU8LeB2GVHB0wKAQxlRwdMCCulbH/Jqwo+VvlXwasKPlb71Ia8moJARFTwtADiUvlXwagJul75V8GrCJdbzIVyVERU8LeB2GVHB0wKAQxlRwdMCCulbNa8m/GTpWwWvJvxk6Vs1ryagkBEVPC0AOJS+VfBqAm6XvlXwasIl1vMhXJURFTwt4HYZUcHTAoBDGVHB0wL+L+lbH/Jqwk+WvlXwasJPlr71Ia8m4P+SERU8LQA4lL5V8GoCbpe+VfBqwiXW8yFclREVPC3gdhlRwdMCgEMZUcHTAv4v6Vs1ryb8cOlbBa8m/HDpWzWvJuD/khEVPC0AOJS+VfBqAm6XvlXwasIl1vMhXJURFTwt4HYZUcHTAoBDGVHB0wL+JX3rQ15N+OHStwpeTfjh0rc+5NUE/EtGVPC0AOBQ+lbBqwm4XfpWwasJl1jPh3BVRlTwtIDbZUQFTwsADmVEBU8L+Jf0rZpXE36+9K2CVxN+vvStmlcT8C8ZUcHTAoBD6VsFrybgdulbBa8mXGI9H8JVGVHB0wJulxEVPC0AOJQRFTwt4H9L36p5NeElpG8VvJrwEtK3al5NwP+WERU8LQA4lL5V8GoCbpe+VfBqwiXW8yFclREVPC3gdhlRwdMCgEMZUcHTAv639K2aVxNeQvpWwasJLyF9q+bVBPxvGVHB0wKAQ+lbBa8m4HbpWwWvJlxiPR/CVRlRwdMCbpcRFTwtADiUERU8LeAf0rdqXk14FelbBa8mvIr0rZpXE/APGVHB0wKAQ+lbBa8m4HbpWwWvJlxiPR/CVRlRwdMCbpcRFTwtADiUERU8LeAf0rdqXk14FelbBa8mvIr0rZpXE/APGVHB0wKAQ+lbBa8m4HbpWwWvJlxiPR/CVRlRwdMCbpcRFTwtADiUERU8LeAf0rcKXk14IelbBa8mvJD0rYJXE/APGVHB0wKAQ+lbBa8m4HbpWwWvJlxiPR/CVRlRwdMCbpcRFTwtADiUERU8LeD/sQcHtxbrSLJFdwzr5LhcohU0j05c+sVxfOABNUygpe7SB6RY6z88Dj3tIl7E49DQLuJFPA497SLiPzxNQ0tERFzkcWhoFxGP8zg0tIu4Rfz9iLs8TUNLRDzO0zS0RETERZ6moSUi/sPj0NAu4l08Dg3tIt7F49DQLiL+w9M0tERExEUeh4Z2EfE4j0NDu4hbxN+PuMvTNLRExOM8TUNLRERc5GkaWiLiHx6HnnYR7+JxaGgX8S4eh552EfEPT9PQEhERF3kcGtpFxOM8Dg3tIm4Rfz/iLk/T0BIRj/M0DS0REXGRp2loiYh/eBx62kW8i8ehoV3Eu3gcetpFxD88TUNLRERc5HFoaBcRj/M4NLSLuEX8/Yi7PE1DS0Q8ztM0tERExEWepqElIsDj0NMu4nU8Dg3tIl7H49DTLiLA0zS0RETERR6HhnYR8TiPQ0O7iFvE34+4y9M0tETE4zxNQ0tERFzkaRpaIgI8Dj3tIl7H49DQLuJ1PA497SICPE1DS0REXORxaGgXEY/zODS0i7hF/P2IuzxNQ0tEPM7TNLRERMRFnqahJSLA49DQLuKNPA4N7SLeyOPQ0C4iwNM0tERExEUeh4Z2EfE4j0NDu4hbxN+PuMvTNLRExOM8TUNLRERc5GkaWiI+z+PQ0y7ijTwODe0i3sjj0NMu4vM8TUNLRERc5HFoaBcRj/M4NLSLuEX8/Yi7PE1DS0Q8ztM0tERExEWepqEl4vM8Dj3tIt7I49DQLuKNPA497SI+z9M0tERExEUeh4Z2EfE4j0NDu4hbxN+PuMvTNLRExOM8TUNLRERc5GkaWiK+zePQ0y7ipTwODe0iXsrj0NMu4ts8TUNLRERc5HFoaBcRj/M4NLSLuEX8/Yi7PE1DS0Q8ztM0tERExEWepqEl4ts8Dj3tIl7K49DQLuKlPA497SK+zdM0tERExEUeh4Z2EfE4j0NDu4hbxN+PuMvTNLRExOM8TUNLRERc5GkaWiK+zePQ0C7ivTwODe0i3svj0NAu4ts8TUNLRERc5HFoaBcRj/M4NLSLuEX8/Yi7PE1DS0Q8ztM0tERExEWepqEl4sM8Dj3tIt7L49DQLuK9PA497SI+zNM0tERExEUeh4Z2EfE4j0NDu4hbxN+PuMvTNLRExOM8TUNLRERc5GkaWiI+zOPQ0y7ivTwODe0i3svj0NMu4sM8TUNLRERc5HFoaBcRj/M4NLSLuEX8/Yi7PE1DS0Q8ztM0tERExEWepqEl4sM8Dg3tIl7N49DQLuLVPA4N7SI+zNM0tERExEUeh4Z2EfE4j0NDu4hbxN+PuMvTNLRExOM8TUNLRERc5GkaWiK+yuPQ0y7i1TwODe0iXs3j0NMu4qs8TUNLRERc5HFoaBcRj/M4NLSLuEX8/Yi7PE1DS0Q8ztM0tERExEWepqEl4qs8Dj3tIl7N49DQLuLVPA497SK+ytM0tERExEUeh4Z2EfE4j0NDu4hbxN+PuMvTNLRExOM8TUNLRERc5GkaWiK+yuPQ0C7i7TwODe0i3s7j0NAu4qs8TUNLRERc5HFoaBcRj/M4NLSLuEX8/Yi7PE1DS0Q8ztM0tERExEWepqEl4qs8Dg3tIt7O49DQLuLtPA4N7SK+ytM0tERExEUeh4Z2EfE4j0NDu4hbxN+PuMvTNLRExOM8TUNLRERc5GkaWiI+yePQ0y7i7TwODe0i3s7j0NMu4pM8TUNLRERc5HFoaBcRj/M4NLSLuEX8/Yi7PE1DS0Q8ztM0tERExEWepqEl4pM8Dg3tIj7A49DQLuIDPA4N7SI+ydM0tERExEUeh4Z2EfE4j0NDu4hbxN+PuMvTNLRExOM8TUNLRERc5GkaWiI+yePQ0C7iAzwODe0iPsDj0NAu4pM8TUNLRERc5HFoaBcRj/M4NLSLuEX8/Yi7PE1DS0Q8ztM0tERExEWepqEl4ns8Dj3tIj7A49DQLuIDPA497SK+x9M0tERExEUeh4Z2EfE4j0NDu4hbxN+PuMvTNLRExOM8TUNLRERc5GkaWiK+x+PQ0y7iAzwODe0iPsDj0NMu4ns8TUNLRERc5HFoaBcRj/M4NLSLuEX8/Yi7PE1DS0Q8ztM0tERExEWepqEl4ns8Dg3tIr7B49DQLuIbPA4N7SK+x9M0tERExEUeh4Z2EfE4j0NDu4hbxN+PuMvTNLRExOM8TUNLRERc5GkaWiI+xuPQ0y7iGzwODe0ivsHj0NMu4mM8TUNLRERc5HFoaBcRj/M4NLSLuEX8/Yi7PE1DS0Q8ztM0tERExEWepqEl4mM8Dj3tIr7B49DQLuIbPA497SI+xtM0tERExEUeh4Z2EfE4j0NDu4hbxN+PuMvTNLRExOM8TUNLRERc5GkaWiI+xuPQ0C7iMzwODe0iPsPj0NAu4mM8TUNLRERc5HFoaBcRj/M4NLSLuEX8/Yi7PE1DS0Q8ztM0tERExEWepqEl4mM8Dg3tIj7D49DQLuIzPA4N7SI+xtM0tERExEUeh4Z2EfE4j0NDu4hbxN+PuMvTNLRExOM8TUNLRERc5GkaWiI+xuPQ0C7iMzwODe0iPsPj0NAu4mM8TUNLRERc5HFoaBcRj/M4NLSLuEX8/Yi7PE1DS0Q8ztM0tERExEWepqEl4ks8Dg3tIr7E49DQLuJLPA4N7SK+xNM0tERExEUeh4Z2EfE4j0NDu4hbxN+PuMvTNLRExOM8TUNLRERc5GkaWiK+xOPQ0C7iSzwODe0ivsTj0NAu4ks8TUNLRERc5HFoaBcRj/M4NLSLuEX8/Yi7PE1DS0Q8ztM0tERExEWepqEl4ks8Dg3tIr7E49DQLuJLPA4N7SK+xNM0tERExEUeh4Z2EfE4j0NDu4hbxN+PuMvTNLRExOM8TUNLRERc5GkaWiK+xOPQ0C7iSzwODe0ivsTj0NAu4ks8TUNLRERc5HFoaBcRj/M4NLSLuEX8/Yi7PE1DS0Q8ztM0tERExEWepqEl4jM8Dj3tIr7E49DQLuJLPA497SI+w9M0tERExEUeh4Z2EfE4j0NDu4hbxN+PuMvTNLRExOM8TUNLRERc5GkaWiI+w+PQ0C7iYzwODe0iPsbj0NAu4jM8TUNLRERc5HFoaBcRj/M4NLSLuEX8/Yi7PE1DS0Q8ztM0tERExEWepqEl4jM8Dg3tIj7G49DQLuJjPA4N7SI+w9M0tERExEUeh4Z2EfE4j0NDu4hbxN+PuMvTNLRExOM8TUNLRERc5GkaWiI+w+PQ0C7iYzwODe0iPsbj0NAu4jM8TUNLRERc5HFoaBcRj/M4NLSLuEX8/Yi7PE1DS0Q8ztM0tERExEWepqEl4jM8Dg3tIj7G49DQLuJjPA4N7SI+w9M0tERExEUeh4Z2EfE4j0NDu4hbxN+PuMvTNLRExOM8TUNLRERc5GkaWiK+wePQ0C7iezwODe0ivsfj0NAu4hs8TUNLRERc5HFoaBcRj/M4NLSLuEX8/Yi7PE1DS0Q8ztM0tERExEWepqEl4hs8Dg3tIr7H49DQLuJ7PA4N7SK+wdM0tERExEUeh4Z2EfE4j0NDu4hbxN+PuMvTNLRExOM8TUNLRERc5GkaWiK+wePQ0C7iezwODe0ivsfj0NAu4hs8TUNLRERc5HFoaBcRj/M4NLSLuEX8/Yi7PE1DS0Q8ztM0tERExEWepqEl4hs8Dg3tIr7H49DQLuJ7PA4N7SK+wdM0tERExEUeh4Z2EfE4j0NDu4hbxN+PuMvTNLRExOM8TUNLRERc5GkaWiK+wePQ0C7iezwODe0ivsfj0NAu4hs8TUNLRERc5HFoaBcRj/M4NLSLuEX8/Yi7PE1DS0Q8ztM0tERExEWepqEl4gM8Dg3tIj7J49DQLuKTPA4N7SI+wNM0tERExEUeh4Z2EfE4j0NDu4hbxN+PuMvTNLRExOM8TUNLRERc5GkaWiI+wOPQ0C7ikzwODe0iPsnj0NAu4gM8TUNLRERc5HFoaBcRj/M4NLSLuEX8/Yi7PE1DS0Q8ztM0tERExEWepqEl4gM8Dg3tIj7J49DQLuKTPA4N7SI+wNM0tERExEUeh4Z2EfE4j0NDu4hbxN+PuMvTNLRExOM8TUNLRERc5GkaWiI+wOPQ0C7ikzwODe0iPsnj0NAu4gM8TUNLRERc5HFoaBcRj/M4NLSLuEX8/Yi7PE1DS0Q8ztM0tERExEWepqEl4gM8Dg3tIj7J49DQLuKTPA4N7SI+wNM0tERExEUeh4Z2EfE4j0NDu4hbxN+PuMvTNLRExOM8TUNLRERc5GkaWiI+wOPQ0C7ikzwODe0iPsnj0NAu4gM8TUNLRERc5HFoaBcRj/M4NLSLuEX8/Yi7PE1DS0Q8ztM0tERExEWepqEl4gM8Dg3tIj7J49DQLuKTPA4N7SI+wNM0tERExEUeh4Z2EfE4j0NDu4hbxN+PuMvTNLRExOM8TUNLRERc5GkaWiLezuPQ0y7ikzwODe0iPsnj0NMu4u08TUNLRERc5HFoaBcRj/M4NLSLuEX8/Yi7PE1DS0Q8ztM0tERExEWepqEl4u08Dg3tIr7K49DQLuKrPA4N7SLeztM0tERExEUeh4Z2EfE4j0NDu4hbxN+PuMvTNLRExOM8TUNLRERc5GkaWiLezuPQ0C7iqzwODe0ivsrj0NAu4u08TUNLRERc5HFoaBcRj/M4NLSLuEX8/Yi7PE1DS0Q8ztM0tERExEWepqEl4u08Dg3tIr7H4/A/oF3E93gcGtpFvJ2naWiJiIiLPA4N7SLicR6HhnYRt4i/H3GXp2loiYjHeZqGloiIuMjTNLREvJ3HoaFdxJd4HC7SLuJLPA4N7SLeztM0tERExEUeh4Z2EfE4j0NDu4hbxN+PuMvTNLRExOM8TUNLRERc5GkaWiLezuPQ0C7iGzwO/wvaRXyDx6GhXcTbeZqGloiIuMjj0NAuIh7ncWhoF3GL+PsRd3mahpaIeJynaWiJiIiLPE1DS8TbeRwa2kW8ncfh/4h2EW/ncWhoF/F2nqahJSIiLvI4NLSLiMd5HBraRdwi/n7EXZ6moSUiHudpGloiIuIiT9PQEvF2HoeGdhGv5nH4P6VdxKt5HBraRbydp2loiYiIizwODe0i4nEeh4Z2EbeIvx9xl6dpaImIx3mahpaIiLjI0zS0RLydx6GhXcR7eRz+C7SLeC+PQ0O7iLfzNA0tERFxkcehoV1EPM7j0NAu4hbx9yPu8jQNLRHxOE/T0BIRERd5moaWiLfzODS0i3gpj8N/jXYRL+VxaGgX8XaepqElIiIu8jg0tIuIx3kcGtpF3CL+fsRdnqahJSIe52kaWiIi4iJP09AS8XYeh4Z2EW/kcfgv0y7ijTwODe0i3s7TNLRERMRFHoeGdhHxOI9DQ7uIW8Tfj7jL0zS0RMTjPE1DS0REXORpGloiXs3j0NAu4qU8Dv9l2kW8lMehoV3Eq3mahpaIiLjI49DQLiIe53FoaBdxi/j7EXd5moaWiHicp2loiYiIizxNQ0vEq3kcGtpFvJHH4RHaRbyRx6GhXcSreZqGloiIuMjj0NAuIh7ncWhoF3GL+PsRd3mahpaIeJynaWiJiIiLPE1DS8SreRwa2kW8kcfhEdpFvJHHoaFdxKt5moaWiIi4yOPQ0C4iHudxaGgXcYv4+xF3eZqGloh4nKdpaImIiIs8TUNLxKt5HBraRbyOx+FB2kW8jsehoV3Eq3mahpaIiLjI49DQLiIe53FoaBdxi/j7EXd5moaWiHicp2loiYiIizxNQ0vEq3kcGtpFvI7H4UHaRbyOx6GhXcSreZqGloiIuMjj0NAuIh7ncWhoF3GL+PsRd3mahpaIeJynaWiJiIiLPE1DS8SreRwa2kW8i8fhcdpFvIvHoaFdxKt5moaWiIi4yOPQ0C4iHudxaGgXcYv4+xF3eZqGloh4nKdpaImIiIs8TUNLxKt5HBraRbyLx+Fx2kW8i8ehoV3Eq3mahpaIiLjI49DQLiIe53FoaBdxi/zvfxERERFxkZaIV/M4NLSLeBePw+O0i3gXj0NDu4hX8zQNLRERcZHHoaFdRDzO49DQLuIW+d//IiIiIuIiLRGv5nFoaBfxLh6Hx2kX8S4eh4Z2Ea/maRpaIiLiIo9DQ7uIeJzHoaFdxC3yv/9FRERExEVaIl7N49DQLuJdPA6P0y7iXTwODe0iXs3TNLRERMRFHoeGdhHxOI9DQ7uIW+R//4uIiIiIi7REvJrHoaFdxLt4HB6nXcS7eBwa2kW8mqdpaImIiIs8Dg3tIuJxHoeGdhG3yP/+FxEREREXaYl4NY9DQ7uIF/E4/H+iXcSLeBwa2kW8mqdpaImIiIs8Dg3tIuJxHoeGdhG3yP/+FxEREREXaYl4NY9DQ7uId/E4PE67iHfxODS0i3g1T9PQEhERF3kcGtpFxOM8Dg3tIm6R//0vIiIiIi7SEvFqHoeGdhHv4nF4nHYR7+JxaGgX8WqepqElIiIu8jg0tIuIx3kcGtpF3CL/+19EREREXKQl4tU8Dg3tIt7F4/A47SLexePQ0C7i1TxNQ0tERFzkcWhoFxGP8zg0tIu4Rf73v4iIiIi4SEvEq3kcGtpFvIvH4XHaRbyLx6GhXcSreZqGloiIuMjj0NAuIh7ncWhoF3GL+PsRd3mahpaIeJynaWiJiIiLPE1DS8SreRwa2kW8i8fhcdpFvIvHoaFdxKt5moaWiIi4yOPQ0C4iHudxaGgXcYv4+xF3eZqGloh4nKdpaImIiIs8TUNLxKt5HBraRbyLx+Fx2kW8i8ehoV3Eq3mahpaIiLjI49DQLiIe53FoaBdxi/j7EXd5moaWiHicp2loiYiIizxNQ0vEq3kcGtpFvI7H4UHaRbyOx6GhXcSreZqGloiIuMjj0NAuIh7ncWhoF3GL+PsRd3mahpaIeJynaWiJiIiLPE1DS8SreRwa2kW8jsfhQdpFvI7HoaFdxKt5moaWiIi4yOPQ0C4iHudxaGgXcYv4+xF3eZqGloh4nKdpaImIiIs8TUNLxKt5HBraRbyRx+ER2kW8kcehoV3Eq3mahpaIiLjI49DQLiIe53FoaBdxi/j7EXd5moaWiHicp2loiYiIizxNQ0vEq3kcGtpFvJHH4RHaRbyRx6GhXcSreZqGloiIuMjj0NAuIh7ncWhoF3GL+PsRd3mahpaIeJynaWiJiIiLPE1DS8SreRwa2kW8lMfhv0y7iJfyODS0i3g1T9PQEhERF3kcGtpFxOM8Dg3tIm4Rfz/iLk/T0BIRj/M0DS0REXGRp2loiXg7j0NDu4g38jj8l2kX8UYeh4Z2EW/naRpaIiLiIo9DQ7uIeJzHoaFdxC3i70fc5WkaWiLicZ6moSUiIi7yNA0tEW/ncWhoF/FSHof/Gu0iXsrj0NAu4u08TUNLRERc5HFoaBcRj/M4NLSLuEX8/Yi7PE1DS0Q8ztM0tERExEWepqEl4u08Dg3tIt7L4/BfoF3Ee3kcGtpFvJ2naWiJiIiLPA4N7SLicR6HhnYRt4i/H3GXp2loiYjHeZqGloiIuMjTNLREvJ3HoaFdxKt5HP5PaRfxah6HhnYRb+dpGloiIuIij0NDu4h4nMehoV3ELeLvR9zlaRpaIuJxnqahJSIiLvI0DS0Rb+dxaGgX8XYeh/8j2kW8ncehoV3E23mahpaIiLjI49DQLiIe53FoaBdxi/j7EXd5moaWiHicp2loiYiIizxNQ0vE23kcGtpFfIPH4X9Bu4hv8Dg0tIt4O0/T0BIRERd5HBraRcTjPA4N7SJuEX8/4i5P09ASEY/zNA0tERFxkadpaIl4O49DQ7uIL/E4XKRdxJd4HBraRbydp2loiYiIizwODe0i4nEeh4Z2EbeIvx9xl6dpaImIx3mahpaIiLjI0zS0RLydx6GhXcT3eBz+B7SL+B6PQ0O7iLfzNA0tERFxkcehoV1EPM7j0NAu4hbx9yPu8jQNLRHxOE/T0BIRERd5moaWiLfzODS0i/gqj0NDu4iv8jg0tOB0oEMAACAASURBVIt4O0/T0BIRERd5HBraRcTjPA4N7SJuEX8/4i5P09ASEY/zNA0tERFxkadpaIl4O49DQ7uIr/I4NLSL+CqPQ0O7iLfzNA0tERFxkcehoV1EPM7j0NAu4hbx9yPu8jQNLRHxOE/T0BIRERd5moaWiLfzOPS0i/gkj0NDu4hP8jj0tIt4O0/T0BIRERd5HBraRcTjPA4N7SJuEX8/4i5P09ASEY/zNA0tERFxkadpaIn4AI9DQ7uIT/I4NLSL+CSPQ0O7iA/wNA0tERFxkcehoV1EPM7j0NAu4hbx9yPu8jQNLRHxOE/T0BIRERd5moaWiA/wODS0i/gkj0NDu4hP8jg0tIv4AE/T0BIRERd5HBraRcTjPA4N7SJuEX8/4i5P09ASEY/zNA0tERFxkadpaIn4AI9DQ7uIT/I4NLSL+CSPQ0O7iA/wNA0tERFxkcehoV1EPM7j0NAu4hbx9yPu8jQNLRHxOE/T0BIRERd5moaWiA/wODS0i/gkj0NDu4hP8jg0tIv4AE/T0BIRERd5HBraRcTjPA4N7SJuEX8/4i5P09ASEY/zNA0tERFxkadpaIn4AI9DQ7uIT/I4NLSL+CSPQ0O7iA/wNA0tERFxkcehoV1EPM7j0NAu4hbx9yPu8jQNLRHxOE/T0BIRERd5moaWiA/wODS0i/gkj0NDu4hP8jg0tIv4AE/T0BIRERd5HBraRcTjPA4N7SJuEX8/4i5P09ASEY/zNA0tERFxkadpaIn4AI9DQ7uIT/I4NLSL+CSPQ0O7iA/wNA0tERFxkcehoV1EPM7j0NAu4hbx9yPu8jQNLRHxOE/T0BIRERd5moaWiG/wODS0i/gej0NDu4jv8Tg0tIv4Bk/T0BIRERd5HBraRcTjPA4N7SJuEX8/4i5P09ASEY/zNA0tERFxkadpaIn4Bo9DQ7uI7/E4NLSL+B6PQ0O7iG/wNA0tERFxkcehoV1EPM7j0NAu4hbx9yPu8jQNLRHxOE/T0BIRERd5moaWiG/wODS0i/gej0NDu4jv8Tg0tIv4Bk/T0BIRERd5HBraRcTjPA4N7SJuEX8/4i5P09ASEY/zNA0tERFxkadpaIn4Bo9DQ7uI7/E4NLSL+B6PQ0O7iG/wNA0tERFxkcehoV1EPM7j0NAu4hbx9yPu8jQNLRHxOE/T0BIRERd5moaWiG/wOPS0i/gYj0NDu4iP8Tj0tIv4Bk/T0BIRERd5HBraRcTjPA4N7SJuEX8/4i5P09ASEY/zNA0tERFxkadpaIn4Bo9DT7uIj/E4NLSL+BiPQ0+7iG/wNA0tERFxkcehoV1EPM7j0NAu4hbx9yPu8jQNLRHxOE/T0BIRERd5moaWiM/wODS0i/gYj0NDu4iP8Tg0tIv4DE/T0BIRERd5HBraRcTjPA4N7SJuEX8/4i5P09ASEY/zNA0tERFxkadpaIn4DI9DQ7uIj/E4NLSL+BiPQ0O7iM/wNA0tERFxkcehoV1EPM7j0NAu4hbx9yPu8jQNLRHxOE/T0BIRERd5moaWiM/wODS0i/gYj0NDu4iP8Tg0tIv4DE/T0BIRERd5HBraRcTjPA4N7SJuEX8/4i5P09ASEY/zNA0tERFxkadpaIn4DI9DT7uIL/E4NLSL+BKPQ0+7iM/wNA0tERFxkcehoV1EPM7j0NAu4hbx9yPu8jQNLRHxOE/T0BIRERd5moaWiC/xODS0i/gSj0NDu4gv8Tg0tIv4Ek/T0BIRERd5HBraRcTjPA4N7SJuEX8/4i5P09ASEY/zNA0tERFxkadpaIn4Eo9DQ7uIL/E4NLSL+BKPQ0O7iC/xNA0tERFxkcehoV1EPM7j0NAu4hbx9yPu8jQNLRHxOE/T0BIRERd5moaWiC/xODS0i/gSj0NDu4gv8Tg0tIv4Ek/T0BIRERd5HBraRcTjPA4N7SJuEX8/4i5P09ASEY/zNA0tERFxkadpaIn4Eo9DT7uIz/A4NLSL+AyPQ0+7iC/xNA0tERFxkcehoV1EPM7j0NAu4hbx9yPu8jQNLRHxOE/T0BIRERd5moaWiC/xOPS0i/gMj0NDu4jP8Dj0tIv4Ek/T0BIRERd5HBraRcTjPA4N7SJuEX8/4i5P09ASEY/zNA0tERFxkadpaIn4GI9DQ7uIz/A4NLSL+AyPQ0O7iI/xNA0tERFxkcehoV1EPM7j0NAu4hbx9yPu8jQNLRHxOE/T0BIRERd5moaWiI/xODS0i/gMj0NDu4jP8Dg0tIv4GE/T0BIRERd5HBraRcTjPA4N7SJuEX8/4i5P09ASEY/zNA0tERFxkadpaIn4GI9DT7uIb/A4NLSL+AaPQ0+7iI/xNA0tERFxkcehoV1EPM7j0NAu4hbx9yPu8jQNLRHxOE/T0BIRERd5moaWiI/xOPS0i/gGj0NDu4hv8Dj0tIv4GE/T0BIRERd5HBraRcTjPA4N7SJuEX8/4i5P09ASEY/zNA0tERFxkadpaIn4Ho9DQ7uIb/A4NLSL+AaPQ0O7iO/xNA0tERFxkcehoV1EPM7j0NAu4hbx9yPu8jQNLRHxOE/T0BIRERd5moaWiO/xOPS0i/gAj0NDu4gP8Dj0tIv4Hk/T0BIRERd5HBraRcTjPA4N7SJuEX8/4i5P09ASEY/zNA0tERFxkadpaIn4Ho9DT7uID/A4NLSL+ACPQ0+7iO/xNA0tERFxkcehoV1EPM7j0NAu4hbx9yPu8jQNLRHxOE/T0BIRERd5moaWiE/yODS0i/gAj0NDu4gP8Dg0tIv4JE/T0BIRERd5HBraRcTjPA4N7SJuEX8/4i5P09ASEY/zNA0tERFxkadpaIn4JI9DQ7uID/A4NLSL+ACPQ0O7iE/yNA0tERFxkcehoV1EPM7j0NAu4hbx9yPu8jQNLRHxOE/T0BIRERd5moaWiE/yOPS0i3g7j0NDu4i38zj0tIv4JE/T0BIRERd5HBraRcTjPA4N7SJuEX8/4i5P09ASEY/zNA0tERFxkadpaIn4Ko9DQ7uIt/M4NLSLeDuPQ0O7iK/yNA0tERFxkcehoV1EPM7j0NAu4hbx9yPu8jQNLRHxOE/T0BIRERd5moaWiK/yODS0i3g7j0NDu4i38zg0tIv4Kk/T0BIRERd5HBraRcTjPA4N7SJuEX8/4i5P09ASEY/zNA0tERFxkadpaIn4Ko9DT7uIV/M4NLSLeDWPQ0+7iK/yNA0tERFxkcehoV1EPM7j0NAu4hbx9yPu8jQNLRHxOE/T0BIRERd5moaWiK/yOPS0i3g1j0NDu4hX8zj0tIv4Kk/T0BIRERd5HBraRcTjPA4N7SJuEX8/4i5P09ASEY/zNA0tERFxkadpaIn4MI9DQ7uIV/M4NLSLeDWPQ0O7iA/zNA0tERFxkcehoV1EPM7j0NAu4hbx9yPu8jQNLRHxOE/T0BIRERd5moaWiA/zOPS0i3gvj0NDu4j38jj0tIv4ME/T0BIRERd5HBraRcTjPA4N7SJuEX8/4i5P09ASEY/zNA0tERFxkadpaIn4MI9DT7uI9/I4NLSLeC+PQ0+7iA/zNA0tERFxkcehoV1EPM7j0NAu4hbx9yPu8jQNLRHxOE/T0BIRERd5moaWiG/zODS0i3gvj0NDu4j38jg0tIv4Nk/T0BIRERd5HBraRcTjPA4N7SJuEX8/4i5P09ASEY/zNA0tERFxkadpaIn4No9DT7uIl/I4NLSLeCmPQ0+7iG/zNA0tERFxkcehoV1EPM7j0NAu4hbx9yPu8jQNLRHxOE/T0BIRERd5moaWiM/zODS0i3gpj0NDu4iX8jg0tIv4PE/T0BIRERd5HBraRcTjPA4N7SJuEX8/4i5P09ASEY/zNA0tERFxkadpaIn4PI9DT7uIN/I4NLSLeCOPQ0+7iM/zNA0tERFxkcehoV1EPM7j0NAu4hbx9yPu8jQNLRHxOE/T0BIRERd5moaWiM/zOPS0i3gjj0NDu4g38jj0tIv4PE/T0BIRERd5HBraRcTjPA4N7SJuEX8/4i5P09ASEY/zNA0tERFxkadpaIkI8Dg0tIt4I49DQ7uIN/I4NLSLCPA0DS0REXGRx6GhXUQ8zuPQ0C7iFvH3I+7yNA0tEfE4T9PQEhERF3mahpaIAI9DT7uI1/E4NLSLeB2PQ0+7iABP09ASEREXeRwa2kXE4zwODe0ibhF/P+IuT9PQEhGP8zQNLRERcZGnaWiJiH94HBraRbyOx6GhXcTreBwa2kXEPzxNQ0tERFzkcWhoFxGP8zg0tIu4Rfz9iLs8TUNLRDzO0zS0RETERZ6moSUi/uFx6GkX8S4eh4Z2Ee/icehpFxH/8DQNLRERcZHHoaFdRDzO49DQLuIW8fcj7vI0DS0R8ThP09ASEREXeZqGloj4h8ehp13Eu3gcGtpFvIvHoaddRPzD0zS0RETERR6HhnYR8TiPQ0O7iFvE34+4y9M0tETE4zxNQ0tERFzkaRpaIuI/PA497SJexOPQ0C7iRTwOPe0i4j/+H3twcBvZriZrNGJ4k+PrEq2geXQi6RfH8YAHNHAap3+VuKu0S8r81sqICp4WABxK3yp4NQG3S98qeDXhEuv5EK7KiAqeFnC7jKjgaQHAoYyo4GkB/yN9q+bVhBeSvlXwasILSd+qeTUB/yMjKnhaAHAofavg1QTcLn2r4NWES6znQ7gqIyp4WsDtMqKCpwUAhzKigqcF/EP6VsGrCS8kfavg1YQXkr5V8GoC/iEjKnhaAHAofavg1QTcLn2r4NWES6znQ7gqIyp4WsDtMqKCpwUAhzKigqcF/EP6Vs2rCa8ifavg1YRXkb5V82oC/iEjKnhaAHAofavg1QTcLn2r4NWES6znQ7gqIyp4WsDtMqKCpwUAhzKigqcF/EP6Vs2rCa8ifavg1YRXkb5V82oC/iEjKnhaAHAofavg1QTcLn2r4NWES6znQ7gqIyp4WsDtMqKCpwUAhzKigqcF/G/pWzWvJryE9K2CVxNeQvpWzasJ+N8yooKnBQCH0rcKXk3A7dK3Cl5NuMR6PoSrMqKCpwXcLiMqeFoAcCgjKnhawP+WvlXzasJLSN8qeDXhJaRv1byagP8tIyp4WgBwKH2r4NUE3C59q+DVhEus50O4KiMqeFrA7TKigqcFAIcyooKnBfxL+lbNqwk/X/pWwasJP1/6Vs2rCfiXjKjgaQHAofStglcTcLv0rYJXEy6xng/hqoyo4GkBt8uICp4WABzKiAqeFvAv6Vsf8mrCD5e+VfBqwg+XvvUhrybgXzKigqcFAIfStwpeTcDt0rcKXk24xHo+hKsyooKnBdwuIyp4WgBwKCMqeFrA/yV9q+bVhB8ufavg1YQfLn2r5tUE/F8yooKnBQCH0rcKXk3A7dK3Cl5NuMR6PoSrMqKCpwXcLiMqeFoAcCgjKnhawP8lfetDXk34ydK3Cl5N+MnStz7k1QT8XzKigqcFAIfStwpeTcDt0rcKXk24xHo+hKsyooKnBdwuIyp4WgBwKCMqeFpAIX2r5tWEnyx9q+DVhJ8sfavm1QQUMqKCpwUAh9K3Cl5NwO3StwpeTbjEej6EqzKigqcF3C4jKnhaAHAoIyp4WkAhfetDXk34sdK3Cl5N+LHStz7k1QQUMqKCpwUAh9K3Cl5NwO3StwpeTbjEej6EqzKigqcF3C4jKnhaAHAoIyp4WkAtfavm1YQfK32r4NWEHyt9q+bVBNQyooKnBQCH0rcKXk3A7dK3Cl5NuMR6PoSrMqKCpwXcLiMqeFoAcCgjKnhaQC1960NeTfiZ0rcKXk34mdK3PuTVBNQyooKnBQCH0rcKXk3A7dK3Cl5NuMR6PoSrMqKCpwXcLiMqeFoAcCgjKnhawIfSt2peTfiZ0rcKXk34mdK3al5NwIcyooKnBQCH0rcKXk3A7dK3Cl5NuMR6PoSrMqKCpwXcLiMqeFoAcCgjKnhawIfStz7k1YQfKH2r4NWEHyh960NeTcCHMqKCpwUAh9K3Cl5NwO3StwpeTbjEej6EqzKigqcF3C4jKnhaAHAoIyp4WsCvpG/VvJrwA6VvFbya8AOlb9W8moBfyYgKnhYAHErfKng1AbdL3yp4NeES6/kQrsqICp4WcLuMqOBpAcChjKjgaQGfkL5V82rCT5O+VfBqwk+TvlXzagI+ISMqeFoAcCh9q+DVBNwufavg1YRLrOdDuCojKnhawO0yooKnBQCHMqKCpwV8QvpWzasJP036VsGrCT9N+lbNqwn4hIyo4GkBwKH0rYJXE3C79K2CVxMusZ4P4aqMqOBpAbfLiAqeFgAcyogKnhbwOelbNa8m/CjpWwWvJvwo6Vs1rybgczKigqcFAIfStwpeTcDt0rcKXk24xHo+hKsyooKnBdwuIyp4WgBwKCMqeFrA56RvfcirCT9H+lbBqwk/R/rWh7yagM/JiAqeFgAcSt8qeDUBt0vfKng14RLr+RCuyogKnhZwu4yo4GkBwKGMqOBpAZ+WvlXzasLPkb5V8GrCz5G+VfNqAj4tIyp4WgBwKH2r4NUE3C59q+DVhEus50O4KiMqeFrA7TKigqcFAIcyooKnBZxI36p5NeGHSN8qeDXhh0jfqnk1AScyooKnBQCH0rcKXk3A7dK3Cl5NuMR6PoSrMqKCpwXcLiMqeFoAcCgjKnhawIn0rQ95NeEnSN8qeDXhJ0jf+pBXE3AiIyp4WgBwKH2r4NUE3C59q+DVhEus50O4KiMqeFrA7TKigqcFAIcyooKnBRxK36p5NeEnSN8qeDXhJ0jfqnk1AYcyooKnBQCH0rcKXk3A7dK3Cl5NuMR6PoSrMqKCpwXcLiMqeFoAcCgjKnhawLn0rZpXE7699K2CVxO+vfStmlcTcC4jKnhaAHAofavg1QTcLn2r4NWES6znQ7gqIyp4WsDtMqKCpwUAhzKigqcFnEvf+pBXE7639K2CVxO+t/StD3k1AecyooKnBQCH0rcKXk3A7dK3Cl5NuMR6PoSrMqKCpwXcLiMqeFoAcCgjKnhawCXpWzWvJnxv6VsFryZ8b+lbNa8m4JKMqOBpAcCh9K2CVxNwu/StglcTLrGeD+GqjKjgaQG3y4gKnhYAHMqICp4WcEn61oe8mvCNpW8VvJrwjaVvfcirCbgkIyp4WgBwKH2r4NUE3C59q+DVhEus50O4KiMqeFrA7TKigqcFAIcyooKnBVyVvvUhryZ8V+lbBa8mfFfpWx/yagKuyogKnhYAHErfKng1AbdL3yp4NeES6/kQrsqICp4WcLuMqOBpAcChjKjgaQG/IX2r5tWE7yp9q+DVhO8qfavm1QT8hoyo4GkBwKH0rYJXE3C79K2CVxMusZ4P4aqMqOBpAbfLiAqeFgAcyogKnhbwG9K3PuTVhG8pfavg1YRvKX3rQ15NwG/IiAqeFgAcSt8qeDUBt0vfKng14RLr+RCuyogKnhZwu4yo4GkBwKGMqOBpAb8nfetDXk34ftK3Cl5N+H7Stz7k1QT8noyo4GkBwKH0rYJXE3C79K2CVxMusZ4P4aqMqOBpAbfLiAqeFgAcyogKnhbwe9K3fsWrCd9M+lbBqwnfTPrWr3g1Ab8nIyp4WgBwKH2r4NUE3C59q+DVhEus50O4KiMqeFrA7TKigqcFAIcyooKnBfy29K1f8WrCd5K+VfBqwneSvvUrXk3Ab8uICp4WABxK3yp4NQG3S98qeDXhEuv5EK7KiAqeFnC7jKjgaQHAoYyo4GkBf0L61oe8mvCdpG8VvJrwnaRvfcirCfgTMqKCpwUAh9K3Cl5NwO3StwpeTbjEej6EqzKigqcF3C4jKnhaAHAoIyp4WsAfkr71Ia8mfBvpWwWvJnwb6Vsf8moC/pCMqOBpAcCh9K2CVxNwu/StglcTLrGeD+GqjKjgaQG3y4gKnhYAHMqICp4W8Iekb/2KVxO+h/StglcTvof0rV/xagL+kIyo4GkBwKH0rYJXE3C79K2CVxMusZ4P4aqMqOBpAbfLiAqeFgAcyogKnhbw56Rv/YpXE76B9K2CVxO+gfStX/FqAv6cjKjgaQHAofStglcTcLv0rYJXEy6xng/hqoyo4GkBt8uICp4WABzKiAqeFvBHpW99yKsJ30D6VsGrCd9A+taHvJqAPyojKnhaAHAofavg1QTcLn2r4NWES6znQ7gqIyp4WsDtMqKCpwUAhzKigqcF/GnpWx/yasLflr5V8GrC35a+9SGvJuBPy4gKnhYAHErfKng1AbdL3yp4NeES6/kQrsqICp4WcLuMqOBpAcChjKjgaQFfIH3rQ15N+KvStwpeTfir0rc+5NUEfIGMqOBpAcCh9K2CVxNwu/StglcTLrGeD+GqjKjgaQG3y4gKnhYAHMqICp4W8AXSt37Fqwl/T/pWwasJf0/61q94NQFfICMqeFoAcCh9q+DVBNwufavg1YRLrOdDuCojKnhawO0yooKnBQCHMqKCpwV8jfStX/Fqwl+SvlXwasJfkr71K15NwNfIiAqeFgAcSt8qeDUBt0vfKng14RLr+RCuyogKnhZwu4yo4GkBwKGMqOBpAV8mfetXvJrwN6RvFbya8Dekb/2KVxPwZTKigqcFAIfStwpeTcDt0rcKXk24xHo+hKsyooKnBdwuIyp4WgBwKCMqeFrAV0rf+hWvJtwufavg1YTbpW/9ilcT8JUyooKnBQCH0rcKXk3A7dK3Cl5NuMR6PoSrMqKCpwXcLiMqeFoAcCgjKnhawBdL3/oVrybcK32r4NWEe6Vv/YpXE/DFMqKCpwUAh9K3Cl5NwO3StwpeTbjEej6EqzKigqcF3C4jKnhaAHAoIyp4WsDXS9/6kFcT7pW+VfBqwr3Stz7k1QR8vYyo4GkBwKH0rYJXE3C79K2CVxMusZ4P4aqMqOBpAbfLiAqeFgAcyogKnhZwi/StD3k14UbpWwWvJtwofetDXk3ALTKigqcFAIfStwpeTcDt0rcKXk24xHo+hKsyooKnBdwuIyp4WgBwKCMqeFrAXdK3PuTVhLukbxW8mnCX9K0PeTUBd8mICp4WABxK3yp4NQG3S98qeDXhEuv5EK7KiAqeFnC7jKjgaQHAoYyo4GkBN0rf+pBXE26RvlXwasIt0rc+5NUE3CgjKnhaAHAofavg1QTcLn2r4NWES6znQ7gqIyp4WsDtMqKCpwUAhzKigqcF3Ch961e8mvD10rcKXk34eulbv+LVBNwoIyp4WgBwKH2r4NUE3C59q+DVhEus50O4KiMqeFrA7TKigqcFAIcyooKnBdwrfetXvJrwxdK3Cl5N+GLpW7/i1QTcKyMqeFoAcCh9q+DVBNwufavg1YRLrOdDuCojKnhawO0yooKnBQCHMqKCpwXcLn3rE7ya8GXStwpeTfgy6Vuf4NUE3C4jKnhaAHAofavg1QTcLn2r4NWES6znQ7gqIyp4WsDtMqKCpwUAhzKigqcF/A3pW5/g1YSvkb5V8GrC10jf+gSvJuBvyIgKnhYAHErfKng1AbdL3yp4NeES6/kQrsqICp4WcLuMqOBpAcChjKjgaQF/SfrWJ3g14QukbxW8mvAF0rc+wasJ+EsyooKnBQCH0rcKXk3A7dK3Cl5NuMR6PoSrMqKCpwXcLiMqeFoAcCgjKnhawN+TvvUJXk3409K3Cl5N+NPStz7Bqwn4ezKigqcFAIfStwpeTcDt0rcKXk24xHo+hKsyooKnBdwuIyp4WgBwKCMqeFrAX5W+9QleTfij0rcKXk34o9K3PsGrCfirMqKCpwUAh9K3Cl5NwO3StwpeTbjEej6EqzKigqcF3C4jKnhaAHAoIyp4WsDflr71CV5N+HPStwpeTfhz0rc+wasJ+NsyooKnBQCH0rcKXk3A7dK3Cl5NuMR6PoSrMqKCpwXcLiMqeFoAcCgjKnhawDeQvvUJXk34Q9K3Cl5N+EPStz7Bqwn4BjKigqcFAIfStwpeTcDt0rcKXk24xHo+hKsyooKnBdwuIyp4WgBwKCMqeFrA95C+9QleTfgT0rcKXk34E9K3PsGrCfgeMqKCpwUAh9K3Cl5NwO3StwpeTbjEej6EqzKigqcF3C4jKnhaAHAoIyp4WsC3kb71CV5N+G3pWwWvJvy29K1P8GoCvo2MqOBpAcCh9K2CVxNwu/StglcTLrGeD+GqjKjgaQG3y4gKnhYAHMqICp4W8J2kb32OVxN+Q/pWwasJvyd96xO8moDvJCMqeFoAcCh9q+DVBNwufavg1YRLrOdDuCojKnhawO0yooKnBQCHMqKCpwV8M+lbn+PVhKvStwpeTfgN6Vuf4NUEfDMZUcHTAoBD6VsFrybgdulbBa8mXGI9H8JVGVHB0wJulxEVPC0AOJQRFTwt4PtJ3/ocryZckr5V8GrCJelbn+PVBHw/GVHB0wKAQ+lbBa8m4HbpWwWvJlxiPR/CVRlRwdMCbpcRFTwtADiUERU8LeBbSt/6HK8mnEvfKng14Vz61ud4NQHfUkZU8LQA4FD6VsGrCbhd+lbBqwmXWM+HcFVGVPC0gNtlRAVPCwAOZUQFTwv4rtK3Ps2rCSfStwpeTTiUvvU5Xk3Ad5URFTwtADiUvlXwagJul75V8GrCJdbzIVyVERU8LeB2GVHB0wKAQxlRwdMCvrf0rc/xasKnpW8VvJrwaelbn+PVBHxvGVHB0wKAQ+lbBa8m4HbpWwWvJlxiPR/CVRlRwdMCbpcRFTwtADiUERU8LeDbS9/6HK8mfE76VsGrCZ+TvvU5Xk3At5cRFTwtADiUvlXwagJul75V8GrCJdbzIVyVERU8LeB2GVHB0wKAQxlRwdMCfoL0rU/zasKvpG8VvJrwCelbn+PVBPwEGVHB0wKAQ+lbBa8m4HbpWwWvJlxiPR/CVRlRwdMCbpcRFTwtADiUERU8LeCHSN/6NK8mfCh9q+DVhA+lb32aVxPwQ2REBU8LAA6lbxW8moDbpW8VvJpwifV8CFdlRAVPC7hdRlTwtADgUEZUaued5QAAIABJREFU8LSAHyV963O8mlBL3yp4NaGWvvVpXk3Az5ERFTwtADiUvlXwagJul75V8GrCJdbzIVyVERU8LeB2GVHB0wKAQxlRwdMCfpr0rU/zasL/JX2r4NWEQvrW53g1AT9NRlTwtADgUPpWwasJuF36VsGrCZdYz4dwVUZU8LSA22VEBU8LAA5lRAVPC/iB0rc+zasJ/5K+VfBqwr+kb32aVxPwA2VEBU8LAA6lbxW8moDbpW8VvJpwifV8CFdlRAVPC7hdRlTwtADgUEZU8LSAnyl964RXE/4hfavg1YR/SN864dUE/EwZUcHTAoBD6VsFrybgdulbBa8mXGI9H8JVGVHB0wJulxEVPC0AOJQRFTwt4CdL3/o0ryb8j/StglcT/kf61gmvJuDHyogKnhYAHErfKng1AbdL3yp4NeES6/kQrsqICp4WcLuMqOBpAcChjKjgaQE/XPrWCa8mSOlbBa8mSOlbJ7yagB8uIyp4WgBwKH2r4NUE3C59q+DVhEus50O4KiMqeFrA7TKigqcFAIcyooKnBfx86VuHvJreW/pWwavp7aVvnfBqAn6+jKjgaQHAofStglcTcLv0rYJXEy6xng/hqoyo4GkBt8uICp4WABzKiAqeFvAS0rcOeTW9sfStglfTG0vfOuTVBLyEjKjgaQHAofStglcTcLv0rYJXEy6xng/hqoyo4GkBt8uICp4WABzKiAqeFvBC0rcOeTW9pfStglfTW0rfOuTVBLyQjKjgaQHAofStglcTcLv0rYJXEy6xng/hqoyo4GkBt8uICp4WABzKiAqeFvBy0rcOeTW9mfStglfTm0nfOuTVBLycjKjgaQHAofStglcTcLv0rYJXEy6xng/hqoyo4GkBt8uICp4WABzKiAqeFvCi0rcOeTW9jfStglfT20jfOufVBLyijKjgaQHAofStglcTcLv0rYJXEy6xng/hqoyo4GkBt8uICp4WABzKiAqeFvC60rfOeTW9gfStglfTG0jfOufVBLyujKjgaQHAofStglcTcLv0rYJXEy6xng/hqoyo4GkBt8uICp4WABzKiAqeFvDq0rcOeTW9uvStglfTS0vfOufVBLy6jKjgaQHAofStglcTcLv0rYJXEy6xng/hqoyo4GkBt8uICp4WABzKiAqeFvAG0rfOeTW9rvStglfT60rfOufVBLyBjKjgaQHAofStglcTcLv0rYJXEy6xng/hqoyo4GkBt8uICp4WABzKiAqeFvA20rfOeTW9ovStglfTK0rfOufVBLyNjKjgaQHAofStglcTcLv0rYJXEy6xng/hqoyo4GkBt8uICp4WABzKiAqeFvBm0rfOeTW9lvStglfTa0nfusSrCXgnGVHB0wKAQ+lbBa8m4HbpWwWvJlxiPR/CVRlRwdMCbpcRFTwtADiUERU8LeD9pG9d5dX0EtK3Cl5NLyF96yqvJuD9ZEQFTwsADqVvFbyagNulbxW8mnCJ9XwIV2VEBU8LuF1GVPC0AOBQRlTwtIB3lb51lVfTD5e+VfBq+uHSt67yagLeVUZU8LQA4FD6VsGrCbhd+lbBqwmXWM+HcFVGVPC0gNtlRAVPCwAOZUQFTwt4Y+lbv8er6WdK3yp4Nf1M6Vu/wasJeG8ZUcHTAoBD6VsFrybgdulbBa8mXGI9H8JVGVHB0wJulxEVPC0AOJQRFTwt4O2lb/0er6afJn2r4NX006Rv/R6vJuDtZUQFTwsADqVvFbyagNulbxW8mnCJ9XwIV2VEBU8LuF1GVPC0AOBQRlTwtAD8f+lbv82r6YdI3yp4Nf0Q6Vu/zasJwP+XERU8LQA4lL5V8GoCbpe+VfBqwiXW8yFclREVPC3gdhlRwdMCgEMZUcHTAvAP6Vu/zavp20vfKng1fXvpW7/NqwnAP2REBU8LAA6lbxW8moDbpW8VvJpwifV8CFdlRAVPC7hdRlTwtADgUEZU8LQA/Ev61p/g1fRdpW8VvJq+q/StP8GrCcC/ZEQFTwsADqVvFbyagNulbxW8mnCJ9XwIV2VEBU8LuF1GVPC0AOBQRlTwtAAU0rf+EK+mbyZ9q+DV9M2kb/0hXk0AChlRwdMCgEPpWwWvJuB26VsFryZcYj0fwlUZUcHTAm6XERU8LQA4lBEVPC0AH0rf+qO8mr6B9K2CV9M3kL7153g1AfiVjKjgaQHAofStglcTcLv0rYJXEy6xng/hqoyo4GkBt8uICp4WABzKiAqeFoDPSd/6o7ya/p70rYJX09+TvvVHeTUB+JyMqOBpAcCh9K2CVxNwu/StglcTLrGeD+GqjKjgaQG3y4gKnhYAHMqICp4WgBPpW3+aV9Pt0rcKXk33St/6Al5NAE5kRAVPCwAOpW8VvJqA26VvFbyacIn1fAhXZUQFTwu4XUZU8LQA4FBGVPC0AJxL3/oaXk23SN8qeDV9vfStr+HVBOCSjKjgaQHAofStglcTcLv0rYJXEy6xng/hqoyo4GkBt8uICp4WABzKiAqeFoDfkL71lbyavkb6VsGr6Qukb30xryYAvyEjKnhaAHAofavg1QTcLn2r4NWES6znQ7gqIyp4WsDtMqKCpwUAhzKigqcF4Lelb93Cq+kPSd8qeDX9IelbX8+rCcCfkBEVPC0AOJS+VfBqAm6XvlXwasIl1vMhXJURFTwt4HYZUcHTAoBDGVHB0wLw56Rv/Q1eTYfStwpeTYfSt/4GryYAf05GVPC0AOBQ+lbBqwm4XfpWwasJl1jPh3BVRlTwtIDbZUQFTwsADmVEBU8LwBdI3/o2vJr+JX2r4NX0L+lb34ZXE4AvkBEVPC0AOJS+VfBqAm6XvlXwasIl1vMhXJURFTwt4HYZUcHTAoBDGVHB0wLwxdK38Nu8mgB8sYyo4GkBwKH0rYJXE3C79K2CVxMusZ4P4aqMqOBpAbfLiAqeFgAcyogKnhaAu6Rv4ZBXE4C7ZEQFTwsADqVvFbyagNulbxW8mnCJ9XwIV2VEBU8LuF1GVPC0AOBQRlTwtADcLn0LH/JqAnC7jKjgaQHAofStglcTcLv0rYJXEy5x/vsfAQAAAAAAAAAA3MX5738EAAAAAAAAAABwF+e//xEAAAAAAAAAAMBdnP/+RwAAAAAAAAAAAHdx/vsfAQAAAAAAAAAA3MX5738EAAAAAAAAAABwF+e//xEAAAAAAAAAAMBdnP/+RwAAAAAAAAAAAHdx/vsfAQAAAAAAAAAA3MV6PoSrMqKCpwXcLiMqeFoAcCgjKnhaAN5S+lbBqwnAW8qICp4WABxK3yp4NQF4CdbzIVyVERU8LeB2GVHB0wKAQxlRwdMC8JbStwpeTQDeUkZU8LQA4FD6VsGrCcBLsJ4P4aqMqOBpAbfLiAqeFgAcyogKnhaAt5S+VfBqAvCWMqKCpwUAh9K3Cl5NAF6C9XwIV2VEBU8LuF1GVPC0AOBQRlTwtAC8pfStglcTgLeUERU8LQA4lL5V8GoC8BKs50O4KiMqeFrA7TKigqcFAIcyooKnBeAtpW8VvJoAvKWMqOBpAcCh9K2CVxOAl2A9H8JVGVHB0wJulxEVPC0AOJQRFTwtAG8pfavg1QTgLWVEBU8LAA6lbxW8mgC8BOv5EK7KiAqeFnC7jKjgaQHAoYyo4GkBeEvpWwWvJgBvKSMqeFoAcCh9q+DVBOAlWM+HcFVGVPC0gNtlRAVPCwAOZUQFTwvAW0rfKng1AXhLGVHB0wKAQ+lbBa8mAC/Bej6EqzKigqcF3C4jKnhaAHAoIyp4WgDeUvpWwasJwFvKiAqeFgAcSt8qeDUBeAnW8yFclREVPC3gdhlRwdMCgEMZUcHTAvCW0rcKXk0A3lJGVPC0AOBQ+lbBqwnAS7CeD+GqjKjgaQG3y4gKnhYAHMqICp4WgLeUvlXwagLwljKigqcFAIfStwpeTQBegvV8CFdlRAVPC7hdRlTwtADgUEZU8LQAvKX0rYJXE4C3lBEVPC0AOJS+VfBqAvASrOdDuCojKnhawO0yooKnBQCHMqKCpwXgLaVvFbyaALyljKjgaQHAofStglcTgJdgPR/CVRlRwdMCbpcRFTwtADiUERU8LQBvKX2r4NUE4C1lRAVPCwAOpW8VvJoAvATr+RCuyogKnhZwu4yo4GkBwKGMqOBpAXhL6VsFryYAbykjKnhaAHAofavg1QTgJVjPh3BVRlTwtIDbZUQFTwsADmVEBU8LwFtK3yp4NQF4SxlRwdMCgEPpWwWvJgAvwXo+hKsyooKnBdwuIyp4WgBwKCMqeFoA3lL6VsGrCcBbyogKnhYAHErfKng1AXgJ1vMhXJURFTwt4HYZUcHTAoBDGVHB0wLwltK3Cl5NAN5SRlTwtADgUPpWwasJwEuwng/hqoyo4GkBt8uICp4WABzKiAqeFoC3lL5V8GoC8JYyooKnBQCH0rcKXk0AXoL1fAhXZUQFTwu4XUZU8LQA4FBGVPC0ALyl9K2CVxOAt5QRFTwtADiUvlXwagLwEqznQ7gqIyp4WsDtMqKCpwUAhzKigqcF4C2lbxW8mgC8pYyo4GkBwKH0rYJXE4CXYD0fwlUZUcHTAm6XERU8LQA4lBEVPC0Abyl9q+DVBOAtZUQFTwsADqVvFbyaALwE6/kQrsqICp4WcLuMqOBpAcChjKjgaQF4S+lbBa8mAG8pIyp4WgBwKH2r4NUE4CVYz4dwVUZU8LSA22VEBU8LAA5lRAVPC8BbSt8qeDUBeEsZUcHTAoBD6VsFryYAL8F6PoSrMqKCpwXcLiMqeFoAcCgjKnhaAN5S+lbBqwnAW8qICp4WABxK3yp4NQF4CdbzIVyVERU8LeB2GVHB0wKAQxlRwdMC8JbStwpeTQDeUkZU8LQA4FD6VsGrCcBLsJ4P4aqMqOBpAbfLiAqeFgAcyogKnhaAt5S+VfBqAvCWMqKCpwUAh9K3Cl5NAF6C9XwIV2VEBU8LuF1GVPC0AOBQRlTwtAC8pfStglcTgLeUERU8LQA4lL5V8GoC8BKs50O4KiMqeFrA7TKigqcFAIcyooKnBeAtpW8VvJoAvKWMqOBpAcCh9K2CVxOAl2A9H8JVGVHB0wJulxEVPC0AOJQRFTwtAG8pfavg1QTgLWVEBU8LAA6lbxW8mgC8BOv5EK7KiAqeFnC7jKjgaQHAoYyo4GkBeEvpWwWvJgBvKSMqeFoAcCh9q+DVBOAlWM+HcFVGVPC0gNtlRAVPCwAOZUQFTwvAW0rfKng1AXhLGVHB0wKAQ+lbBa8mAC/Bej6EqzKigqcF3C4jKnhaAHAoIyp4WgDeUvpWwasJwFvKiAqeFgAcSt8qeDUBeAnW8yFclREVPC3gdhlRwdMCgEMZUcHTAvCW0rcKXk0A3lJGVPC0AOBQ+lbBqwnAS7CeD+GqjKjgaQG3y4gKnhYAHMqICp4WgLeUvlXwagLwljKigqcFAIfStwpeTQBegvV8CFdlRAVPC7hdRlTwtADgUEZU8LQAvKX0rYJXE4C3lBEVPC0AOJS+VfBqAvASrOdDuCojKnhawO0yooKnBQCHMqKCpwXgLaVvFbyaALyljKjgaQHAofStglcTgJdgPR/CVRlRwdMCbpcRFTwtADiUERU8LQBvKX2r4NUE4C1lRAVPCwAOpW8VvJoAvATr+RCuyogKnhZwu4yo4GkBwKGMqOBpAXhL6VsFryYAbykjKnhaAHAofavg1QTgJVjPh3BVRlTwtIDbZUQFTwsADmVEBU8LwFtK3yp4NQF4SxlRwdMCgEPpWwWvJgAvwXo+hKsyooKnBdwuIyp4WgBwKCMqeFoA3lL6VsGrCcBbyogKnhYAHErfKng1AXgJ1vMhXJURFTwt4HYZUcHTAoBDGVHB0wLwltK3Cl5NAN5SRlTwtADgUPpWwasJwEuwng/hqoyo4GkBt8uICp4WABzKiAqeFoC3lL5V8GoC8JYyooKnBQCH0rcKXk0AXoL1fAhXZUQFTwu4XUZU8LQA4FBGVPC0ALyl9K2CVxOAt5QRFTwtADiUvlXwagLwEqznQ7gqIyp4WsDtMqKCpwUAhzKigqcF4C2lbxW8mgC8pYyo4GkBwKH0rYL/H3twbG0rFsRQUDIH7J8SUXR4nQTkha0J4K02uAYGZ1dduwB8gnVuwq9S0cBtAa9LRQO3BQAPpaKB2wKwpBy3Br52AVhSKhq4LQB4KMetga9dAD7BOjfhV6lo4LaA16WigdsCgIdS0cBtAVhSjlsDX7sALCkVDdwWADyU49bA1y4An2Cdm/CrVDRwW8DrUtHAbQHAQ6lo4LYALCnHrYGvXQCWlIoGbgsAHspxa+BrF4BPsM5N+FUqGrgt4HWpaOC2AOChVDRwWwCWlOPWwNcuAEtKRQO3BQAP5bg18LULwCdY5yb8KhUN3BbwulQ0cFsA8FAqGrgtAEvKcWvgaxeAJaWigdsCgIdy3Br42gXgE6xzE36VigZuC3hdKhq4LQB4KBUN3BaAJeW4NfC1C8CSUtHAbQHAQzluDXztAvAJ1rkJv0pFA7cFvC4VDdwWADyUigZuC8CSctwa+NoFYEmpaOC2AOChHLcGvnYB+ATr3IRfpaKB2wJel4oGbgsAHkpFA7cFYEk5bg187QKwpFQ0cFsA8FCOWwNfuwB8gnVuwq9S0cBtAa9LRQO3BQAPpaKB2wKwpBy3Br52AVhSKhq4LQB4KMetga9dAD7BOjfhV6lo4LaA16WigdsCgIdS0cBtAVhSjlsDX7sALCkVDdwWADyU49bA1y4An2Cdm/CrVDRwW8DrUtHAbQHAQ6lo4LYALCnHrYGvXQCWlIoGbgsAHspxa+BrF4BPsM5N+FUqGrgt4HWpaOC2AOChVDRwWwCWlOPWwNcuAEtKRQO3BQAP5bg18LULwCdY5yb8KhUN3BbwulQ0cFsA8FAqGrgtAEvKcWvgaxeAJaWigdsCgIdy3Br42gXgE6xzE36VigZuC3hdKhq4LQB4KBUN3BaAJeW4NfC1C8CSUtHAbQHAQzluDXztAvAJ1rkJv0pFA7cFvC4VDdwWADyUigZuC8CSctwa+NoFYEmpaOC2AOChHLcGvnYB+ATr3IRfpaKB2wJel4oGbgsAHkpFA7cFYEk5bg187QKwpFQ0cFsA8FCOWwNfuwB8gnVuwq9S0cBtAa9LRQO3BQAPpaKB2wKwpBy3Br52AVhSKhq4LQB4KMetga9dAD7BOjfhV6lo4LaA16WigdsCgIdS0cBtAVhSjlsDX7sALCkVDdwWADyU49bA1y4An2Cdm/CrVDRwW8DrUtHAbQHAQ6lo4LYALCnHrYGvXQCWlIoGbgsAHspxa+BrF4BPsM5N+FUqGrgt4HWpaOC2AOChVDRwWwCWlOPWwNcuAEtKRQO3BQAP5bg18LULwCdY5yb8KhUN3BbwulQ0cFsA8FAqGrgtAEvKcWvgaxeAJaWigdsCgIdy3Br42gXgE6xzE36VigZuC3hdKhq4LQB4KBUN3BaAJeW4NfC1C8CSUtHAbQHAQzluDXztAvAJ1rkJv0pFA7cFvC4VDdwWADyUigZuC8CSctwa+NoFYEmpaOC2AOChHLcGvnYB+ATr3IRfpaKB2wJel4oGbgsAHkpFA7cFYEk5bg187QKwpFQ0cFsA8FCOWwNfuwB8gnVuwq9S0cBtAa9LRQO3BQAPpaKB2wKwpBy3Br52AVhSKhq4LQB4KMetga9dAD7BOjfhV6lo4LaA16WigdsCgIdS0cBtAVhSjlsDX7sALCkVDdwWADyU49bA1y4An2Cdm/CrVDRwW8DrUtHAbQHAQ6lo4LYALCnHrYGvXQCWlIoGbgsAHspxa+BrF4BPsM5N+FUqGrgt4HWpaOC2AOChVDRwWwCWlOPWwNcuAEtKRQO3BQAP5bg18LULwCdY5yb8KhUN3BbwulQ0cFsA8FAqGrgtAEvKcWvgaxeAJaWigdsCgIdy3Br42gXgE6xzE36VigZuC3hdKhq4LQB4KBUN3BaAJeW4NfC1C8CSUtHAbQHAQzluDXztAvAJ1rkJv0pFA7cFvC4VDdwWADyUigZuC8CSctwa+NoFYEmpaOC2AOChHLcGvnYB+ATr3IRfpaKB2wJel4oGbgsAHkpFA7cFYEk5bg187QKwpFQ0cFsA8FCOWwNfuwB8gnVuwq9S0cBtAa9LRQO3BQAPpaKB2wKwpBy3Br52AVhSKhq4LQB4KMetga9dAD7BOjfhV6lo4LaA16WigdsCgIdS0cBtAVhSjlsDX7sALCkVDdwWADyU49bA1y4An2Cdm/CrVDRwW8DrUtHAbQHAQ6lo4LYALCnHrYGvXQCWlIoGbgsAHspxa+BrF4BPsM5N+FUqGrgt4HWpaOC2AOChVDRwWwCWlOPWwNcuAEtKRQO3BQAP5bg18LULwCdY5yb8KhUN3BbwulQ0cFsA8FAqGrgtAEvKcWvgaxeAJaWigdsCgIdy3Br42gXgE6xzE36VigZuC3hdKhq4LQB4KBUN3BaAJeW4NfC1C8CSUtHAbQHAQzluDXztAvAJ1rkJv0pFA7cFvC4VDdwWADyUigZuC8CSctwa+NoFYEmpaOC2AOChHLcGvnYB+ATr3IRfpaKB2wJel4oGbgsAHkpFA7cFYEk5bg187QKwpFQ0cFsA8FCOWwNfuwB8gnVuwq9S0cBtAa9LRQO3BQAPpaKB2wKwpBy3Br52AVhSKhq4LQB4KMetga9dAD7BOjfhV6lo4LaA16WigdsCgIdS0cBtAVhSjlsDX7sALCkVDdwWADyU49bA1y4An2Cdm/CrVDRwW8DrUtHAbQHAQ6lo4LYALCnHrYGvXQCWlIoGbgsAHspxa+BrF4BPsM5N+FUqGrgt4HWpaOC2AOChVDRwWwCWlOPWwNcuAEtKRQO3BQAP5bg18LULwCdY5yb8KhUN3BbwulQ0cFsA8FAqGrgtAEvKcWvgaxeAJaWigdsCgIdy3Br42gXgE6xzE36VigZuC3hdKhq4LQB4KBUN3BaAJeW4NfC1C8CSUtHAbQHAQzluDXztAvAJ1rkJv0pFA7cFvC4VDdwWADyUigZuC8CSctwa+NoFYEmpaOC2AOChHLcGvnYB+ATr3IRfpaKB2wJel4oGbgsAHkpFA7cFYEk5bg187QKwpFQ0cFsA8FCOWwNfuwB8gnVuwq9S0cBtAa9LRQO3BQAPpaKB2wKwpBy3Br52AVhSKhq4LQB4KMetga9dAD7BOjfhV6lo4LaA16WigdsCgIdS0cBtAVhSjlsDX7sALCkVDdwWADyU49bA1y4An2Cdm/CrVDRwW8DrUtHAbQHAQ6lo4LYALCnHrYGvXQCWlIoGbgsAHspxa+BrF4BPsM5N+FUqGrgt4HWpaOC2AOChVDRwWwCWlOPWwNcuAEtKRQO3BQAP5bg18LULwCdY5yb8KhUN3BbwulQ0cFsA8FAqGrgtAEvKcWvgaxeAJaWigdsCgIdy3Br42gXgE6xzE36VigZuC3hdKhq4LQB4KBUN3BaAJeW4NfC1C8CSUtHAbQHAQzluDXztAvAJ1rkJv0pFA7cFvC4VDdwWADyUigZuC8CSctwa+NoFYEmpaOC2AOChHLcGvnYB+ATr3IRfpaKB2wJel4oGbgsAHkpFA7cFYEk5bg187QKwpFQ0cFsA8FCOWwNfuwB8gnVuwq9S0cBtAa9LRQO3BQAPpaKB2wKwpBy3Br52AVhSKhq4LQB4KMetga9dAD7BOjfhV6lo4LaA16WigdsCgIdS0cBtAVhSjlsDX7sALCkVDdwWADyU49bA1y4An2Cdm/CrVDRwW8DrUtHAbQHAQ6lo4LYALCnHrYGvXQCWlIoGbgsAHspxa+BrF4BPsM5N+FUqGrgt4HWpaOC2AOChVDRwWwCWlOPWwNcuAEtKRQO3BQAP5bg18LULwCdY5yb8KhUN3BbwulQ0cFsA8FAqGrgtAEvKcWvgaxeAJaWigdsCgIdy3Br42gXgE6xzE36VigZuC3hdKhq4LQB4KBUN3BaAJeW4NfC1C8CSUtHAbQHAQzluDXztAvAJ1rkJv0pFA7cFvC4VDdwWADyUigZuC8CSctwa+NoFYEmpaOC2AOChHLcGvnYB+ATr3IRfpaKB2wJel4oGbgsAHkpFA7cFYEk5bg187QKwpFQ0cFsA8FCOWwNfuwB8gnVuwq9S0cBtAa9LRQO3BQAPpaKB2wKwpBy3Br52AVhSKhq4LQB4KMetga9dAD7BOjfhV6lo4LaA16WigdsCgIdS0cBtAVhSjlsDX7sALCkVDdwWADyU49bA1y4An2Cdm/CrVDRwW8DrUtHAbQHAQ6lo4LYALCnHrYGvXQCWlIoGbgsAHspxa+BrF4BPsM5N+FUqGrgt4HWpaOC2AOChVDRwWwCWlOPWwNcuAEtKRQO3BQAP5bg18LULwCdY5yb8KhUN3BbwulQ0cFsA8FAqGrgtAEvKcWvgaxeAJaWigdsCgIdy3Br42gXgE6xzE36VigZuC3hdKhq4LQB4KBUN3BaAJeW4NfC1C8CSUtHAbQHAQzluDXztAvAJ1rkJv0pFA7cFvC4VDdwWADyUigZuC8CSctwa+NoFYEmpaOC2AOChHLcGvnYB+ATr3IRfpaKB2wJel4oGbgsAHkpFA7cFYEk5bg187QKwpFQ0cFsA8FCOWwNfuwB8gnVuwq9S0cBtAa9LRQO3BQAPpaKB2wKwpBy3Br52AVhSKhq4LQB4KMetga9dAD7BOjfhV6lo4LaA16WigdsCgIdS0cBtAVhSjlsDX7sALCkVDdwWADyU49bA1y4An2Cdm/CrVDRwW8DrUtHAbQHAQ6lo4LYALCnHrYGvXQCWlIoGbgsAHspxa+BrF4BPsM5N+FUqGrgt4HWpaOC2AOChVDRwWwCWlOPWwNcuAEtKRQO3BQAP5bg18LULwCdY5yb8KhUN3BbwulQ0cFsA8FAqGrgtAEvKcWvgaxeAJaWigdsCgIdy3Br42gXgE6xzE36VigZuC3gFqlf4AAAgAElEQVRdKhq4LQB4KBUN3BaAJeW4NfC1C8CSUtHAbQHAQzluDXztAvAJ1rkJv0pFA7cFvC4VDdwWADyUigZuC8CSctwa+NoFYEmpaOC2AOChHLcGvnYB+ATr3IRfpaKB2wJel4oGbgsAHkpFA7cFYEk5bg187QKwpFQ0cFsA8FCOWwNfuwB8gnVuwq9S0cBtAa9LRQO3BQAPpaKB2wKwpBy3Br52AVhSKhq4LQB4KMetga9dAD7BOjfhV6lo4LaA16WigdsCgIdS0cBtAVhSjlsDX7sALCkVDdwWADyU49bA1y4An2Cdm/CrVDRwW8DrUtHAbQHAQ6lo4LYALCnHrYGvXQCWlIoGbgsAHspxa+BrF4BPsM5N+FUqGrgt4HWpaOC2AOChVDRwWwCWlOPWwNcuAEtKRQO3BQAP5bg18LULwCdY5yb8KhUN3BbwulQ0cFsA8FAqGrgtAEvKcWvgaxeAJaWigdsCgIdy3Br42gXgE6xzE36VigZuC3hdKhq4LQB4KBUN3BaAJeW4NfC1C8CSUtHAbQHAQzluDXztAvAJ1rkJv0pFA7cFvC4VDdwWADyUigZuC8CSctwa+NoFYEmpaOC2AOChHLcGvnYB+ATr3IRfpaKB2wJel4oGbgsAHkpFA7cFYEk5bg187QKwpFQ0cFsA8FCOWwNfuwB8gnVuwq9S0cBtAa9LRQO3BQAPpaKB2wKwpBy3Br52AVhSKhq4LQB4KMetga9dAD7BOjfhV6lo4LaA16WigdsCgIdS0cBtAVhSjlsDX7sALCkVDdwWADyU49bA1y4An2Cdm/CrVDRwW8DrUtHAbQHAQ6lo4LYALCnHrYGvXQCWlIoGbgsAHspxa+BrF4BPsM5N+FUqGrgt4HWpaOC2AOChVDRwWwCWlOPWwNcuAEtKRQO3BQAP5bg18LULwCdY5yb8KhUN3BbwulQ0cFsA8FAqGrgtAEvKcWvgaxeAJaWigdsCgIdy3Br42gXgE6xzE36VigZuC3hdKhq4LQB4KBUN3BaAJeW4NfC1C8CSUtHAbQHAQzluDXztAvAJ1rkJv0pFA7cFvC4VDdwWADyUigZuC8CSctwa+NoFYEmpaOC2AOChHLcGvnYB+ATr3IRfpaKB2wJel4oGbgsAHkpFA7cFYEk5bg187QKwpFQ0cFsA8FCOWwNfuwB8gnVuwq9S0cBtAa9LRQO3BQAPpaKB2wKwpBy3Br52AVhSKhq4LQB4KMetga9dAD7BOjfhV6lo4LaA16WigdsCgIdS0cBtAVhSjlsDX7sALCkVDdwWADyU49bA1y4An2Cdm/CrVDRwW8DrUtHAbQHAQ6lo4LYALCnHrYGvXQCWlIoGbgsAHspxa+BrF4BPsM5N+FUqGrgt4HWpaOC2AOChVDRwWwCWlOPWwNcuAEtKRQO3BQAP5bg18LULwCdY5yb8KhUN3BbwulQ0cFsA8FAqGrgtAEvKcWvgaxeAJaWigdsCgIdy3Br42gXgE6xzE36VigZuC3hdKhq4LQB4KBUN3BaAJeW4NfC1C8CSUtHAbQHAQzluDXztAvAJ1rkJv0pFA7cFvC4VDdwWADyUigZuC8CSctwa+NoFYEmpaOC2AOChHLcGvnYB+ATr3IRfpaKB2wJel4oGbgsAHkpFA7cFYEk5bg187QKwpFQ0cFsA8FCOWwNfuwB8gnVuwq9S0cBtAa9LRQO3BQAPpaKB2wKwpBy3Br52AVhSKhq4LQB4KMetga9dAD7BOjfhV6lo4LaA16WigdsCgIdS0cBtAVhSjlsDX7sALCkVDdwWADyU49bA1y4An2Cdm/CrVDRwW8DrUtHAbQHAQ6lo4LYALCnHrYGvXQCWlIoGbgsAHspxa+BrF4BPsM5N+FUqGrgt4HWpaOC2AOChVDRwWwCWlOPWwNcuAEtKRQO3BQAP5bg18LULwCdY5yb8KhUN3BbwulQ0cFsA8FAqGrgtAEvKcWvgaxeAJaWigdsCgIdy3Br42gXgE6xzE36VigZuC3hdKhq4LQB4KBUN3BaAJeW4NfC1C8CSUtHAbQHAQzluDXztAvAJ1rkJv0pFA7cFvC4VDdwWADyUigZuC8CSctwa+NoFYEmpaOC2AOChHLcGvnYB+ATr3IRfpaKB2wJel4oGbgsAHkpFA7cFYEk5bg187QKwpFQ0cFsA8FCOWwNfuwB8gnVuwq9S0cBtAa9LRQO3BQAPpaKB2wKwpBy3Br52AVhSKhq4LQB4KMetga9dAD7BOjfhV6lo4LaA16WigdsCgIdS0cBtAVhSjlsDX7sALCkVDdwWADyU49bA1y4An2Cdm/CrVDRwW8DrUtHAbQHAQ6lo4LYALCnHrYGvXQCWlIoGbgsAHspxa+BrF4BPsM5N+FUqGrgt4HWpaOC2AOChVDRwWwCWlOPWwNcuAEtKRQO3BQAP5bg18LULwCdY5yb8KhUN3BbwulQ0cFsA8FAqGrgtAEvKcWvgaxeAJaWigdsCgIdy3Br42gXgE6xzE36VigZuC3hdKhq4LQB4KBUN3BaAJeW4NfC1C8CSUtHAbQHAQzluDXztAvAJ1rkJv0pFA7cFvC4VDdwWADyUigZuC8CSctwa+NoFYEmpaOC2AOChHLcGvnYB+ATr3IRfpaKB2wJel4oGbgsAHkpFA7cFYEk5bg187QKwpFQ0cFsA8FCOWwNfuwB8gnVuwq9S0cBtAa9LRQO3BQAPpaKB2wKwpBy3Br52AVhSKhq4LQB4KMetga9dAD7BOjfhV6lo4LaA16WigdsCgIdS0cBtAVhSjlsDX7sALCkVDdwWADyU49bA1y4An2Cdm/CrVDRwW8DrUtHAbQHAQ6lo4LYALCnHrYGvXQCWlIoGbgsAHspxa+BrF4BPsM5N+FUqGrgt4HWpaOC2AOChVDRwWwCWlOPWwNcuAEtKRQO3BQAP5bg18LULwCdY5yb8KhUN3BbwulQ0cFsA8FAqGrgtAEvKcWvgaxeAJaWigdsCgIdy3Br42gXgE6xzE36VigZuC3hdKhq4LQB4KBUN3BaAJeW4NfC1C8CSUtHAbQHAQzluDXztAvAJ1rkJv0pFA7cFvC4VDdwWADyUigZuC8CSctwa+NoFYEmpaOC2AOChHLcGvnYB+ATr3IRfpaKB2wJel4oGbgsAHkpFA7cFYEk5bg187QKwpFQ0cFsA8FCOWwNfuwB8gnVuwq9S0cBtAa9LRQO3BQAPpaKB2wKwpBy3Br52AVhSKhq4LQB4KMetga9dAD7BOjfhV6lo4LaA16WigdsCgIdS0cBtAVhSjlsDX7sALCkVDdwWADyU49bA1y4An2Cdm/CrVDRwW8DrUtHAbQHAQ6lo4LYALCnHrYGvXQCWlIoGbgsAHspxa+BrF4BPsM5N+FUqGrgt4HWpaOC2AOChVDRwWwCWlOPWwNcuAEtKRQO3BQAP5bg18LULwCdY5yb8KhUN3BbwulQ0cFsA8FAqGrgtAEvKcWvgaxeAJaWigdsCgIdy3Br42gXgE6xzE36VigZuC3hdKhq4LQB4KBUN3BaAJeW4NfC1C8CSUtHAbQHAQzluDXztAvAJ1rkJv0pFA7cFvC4VDdwWADyUigZuC8CSctwa+NoFYEmpaOC2AOChHLcGvnYB+ATr3IRfpaKB2wJel4oGbgsAHkpFA7cFYEk5bg187QKwpFQ0cFsA8FCOWwNfuwB8gnVuwq9S0cBtAa9LRQO3BQAPpaKB2wKwpBy3Br52AVhSKhq4LQB4KMetga9dAD7BOjfhV6lo4LaA16WigdsCgIdS0cBtAVhSjlsDX7sALCkVDdwWADyU49bA1y4An2Cdm/CrVDRwW8DrUtHAbQHAQ6lo4LYALCnHrYGvXQCWlIoGbgsAHspxa+BrF4BPsM5N+FUqGrgt4HWpaOC2AOChVDRwWwCWlOPWwNcuAEtKRQO3BQAP5bg18LULwCdY5yb8KhUN3BbwulQ0cFsA8FAqGrgtAEvKcWvgaxeAJaWigdsCgIdy3Br42gXgE6xzE36VigZuC3hdKhq4LQB4KBUN3BaAJeW4NfC1C8CSUtHAbQHAQzluDXztAvAJ1rkJv0pFA7cFvC4VDdwWADyUigZuC8CSctwa+NoFYEmpaOC2AOChHLcGvnYB+ATr3IRfpaKB2wJel4oGbgsAHkpFA7cFYEk5bg187QKwpFQ0cFsA8FCOWwNfuwB8gnVuwq9S0cBtAa9LRQO3BQAPpaKB2wKwpBy3Br52AVhSKhq4LQB4KMetga9dAD7BOjfhV6lo4LaA16WigdsCgIdS0cBtAVhSjlsDX7sALCkVDdwWADyU49bA1y4An2Cdm/CrVDRwW8DrUtHAbQHAQ6lo4LYALCnHrYGvXQCWlIoGbgsAHspxa+BrF4BPsM5N+FUqGrgt4HWpaOC2AOChVDRwWwCWlOPWwNcuAEtKRQO3BQAP5bg18LULwCdY5yb8KhUN3BbwulQ0cFsA8FAqGrgtAEvKcWvgaxeAJaWigdsCgIdy3Br42gXgE6xzE36VigZuC3hdKhq4LQB4KBUN3BaAJeW4NfC1C8CSUtHAbQHAQzluDXztAvAJ1rkJv0pFA7cFvC4VDdwWADyUigZuC8CSctwa+NoFYEmpaOC2AOChHLcGvnYB+ATr3IRfpaKB2wJel4oGbgsAHkpFA7cFYEk5bg187QKwpFQ0cFsA8FCOWwNfuwB8gnVuwq9S0cBtAa9LRQO3BQAPpaKB2wKwpBy3Br52AVhSKhq4LQB4KMetga9dAD7BOjfhV6lo4LaA16WigdsCgIdS0cBtAVhSjlsDX7sALCkVDdwWADyU49bA1y4An2Cdm/CrVDRwW8DrUtHAbQHAQ6lo4LYALCnHrYGvXQCWlIoGbgsAHspxa+BrF4BPsM5N+FUqGrgt4HWpaOC2AOChVDRwWwCWlOPWwNcuAEtKRQO3BQAP5bg18LULwCdY5yb8KhUN3BbwulQ0cFsA8FAqGrgtAEvKcWvgaxeAJaWigdsCgIdy3Br42gXgE6xzE36VigZuC3hdKhq4LQB4KBUN3BaAJeW4NfC1C8CSUtHAbQHAQzluDXztAvAJ1rkJv0pFA7cFvC4VDdwWADyUigZuC8CSctwa+NoFYEmpaOC2AOChHLcGvnYB+ATr3IRfpaKB2wJel4oGbgsAHkpFA7cFYEk5bg187QKwpFQ0cFsA8FCOWwNfuwB8gnVuwq9S0cBtAa9LRQO3BQAPpaKB2wKwpBy3Br52AVhSKhq4LQB4KMetga9dAD7BOjfhV6lo4LaA16WigdsCgIdS0cBtAVhSjlsDX7sALCkVDdwWADyU49bA1y4An2Cdm/CrVDRwW8DrUtHAbQHAQ6lo4LYALCnHrYGvXQCWlIoGbgsAHspxa+BrF4BPsM5N+FUqGrgt4HWpaOC2AOChVDRwWwCWlOPWwNcuAEtKRQO3BQAP5bg18LULwCdY5yb8KhUN3BbwulQ0cFsA8FAqGrgtAEvKcWvgaxeAJaWigdsCgIdy3Br42gXgE6xzE36VigZuC3hdKhq4LQB4KBUN3BaAJeW4NfC1C8CSUtHAbQHAQzluDXztAvAJzr//BAAAAAAAAAAA8Bbn338CAAAAAAAAAAB4i/PvPwEAAAAAAAAAALzF+fefAAAAAAAAAAAA3uL8+08AAAAAAAAAAABvcf79JwAAAAAAAAAAgLc4//4TAAAAAAAAAADAW5x//wkAAAAAAAAAAOAtzr//BAAAAAAAAAAA8Bbr3ATgK1LRwG0BwEOpaOC2ACwpx62Br10AlpSKBm4LAADgD+vcBOArUtHAbQHAQ6lo4LYALCnHrYGvXQCWlIoGbgsAAOAP69wE4CtS0cBtAcBDqWjgtgAsKcetga9dAJaUigZuCwAA4A/r3ATgK1LRwG0BwEOpaOC2ACwpx62Br10AlpSKBm4LAADgD+vcBOArUtHAbQHAQ6lo4LYALCnHrYGvXQCWlIoGbgsAAOAP69wE4CtS0cBtAcBDqWjgtgAsKcetga9dAJaUigZuCwAA4A/r3ATgK1LRwG0BwEOpaOC2ACwpx62Br10AlpSKBm4LAADgD+vcBOArUtHAbQHAQ6lo4LYALCnHrYGvXQCWlIoGbgsAAOAP69wE4CtS0cBtAcBDqWjgtgAsKcetga9dAJaUigZuCwAA4A/r3ATgK1LRwG0BwEOpaOC2ACwpx62Br10AlpSKBm4LAADgD+vcBOArUtHAbQHAQ6lo4LYALCnHrYGvXQCWlIoGbgsAAOAP69wE4CtS0cBtAcBDqWjgtgAsKcetga9dAJaUigZuCwAA4A/r3ATgK1LRwG0BwEOpaOC2ACwpx62Br10AlpSKBm4LAADgD+vcBOArUtHAbQHAQ6lo4LYALCnHrYGvXQCWlIoGbgsAAOAP69wE4CtS0cBtAcBDqWjgtgAsKcetga9dAJaUigZuCwAA4A/r3ATgK1LRwG0BwEOpaOC2ACwpx62Br10AlpSKBm4LAADgD+vcBOArUtHAbQHAQ6lo4LYALCnHrYGvXQCWlIoGbgsAAOAP69wE4CtS0cBtAcBDqWjgtgAsKcetga9dAJaUigZuCwAA4A/r3ATgK1LRwG0BwEOpaOC2ACwpx62Br10AlpSKBm4LAADgD+vcBOArUtHAbQHAQ6lo4LYALCnHrYGvXQCWlIoGbgsAAOAP69wE4CtS0cBtAcBDqWjgtgAsKcetga9dAJaUigZuCwAA4A/r3ATgK1LRwG0BwEOpaOC2ACwpx62Br10AlpSKBm4LAADgD+vcBOArUtHAbQHAQ6lo4LYALCnHrYGvXQCWlIoGbgsAAOAP69wE4CtS0cBtAcBDqWjgtgAsKcetga9dAJaUigZuCwAA4A/r3ATgK1LRwG0BwEOpaOC2ACwpx62Br10AlpSKBm4LAADgD+vcBOArUtHAbQHAQ6lo4LYALCnHrYGvXQCWlIoGbgsAAOAP69wE4CtS0cBtAcBDqWjgtgAsKcetga9dAJaUigZuCwAA4A/r3ATgK1LRwG0B+J89OKYCEAhiKJi04AsVK29NgC/qIIC3BS33Z/BRKhq4LQBLynFr4GsXgCWlooHbAgAAeLHOTQD+IhUN3BYAfJSKBm4LwJJy3Br42gVgSalo4LYAAABerHMTgL9IRQO3BQAfpaKB2wKwpBy3Br52AVhSKhq4LQAAgBfr3ATgL1LRwG0BwEepaOC2ACwpx62Br10AlpSKBm4LAADgxTo3AfiLVDRwWwDwUSoauC0AS8pxa+BrF4AlpaKB2wIAAHixzk0A/iIVDdwWAHyUigZuC8CSctwa+NoFYEmpaOC2AAAAXqxzE4C/SEUDtwUAH6WigdsCsKQctwa+dgFYUioauC0AAIAX69wE4C9S0cBtAcBHqWjgtgAsKcetga9dAJaUigZuCwAA4MU6NwH4i1Q0cFsA8FEqGrgtAEvKcWvgaxeAJaWigdsCAAB4sc5NAP4iFQ3cFgB8lIoGbgvAknLcGvjaBWBJqWjgtgAAAF6scxOAv0hFA7cFAB+looHbArCkHLcGvnYBWFIqGrgtAACAF+vcBOAvUtHAbQHAR6lo4LYALCnHrYGvXQCWlIoGbgsAAODFOjcB+ItUNHBbAPBRKhq4LQBLynFr4GsXgCWlooHbAgAAeLHOTQD+IhUN3BYAfJSKBm4LwJJy3Br42gVgSalo4LYAAABerHMTgL9IRQO3BQAfpaKB2wKwpBy3Br52AVhSKhq4LQAAgBfr3ATgL1LRwG0BwEepaOC2ACwpx62Br10AlpSKBm4LAADgxTo3AfiLVDRwWwDwUSoauC0AS8pxa+BrF4AlpaKB2wIAAHixzk0A/iIVDdwWAHyUigZuC8CSctwa+NoFYEmpaOC2AAAAXqxzE4C/SEUDtwUAH6WigdsCsKQctwa+dgFYUioauC0AAIAX69wE4C9S0cBtAcBHqWjgtgAsKcetga9dAJaUigZuCwAA4MU6NwH4i1Q0cFsA8FEqGrgtAEvKcWvgaxeAJaWigdsCAAB4sc5NAP4iFQ3cFgB8lIoGbgvAknLcGvjaBWBJqWjgtgAAAF6scxOAv0hFA7cFAB+looHbArCkHLcGvnYBWFIqGrgtAACAF+vcBOAvUtHAbQHAR6lo4LYALCnHrYGvXQCWlIoGbgsAAODFOjcB+ItUNHBbAPBRKhq4LQBLynFr4GsXgCWlooHbAgAAeLHOTQD+IhUN3BYAfJSKBm4LwJJy3Br42gVgSalo4LYAAABerHMTgL9IRQO3BQAfpaKB2wKwpBy3Br52AVhSKhq4LQAAgBfr3ATgL1LRwG0BwEepaOC2ACwpx62Br10AlpSKBm4LAADgxTo3AfiLVDRwWwDwUSoauC0AS8pxa+BrF4AlpaKB2wIAAHixzk0A/iIVDdwWAHyUigZuC8CSctwa+NoFYEmpaOC2AAAAXqxzE4C/SEUDtwUAH6WigdsCsKQctwa+dgFYUioauC0AAIAX69wE4C9S0cBtAcBHqWjgtgAsKcetga9dAJaUigZuCwAA4MU6NwH4i1Q0cFsA8FEqGrgtAEvKcWvgaxeAJaWigdsCAAB4sc5NAP4iFQ3cFgB8lIoGbgvAknLcGvjaBWBJqWjgtgAAAF6scxOAv0hFA7cFAB+looHbArCkHLcGvnYBWFIqGrgtAACAF+vcBOAvUtHAbQHAR6lo4LYALCnHrYGvXQCWlIoGbgsAAODFOjcB+ItUNHBbAPBRKhq4LQBLynFr4GsXgCWlooHbAgAAeLHOTQD+IhUN3BYAfJSKBm4LwJJy3Br42gVgSalo4LYAAABerHMTgL9IRQO3BQAfpaKB2wKwpBy3Br52AVhSKhq4LQAAgBfr3ATgL1LRwG0BwEepaOC2ACwpx62Br10AlpSKBm4LAADgxTo3AfiLVDRwWwDwUSoauC0AS8pxa+BrF4AlpaKB2wIAAHixzk0A/iIVDdwWAHyUigZuC8CSctwa+NoFYEmpaOC2AAAAXqxzE4C/SEUDtwUAH6WigdsCsKQctwa+dgFYUioauC0AAIAX69wE4C9S0cBtAcBHqWjgtgAsKcetga9dAJaUigZuCwAA4MU6NwH4i1Q0cFsA8FEqGrgtAEvKcWvgaxeAJaWigdsCAAB4sc5NAP4iFQ3cFgB8lIoGbgvAknLcGvjaBWBJqWjgtgAAAF6scxOAv0hFA7cFAB+looHbArCkHLcGvnYBWFIqGrgtAACAF+vcBOAvUtHAbQHAR6lo4LYALCnHrYGvXQCWlIoGbgsAAODFOjcB+ItUNHBbAPBRKhq4LQBLynFr4GsXgCWlooHbAgAAeLHOTQD+IhUN3BYAfJSKBm4LwJJy3Br42gVgSalo4LYAAABerHMTgL9IRQO3BQAfpaKB2wKwpBy3Br52AVhSKhq4LQAAgBfr3ATgL1LRwG0BwEepaOC2ACwpx62Br10AlpSKBm4LAADgxTo3AfiLVDRwWwDwUSoauC0AS8pxa+BrF4AlpaKB2wIAAHixzk0A/iIVDdwWAHyUigZuC8CSctwa+NoFYEmpaOC2AAAAXqxzE4C/SEUDtwUAH6WigdsCsKQctwa+dgFYUioauC0AAIAX69wE4C9S0cBtAcBHqWjgtgAsKcetga9dAJaUigZuCwAA4MU6NwH4i1Q0cFsA8FEqGrgtAEvKcWvgaxeAJaWigdsCAAB4sc5NAP4iFQ3cFgB8lIoGbgvAknLcGvjaBWBJqWjgtgAAAF6scxOAv0hFA7cFAB+looHbArCkHLcGvnYBWFIqGrgtAACAF+vcBOAvUtHAbQHAR6lo4LYALCnHrYGvXQCWlIoGbgsAAODFOjcB+ItUNHBbAPBRKhq4LQBLynFr4GsXgCWlooHbAgAAeLHOTQD+IhUN3BYAfJSKBm4LwJJy3Br42gVgSalo4LYAAABerHMTgL9IRQO3BQAfpaKB2wKwpBy3Br52AVhSKhq4LQAAgBfr3ATgL1LRwG0BwEepaOC2ACwpx62Br10AlpSKBm4LAADgxTo3AfiLVDRwWwDwUSoauC0AS8pxa+BrF4AlpaKB2wIAAHixzk0A/iIVDdwWAHyUigZuC8CSctwa+NoFYEmpaOC2AAAAXqxzE4C/SEUDtwUAH6WigdsCsKQctwa+dgFYUioauC0AAIAX69wE4C9S0cBtAcBHqWjgtgAsKcetga9dAJaUigZuCwAA4MU6NwH4i1Q0cFsA8FEqGrgtAEvKcWvgaxeAJaWigdsCAAB4sc5NAP4iFQ3cFgB8lIoGbgvAknLcGvjaBWBJqWjgtgAAAF6scxOAv0hFA7cFAB+looHbArCkHLcGvnYBWFIqGrgtAACAF+vcBOAvUtHAbQHAR6lo4LYALCnHrYGvXQCWlIoGbgsAAODFOjcB+ItUNHBbAPBRKhq4LQBLynFr4GsXgCWlooHbAgAAeLHOTQD+IhUN3BYAfJSKBm4LwJJy3Br42gVgSalo4LYAAABerHMTgL9IRQO3BQAfpaKB2wKwpBy3Br52AVhSKhq4LQAAgBfr3ATgL1LRwG0BwEepaOC2ACwpx62Br10AlpSKBm4LAADgxTo3AfiLVDRwWwDwUSoauC0AS8pxa+BrF4AlpaKB2wIAAHixzk0A/iIVDdwWAHyUigZuC8CSctwa+NoFYEmpaOC2AAAAXqxzE4C/SEUDtwUAH6WigdsCsKQctwa+dgFYUioauC0AAIAX69wE4C9S0cBtAcBHqWjgtgAsKcetga9dAJaUigZuCwAA4MU6NwH4i1Q0cFsA8FEqGrgtAEvKcWvgaxeAJaWigdsCAAB4sc5NAP4iFQ3cFgB8lIoGbgvAknLcGvjaBWBJqWjgtgAAAF6scxOAv0hFA7cFAB+looHbArCkHLcGvnYBWFIqGrgtAACAF+vcBOAvUtHAbQHAR6lo4LYALCnHrYGvXQCWlIoGbgsAAODFOjcB+ItUNHBbAPBRKkwdp+UAABXgSURBVBq4LQBLynFr4GsXgCWlooHbAgAAeLHOTQD+IhUN3BYAfJSKBm4LwJJy3Br42gVgSalo4LYAAABerHMTgL9IRQO3BQAfpaKB2wKwpBy3Br52AVhSKhq4LQAAgBfr3ATgL1LRwG0BwEepaOC2ACwpx62Br10AlpSKBm4LAADgxTo3AfiLVDRwWwDwUSoauC0AS8pxa+BrF4AlpaKB2wIAAHixzk0A/iIVDdwWAHyUigZuC8CSctwa+NoFYEmpaOC2AAAAXqxzE4C/SEUDtwUAH6WigdsCsKQctwa+dgFYUioauC0AAIAX69wE4C9S0cBtAcBHqWjgtgAsKcetga9dAJaUigZuCwAA4MU6NwH4i1Q0cFsA8FEqGrgtAEvKcWvgaxeAJaWigdsCAAB4sc5NAP4iFQ3cFgB8lIoGbgvAknLcGvjaBWBJqWjgtgAAAF6scxOAv0hFA7cFAB+looHbArCkHLcGvnYBWFIqGrgtAACAF+vcBOAvUtHAbQHAR6lo4LYALCnHrYGvXQCWlIoGbgsAAODFOjcB+ItUNHBbAPBRKhq4LQBLynFr4GsXgCWlooHbAgAAeLHOTQD+IhUN3BYAfJSKBm4LwJJy3Br42gVgSalo4LYAAABerHMTgL9IRQO3BQAfpaKB2wKwpBy3Br52AVhSKhq4LQAAgBfr3ATgL1LRwG0BwEepaOC2ACwpx62Br10AlpSKBm4LAADgxTo3AfiLVDRwWwDwUSoauC0AS8pxa+BrF4AlpaKB2wIAAHixzk0A/iIVDdwWAHyUigZuC8CSctwa+NoFYEmpaOC2AAAAXqxzE4C/SEUDtwUAH6WigdsCsKQctwa+dgFYUioauC0AAIAX69wE4C9S0cBtAcBHqWjgtgAsKcetga9dAJaUigZuCwAA4MU6NwH4i1Q0cFsA8FEqGrgtAEvKcWvgaxeAJaWigdsCAAB4sc5NAP4iFQ3cFgB8lIoGbgvAknLcGvjaBWBJqWjgtgAAAF6scxOAv0hFA7cFAB+looHbArCkHLcGvnYBWFIqGrgtAACAF+vcBOAvUtHAbQHAR6lo4LYALCnHrYGvXQCWlIoGbgsAAODFOjcB+ItUNHBbAPBRKhq4LQBLynFr4GsXgCWlooHbAgAAeLHOTQD+IhUN3BYAfJSKBm4LwJJy3Br42gVgSalo4LYAAABerHMTgL9IRQO3BQAfpaKB2wKwpBy3Br52AVhSKhq4LQAAgBfr3ATgL1LRwG0BwEepaOC2ACwpx62Br10AlpSKBm4LAADgxTo3AfiLVDRwWwDwUSoauC0AS8pxa+BrF4AlpaKB2wIAAHixzk0A/iIVDdwWAHyUigZuC8CSctwa+NoFYEmpaOC2AAAAXqxzE4C/SEUDtwUAH6WigdsCsKQctwa+dgFYUioauC0AAIAX69wE4C9S0cBtAcBHqWjgtgAsKcetga9dAJaUigZuCwAA4MU6NwH4i1Q0cFsA8FEqGrgtAEvKcWvgaxeAJaWigdsCAAB4sc5NAP4iFQ3cFgB8lIoGbgvAknLcGvjaBWBJqWjgtgAAAF6scxOAv0hFA7cFAB+looHbArCkHLcGvnYBWFIqGrgtAACAF+vcBOAvUtHAbQHAR6lo4LYALCnHrYGvXQCWlIoGbgsAAODFOjcB+ItUNHBbAPBRKhq4LQBLynFr4GsXgCWlooHbAgAAeLHOTQD+IhUN3BYAfJSKBm4LwJJy3Br42gVgSalo4LYAAABerHMTgL9IRQO3BQAfpaKB2wKwpBy3Br52AVhSKhq4LQAAgBfr3ATgL1LRwG0BwEepaOC2ACwpx62Br10AlpSKBm4LAADgxTo3AfiLVDRwWwDwUSoauC0AS8pxa+BrF4AlpaKB2wIAAHixzk0A/iIVDdwWAHyUigZuC8CSctwa+NoFYEmpaOC2AAAAXqxzE4C/SEUDtwUAH6WigdsCsKQctwa+dgFYUioauC0AAIAX69wE4C9S0cBtAcBHqWjgtgAsKcetga9dAJaUigZuCwAA4MU6NwH4i1Q0cFsA8FEqGrgtAEvKcWvgaxeAJaWigdsCAAB4sc5NAP4iFQ3cFgB8lIoGbgvAknLcGvjaBWBJqWjgtgAAAF6scxOAv0hFA7cFAB+looHbArCkHLcGvnYBWFIqGrgtAACAF+vcBOAvUtHAbQHAR6lo4LYALCnHrYGvXQCWlIoGbgsAAODFOjcB+ItUNHBbAPBRKhq4LQBLynFr4GsXgCWlooHbAgAAeLHOTQD+IhUN3BYAfJSKBm4LwJJy3Br42gVgSalo4LYAAABerHMTgL9IRQO3BQAfpaKB2wKwpBy3Br52AVhSKhq4LQAAgBfr3ATgL1LRwG0BwEepaOC2ACwpx62Br10AlpSKBm4LAADgxTo3AfiLVDRwWwDwUSoauC0AS8pxa+BrF4AlpaKB2wIAAHixzk0A/iIVDdwWAHyUigZuC8CSctwa+NoFYEmpaOC2AAAAXqxzE4C/SEUDtwUAH6WigdsCsKQctwa+dgFYUioauC0AAIAX69wE4C9S0cBtAcBHqWjgtgAsKcetga9dAJaUigZuCwAA4MU6NwH4i1Q0cFsA8FEqGrgtAEvKcWvgaxeAJaWigdsCAAB4sc5NAP4iFQ3cFgB8lIoGbgvAknLcGvjaBWBJqWjgtgAAAF6scxOAv0hFA7cFAB+looHbArCkHLcGvnYBWFIqGrgtAACAF+vcBOAvUtHAbQHAR6lo4LYALCnHrYGvXQCWlIoGbgsAAODFOjcB+ItUNHBbAPBRKhq4LQBLynFr4GsXgCWlooHbAgAAeLHOTQD+IhUN3BYAfJSKBm4LwJJy3Br42gVgSalo4LYAAABerHMTgL9IRQO3BQAfpaKB2wKwpBy3Br52AVhSKhq4LQAAgBfr3ATgL1LRwG0BwEepaOC2ACwpx62Br10AlpSKBm4LAADgxTo3AfiLVDRwWwDwUSoauC0AS8pxa+BrF4AlpaKB2wIAAHixzk0A/iIVDdwWAHyUigZuC8CSctwa+NoFYEmpaOC2AAAAXqxzE4C/SEUDtwUAH6WigdsCsKQctwa+dgFYUioauC0AAIAX69wE4C9S0cBtAcBHqWjgtgAsKcetga9dAJaUigZuCwAA4MU6NwH4i1Q0cFsA8FEqGrgtAEvKcWvgaxeAJaWigdsCAAB4sc5NAP4iFQ3cFgB8lIoGbgvAknLcGvjaBWBJqWjgtgAAAF6scxOAv0hFA7cFAB+looHbArCkHLcGvnYBWFIqGrgtAACAF+vcBOAvUtHAbQHAR6lo4LYALCnHrYGvXQCWlIoGbgsAAODFOjcB+ItUNHBbAPBRKhq4LQBLynFr4GsXgCWlooHbAgAAeLHOTQD+IhUN3BYAfJSKBm4LwJJy3Br42gVgSalo4LYAAABerHMTgL9IRQO3BQAfpaKB2wKwpBy3Br52AVhSKhq4LQAAgBfr3ATgL1LRwG0BwEepaOC2ACwpx62Br10AlpSKBm4LAADgxTo3AfiLVDRwWwDwUSoauC0AS8pxa+BrF4AlpaKB2wIAAHixzk0A/iIVDdwWAHyUigZuC8CSctwa+NoFYEmpaOC2AAAAXqxzE4C/SEUDtwUAH6WigdsCsKQctwa+dgFYUioauC0AAIAX69wE4C9S0cBtAcBHqWjgtgAsKcetga9dAJaUigZuCwAA4MU6NwH4i1Q0cFsA8FEqGrgtAEvKcWvgaxeAJaWigdsCAAB4sc5NAP4iFQ3cFgB8lIoGbgvAknLcGvjaBWBJqWjgtgAAAF6scxOAv0hFA7cFAB+looHbArCkHLcGvnYBWFIqGrgtAACAF+vcBOAvUtHAbQHAR6lo4LYALCnHrYGvXQCWlIoGbgsAAODFOjcB+ItUNHBbAPBRKhq4LQBLynFr4GsXgCWlooHbAgAAeLHOTQD+IhUN3BYAfJSKBm4LwJJy3Br42gVgSalo4LYAAABerHMTgL9IRQO3BQAfpaKB2wKwpBy3Br52AVhSKhq4LQAAgBfr3ATgL1LRwG0BwEepaOC2ACwpx62Br10AlpSKBm4LAADgxTo3AfiLVDRwWwDwUSoauC0AS8pxa+BrF4AlpaKB2wIAAHixzk0A/iIVDdwWAHyUigZuC8CSctwa+NoFYEmpaOC2AAAAXqxzE4C/SEUDtwUAH6WigdsCsKQctwa+dgFYUioauC0AAIAX69wE4C9S0cBtAcBHqWjgtgAsKcetga9dAJaUigZuCwAA4MU6NwH4i1Q0cFsA8FEqGrgtAEvKcWvgaxeAJaWigdsCAAB4sc5NAP4iFQ3cFgB8lIoGbgvAknLcGvjaBWBJqWjgtgAAAF6scxOAv0hFA7cFAB+looHbArCkHLcGvnYBWFIqGrgtAACAF+vcBOAvUtHAbQHAR6lo4LYALCnHrYGvXQCWlIoGbgsAAODFOjcB+ItUNHBbAPBRKhq4LQBLynFr4GsXgCWlooHbAgAAeLHOTQD+IhUN3BYAfJSKBm4LwJJy3Br42gVgSalo4LYAAABerHMTgL9IRQO3BQAfpaKB2wKwpBy3Br52AVhSKhq4LQAAgBfr3ATgL1LRwG0BwEepaOC2ACwpx62Br10AlpSKBm4LAADgxTo3AfiLVDRwWwDwUSoauC0AS8pxa+BrF4AlpaKB2wIAAHixzk0A/iIVDdwWAHyUigZuC8CSctwa+NoFYEmpaOC2AAAAXqxzE4C/SEUDtwUAH6WigdsCsKQctwa+dgFYUioauC0AAIAX69wE4C9S0cBtAcBHqWjgtgAsKcetga9dAJaUigZuCwAA4MU6NwH4i1Q0cFsA8FEqGrgtAEvKcWvgaxeAJaWigdsCAAB4sc5NAP4iFQ3cFgB8lIoGbgvAknLcGvjaBWBJqWjgtgAAAF6scxOAv0hFA7cFAB+looHbArCkHLcGvnYBWFIqGrgtAACAF+vcBOAvUtHAbQHAR6lo4LYALCnHrYGvXQCWlIoGbgsAAODFOjcB+ItUNHBbAPBRKhq4LQBLynFr4GsXgCWlooHbAgAAeLHOTQD+IhUN3BYAfJSKBm4LwJJy3Br42gVgSalo4LYAAABerHMTgL9IRQO3BQAfpaKB2wKwpBy3Br52AVhSKhq4LQAAgBfr3ATgL1LRwG0BwEepaOC2ACwpx62Br10AlpSKBm4LAADgxTo3AfiLVDRwWwDwUSoauC0AS8pxa+BrF4AlpaKB2wIAAHixzk0A/iIVDdwWAHyUigZuC8CSctwa+NoFYEmpaOC2AAAAXqxzE4C/SEUDtwUAH6WigdsCsKQctwa+dgFYUioauC0AAIAX69wE4C9S0cBtAcBHqWjgtgAsKcetga9dAJaUigZuCwAA4MU6NwH4i1Q0cFsA8FEqGrgtAEvKcWvgaxeAJaWigdsCAAB4sc5NAP4iFQ3cFgB8lIoGbgvAknLcGvjaBWBJqWjgtgAAAF6scxOAv0hFA7cFAB+looHbArCkHLcGvnYBWFIqGrgtAACAF+vcBOAvUtHAbQHAR6lo4LYALCnHrYGvXQCWlIoGbgsAAODFOjcB+ItUNHBbAPBRKhq4LQBLynFr4GsXgCWlooHbAgAAeLHOTQD+IhUN3BYAfJSKBm4LwJJy3Br42gVgSalo4LYAAABerHMTgL9IRQO3BQAfpaKB2wKwpBy3Br52AVhSKhq4LQAAgBfr3ATgL1LRwG0BwEepaOC2ACwpx62Br10AlpSKBm4LAADgxTo3AfiLVDRwWwDwUSoauC0AS8pxa+BrF4AlpaKB2wIAAHixzk0A/iIVDdwWAHyUigZuC8CSctwa+NoFYEmpaOC2AAAAXqxzE4C/SEUDtwUAH6WigdsCsKQctwa+dgFYUioauC0AAIAX69wE4C9S0cBtAcBHqWjgtgAsKcetga9dAJaUigZuCwAA4MU6NwH4i1Q0cFsA8FEqGrgtAEvKcWvgaxeAJaWigdsCAAB4sc5NAP4iFQ3cFgB8lIoGbgvAknLcGvjaBWBJqWjgtgAAAF6scxOAv0hFA7cFAB+looHbArCkHLcGvnYBWFIqGrgtAACAF+vcBOAvUtHAbQHAR6lo4LYALCnHrYGvXQCWlIoGbgsAAODFOjcB+ItUNHBbAPBRKhq4LQBLynFr4GsXgCWlooHbAgAAeLHOTQD+IhUN3BYAfJSKBm4LwJJy3Br42gVgSalo4LYAAABerHMTgL9IRQO3BQAfpaKB2wKwpBy3Br52AVhSKhq4LQAAgBfr3ATgL1LRwG0BwEepaOC2ACwpx62Br10AlpSKBm4LAADgxTo3AfiLVDRwWwDwUSoauC0AS8pxa+BrF4AlpaKB2wIAAHixzk0A/iIVDdwWAHyUigZuC8CSctwa+NoFYEmpaOC2AAAAXqxzE4C/SEUDtwUAH6WigdsCsKQctwa+dgFYUioauC0AAIAX69wE4C9S0cBtAcBHqWjgtgAsKcetga9dAJaUigZuCwAA4MU6NwH4i1Q0cFsA8FEqGrgtAEvKcWvgaxeAJaWigdsCAAB4sc5NAP4iFQ3cFgB8lIoGbgvAknLcGvjaBWBJqWjgtgAAAF6scxOAv0hFA7cFAB+looHbArCkHLcGvnYBWFIqGrgtAACAF+vcBOAvUtHAbQHAR6lo4LYALCnHrYGvXQCWlIoGbgsAAODFOjcB+ItUNHBbAPBRKhq4LQBLynFr4GsXgCWlooHbAgAAeLHOTQD+IhUN3BYAfJSKBm4LwJJy3Br42gVgSalo4LYAAABerHMTgL9IRQO3BQAfpaKB2wKwpBy3Br52AVhSKhq4LQAAgBfr3ATgL1LRwG0BwEepaOC2ACwpx62Br10AlpSKBm4LAADgxTo3AfiLVDRwWwDwUSoauC0AS8pxa+BrF4AlpaKB2wIAAHixzk0A/iIVDdwWAHyUigZuC8CSctwa+NoFYEmpaOC2AAAAXqxzE4C/SEUDtwUAH6WigdsCsKQctwa+dgFYUioauC0AAIAX69wE4C9S0cBtAcBHqWjgtgAsKcetga9dAJaUigZuCwAA4MU6NwH4i1Q0cFsA8FEqGrgtAEvKcWvgaxeAJaWigdsCAAB4sc5NAP4iFQ3cFgB8lIoGbgvAknLcGvjaBWBJqWjgtgAAAF6scxOAv0hFA7cFAB+looHbArCkHLcGvnYBWFIqGrgtAACAF+vcBOAvUtHAbQHAR6lo4LYALCnHrYGvXQCWlIoGbgsAAODFOjcB+ItUNHBbAPBRKhq4LQBLynFr4GsXgCWlooHbAgAAeLHOTQD+IhUN3BYAfJSKBm4LwJJy3Br42gVgSalo4LYAAABerHMTgL9IRQO3BQAfpaKB2wKwpBy3Br52AVhSKhq4LQAAgBfr3ATgL1LRwG0BwEepaOC2ACwpx62Br10AlpSKBm4LAADgxTo3AfiLVDRwWwDwUSoauC0AS8pxa+BrF4AlpaKB+xkjwygYBaNgFIyCUTAKRgEGAAAxuZ+JlQBuJwAAAABJRU5ErkJggg==;" vertex="1" parent="1">
          <mxGeometry x="-590" y="-1110" width="787.52" height="510" as="geometry" />
        </mxCell>
        <mxCell id="BB2fsDTz9CcMep_27AKw-2" value="&lt;font style=&quot;font-size: 64px;&quot;&gt;A&lt;/font&gt;" style="text;html=1;strokeColor=none;fillColor=none;align=center;verticalAlign=middle;whiteSpace=wrap;rounded=0;fontColor=#007FFF;fontSize=64;" vertex="1" parent="1">
          <mxGeometry x="-610" y="-1080" width="150" height="30" as="geometry" />
        </mxCell>
        <mxCell id="BB2fsDTz9CcMep_27AKw-3" value="&lt;font style=&quot;font-size: 40px;&quot;&gt;B&lt;/font&gt;" style="text;html=1;strokeColor=none;fillColor=none;align=center;verticalAlign=middle;whiteSpace=wrap;rounded=0;fontColor=#007FFF;fontSize=40;" vertex="1" parent="1">
          <mxGeometry x="-648" y="-980" width="150" height="30" as="geometry" />
        </mxCell>
        <mxCell id="BB2fsDTz9CcMep_27AKw-4" value="&lt;font style=&quot;font-size: 40px;&quot;&gt;C&lt;/font&gt;" style="text;html=1;strokeColor=none;fillColor=none;align=center;verticalAlign=middle;whiteSpace=wrap;rounded=0;fontColor=#007FFF;fontSize=40;" vertex="1" parent="1">
          <mxGeometry x="-580" y="-980" width="150" height="30" as="geometry" />
        </mxCell>
        <mxCell id="BB2fsDTz9CcMep_27AKw-5" value="&lt;span style=&quot;font-size: 40px;&quot;&gt;D&lt;/span&gt;" style="text;html=1;strokeColor=none;fillColor=none;align=center;verticalAlign=middle;whiteSpace=wrap;rounded=0;fontColor=#007FFF;fontSize=40;" vertex="1" parent="1">
          <mxGeometry x="-648" y="-900" width="150" height="30" as="geometry" />
        </mxCell>
        <mxCell id="BB2fsDTz9CcMep_27AKw-7" value="&lt;font style=&quot;font-size: 40px;&quot;&gt;F&lt;/font&gt;" style="text;html=1;strokeColor=none;fillColor=none;align=center;verticalAlign=middle;whiteSpace=wrap;rounded=0;fontColor=#007FFF;fontSize=40;" vertex="1" parent="1">
          <mxGeometry x="-648" y="-830" width="150" height="30" as="geometry" />
        </mxCell>
        <mxCell id="BB2fsDTz9CcMep_27AKw-8" value="&lt;font style=&quot;font-size: 40px;&quot;&gt;H&lt;/font&gt;" style="text;html=1;strokeColor=none;fillColor=none;align=center;verticalAlign=middle;whiteSpace=wrap;rounded=0;fontColor=#007FFF;fontSize=40;" vertex="1" parent="1">
          <mxGeometry x="-648" y="-760" width="150" height="30" as="geometry" />
        </mxCell>
        <mxCell id="BB2fsDTz9CcMep_27AKw-9" value="&lt;font style=&quot;font-size: 64px;&quot;&gt;J&lt;/font&gt;" style="text;html=1;strokeColor=none;fillColor=none;align=center;verticalAlign=middle;whiteSpace=wrap;rounded=0;fontColor=#007FFF;fontSize=64;" vertex="1" parent="1">
          <mxGeometry x="-610" y="-660" width="150" height="30" as="geometry" />
        </mxCell>
        <mxCell id="BB2fsDTz9CcMep_27AKw-10" value="&lt;font style=&quot;font-size: 40px;&quot;&gt;E&lt;/font&gt;" style="text;html=1;strokeColor=none;fillColor=none;align=center;verticalAlign=middle;whiteSpace=wrap;rounded=0;fontColor=#007FFF;fontSize=40;" vertex="1" parent="1">
          <mxGeometry x="-580" y="-900" width="150" height="30" as="geometry" />
        </mxCell>
        <mxCell id="BB2fsDTz9CcMep_27AKw-11" value="&lt;font style=&quot;font-size: 40px;&quot;&gt;G&lt;/font&gt;" style="text;html=1;strokeColor=none;fillColor=none;align=center;verticalAlign=middle;whiteSpace=wrap;rounded=0;fontColor=#007FFF;fontSize=40;" vertex="1" parent="1">
          <mxGeometry x="-580" y="-830" width="150" height="30" as="geometry" />
        </mxCell>
        <mxCell id="BB2fsDTz9CcMep_27AKw-12" value="&lt;font style=&quot;font-size: 40px;&quot;&gt;I&lt;/font&gt;" style="text;html=1;strokeColor=none;fillColor=none;align=center;verticalAlign=middle;whiteSpace=wrap;rounded=0;fontColor=#007FFF;fontSize=40;" vertex="1" parent="1">
          <mxGeometry x="-580" y="-760" width="150" height="30" as="geometry" />
        </mxCell>
        <mxCell id="BB2fsDTz9CcMep_27AKw-13" value="&lt;font style=&quot;font-size: 64px;&quot;&gt;K&lt;/font&gt;" style="text;html=1;strokeColor=none;fillColor=none;align=center;verticalAlign=middle;whiteSpace=wrap;rounded=0;fontColor=#007FFF;fontSize=64;" vertex="1" parent="1">
          <mxGeometry x="-470" y="-1080" width="150" height="30" as="geometry" />
        </mxCell>
        <mxCell id="BB2fsDTz9CcMep_27AKw-14" value="&lt;font style=&quot;font-size: 64px;&quot;&gt;Q&lt;/font&gt;" style="text;html=1;strokeColor=none;fillColor=none;align=center;verticalAlign=middle;whiteSpace=wrap;rounded=0;fontColor=#007FFF;fontSize=64;" vertex="1" parent="1">
          <mxGeometry x="-271.24" y="-1080" width="150" height="30" as="geometry" />
        </mxCell>
        <mxCell id="BB2fsDTz9CcMep_27AKw-15" value="&lt;font style=&quot;font-size: 64px;&quot;&gt;V&lt;/font&gt;" style="text;html=1;strokeColor=none;fillColor=none;align=center;verticalAlign=middle;whiteSpace=wrap;rounded=0;fontColor=#007FFF;fontSize=64;" vertex="1" parent="1">
          <mxGeometry y="-1080" width="150" height="30" as="geometry" />
        </mxCell>
        <mxCell id="BB2fsDTz9CcMep_27AKw-16" value="&lt;font style=&quot;font-size: 64px;&quot;&gt;L&lt;/font&gt;" style="text;html=1;strokeColor=none;fillColor=none;align=center;verticalAlign=middle;whiteSpace=wrap;rounded=0;fontColor=#007FFF;fontSize=64;" vertex="1" parent="1">
          <mxGeometry x="-470" y="-980" width="150" height="30" as="geometry" />
        </mxCell>
        <mxCell id="BB2fsDTz9CcMep_27AKw-17" value="&lt;font style=&quot;font-size: 64px;&quot;&gt;M&lt;/font&gt;" style="text;html=1;strokeColor=none;fillColor=none;align=center;verticalAlign=middle;whiteSpace=wrap;rounded=0;fontColor=#007FFF;fontSize=64;" vertex="1" parent="1">
          <mxGeometry x="-470" y="-900" width="150" height="30" as="geometry" />
        </mxCell>
        <mxCell id="BB2fsDTz9CcMep_27AKw-18" value="&lt;font style=&quot;font-size: 64px;&quot;&gt;N&lt;/font&gt;" style="text;html=1;strokeColor=none;fillColor=none;align=center;verticalAlign=middle;whiteSpace=wrap;rounded=0;fontColor=#007FFF;fontSize=64;" vertex="1" parent="1">
          <mxGeometry x="-470" y="-840" width="150" height="30" as="geometry" />
        </mxCell>
        <mxCell id="BB2fsDTz9CcMep_27AKw-19" value="&lt;font style=&quot;font-size: 64px;&quot;&gt;O&lt;/font&gt;" style="text;html=1;strokeColor=none;fillColor=none;align=center;verticalAlign=middle;whiteSpace=wrap;rounded=0;fontColor=#007FFF;fontSize=64;" vertex="1" parent="1">
          <mxGeometry x="-470" y="-760" width="150" height="30" as="geometry" />
        </mxCell>
        <mxCell id="BB2fsDTz9CcMep_27AKw-20" value="&lt;font style=&quot;font-size: 64px;&quot;&gt;P&lt;/font&gt;" style="text;html=1;strokeColor=none;fillColor=none;align=center;verticalAlign=middle;whiteSpace=wrap;rounded=0;fontColor=#007FFF;fontSize=64;" vertex="1" parent="1">
          <mxGeometry x="-470" y="-660" width="150" height="30" as="geometry" />
        </mxCell>
        <mxCell id="BB2fsDTz9CcMep_27AKw-21" value="&lt;font style=&quot;font-size: 64px;&quot;&gt;R&lt;/font&gt;" style="text;html=1;strokeColor=none;fillColor=none;align=center;verticalAlign=middle;whiteSpace=wrap;rounded=0;fontColor=#007FFF;fontSize=64;" vertex="1" parent="1">
          <mxGeometry x="-271.24" y="-980" width="150" height="30" as="geometry" />
        </mxCell>
        <mxCell id="BB2fsDTz9CcMep_27AKw-22" value="&lt;font style=&quot;font-size: 64px;&quot;&gt;S&lt;/font&gt;" style="text;html=1;strokeColor=none;fillColor=none;align=center;verticalAlign=middle;whiteSpace=wrap;rounded=0;fontColor=#007FFF;fontSize=64;" vertex="1" parent="1">
          <mxGeometry x="-271.24" y="-870" width="150" height="30" as="geometry" />
        </mxCell>
        <mxCell id="BB2fsDTz9CcMep_27AKw-23" value="&lt;span style=&quot;font-size: 64px;&quot;&gt;T&lt;/span&gt;" style="text;html=1;strokeColor=none;fillColor=none;align=center;verticalAlign=middle;whiteSpace=wrap;rounded=0;fontColor=#007FFF;fontSize=64;" vertex="1" parent="1">
          <mxGeometry x="-271.24" y="-760" width="150" height="30" as="geometry" />
        </mxCell>
        <mxCell id="BB2fsDTz9CcMep_27AKw-24" value="&lt;font style=&quot;font-size: 64px;&quot;&gt;U&lt;/font&gt;" style="text;html=1;strokeColor=none;fillColor=none;align=center;verticalAlign=middle;whiteSpace=wrap;rounded=0;fontColor=#007FFF;fontSize=64;" vertex="1" parent="1">
          <mxGeometry x="-271.24" y="-660" width="150" height="30" as="geometry" />
        </mxCell>
        <mxCell id="BB2fsDTz9CcMep_27AKw-25" value="&lt;font style=&quot;font-size: 64px;&quot;&gt;W&lt;/font&gt;" style="text;html=1;strokeColor=none;fillColor=none;align=center;verticalAlign=middle;whiteSpace=wrap;rounded=0;fontColor=#007FFF;fontSize=64;" vertex="1" parent="1">
          <mxGeometry y="-980" width="150" height="30" as="geometry" />
        </mxCell>
        <mxCell id="BB2fsDTz9CcMep_27AKw-26" value="&lt;font style=&quot;font-size: 64px;&quot;&gt;X&lt;/font&gt;" style="text;html=1;strokeColor=none;fillColor=none;align=center;verticalAlign=middle;whiteSpace=wrap;rounded=0;fontColor=#007FFF;fontSize=64;" vertex="1" parent="1">
          <mxGeometry y="-870" width="150" height="30" as="geometry" />
        </mxCell>
        <mxCell id="BB2fsDTz9CcMep_27AKw-27" value="&lt;font style=&quot;font-size: 64px;&quot;&gt;Y&lt;/font&gt;" style="text;html=1;strokeColor=none;fillColor=none;align=center;verticalAlign=middle;whiteSpace=wrap;rounded=0;fontColor=#007FFF;fontSize=64;" vertex="1" parent="1">
          <mxGeometry y="-760" width="150" height="30" as="geometry" />
        </mxCell>
        <mxCell id="BB2fsDTz9CcMep_27AKw-28" value="&lt;font style=&quot;font-size: 64px;&quot;&gt;Z&lt;/font&gt;" style="text;html=1;strokeColor=none;fillColor=none;align=center;verticalAlign=middle;whiteSpace=wrap;rounded=0;fontColor=#007FFF;fontSize=64;" vertex="1" parent="1">
          <mxGeometry y="-660" width="150" height="30" as="geometry" />
        </mxCell>
      </root>
    </mxGraphModel>
  </diagram>
</mxfile>
